<?xml version="1.0" encoding="UTF-8"?>
<svg id="Camada_1" data-name="Camada 1" xmlns="http://www.w3.org/2000/svg" viewBox="0 0 576.46 51.36">
  <defs>
    <style>
      .cls-1 {
        fill: #fff;
        stroke: #333;
        stroke-width: .7px;
      }

      .cls-1, .cls-2 {
        stroke-miterlimit: 10;
      }

      .cls-3 {
        fill: gray;
      }

      .cls-3, .cls-4 {
        stroke-width: 0px;
      }

      .cls-4, .cls-2 {
        fill: #333;
      }

      .cls-2 {
        stroke: #000;
        stroke-width: .96px;
      }
    </style>
  </defs>
  <g>
    <path class="cls-4" d="m17.08,13.22c1.82,0,3.22.59,4.22,1.77l-1.57,1.53c-.6-.81-1.5-1.22-2.69-1.22-.65,0-1.17.14-1.55.43-.38.29-.57.68-.57,1.17,0,.41.18.71.53.91.35.2.99.37,1.91.49,1.52.2,2.61.59,3.25,1.17.65.58.97,1.45.97,2.61s-.41,2.09-1.23,2.77-1.92,1.02-3.31,1.02c-2.16,0-3.81-.67-4.94-2.03l1.55-1.6c.91,1.03,2.01,1.55,3.3,1.55.68,0,1.21-.14,1.61-.42.4-.28.6-.67.6-1.16s-.19-.84-.57-1.1c-.38-.25-1.07-.45-2.08-.6-1.46-.21-2.49-.58-3.1-1.11-.6-.53-.9-1.32-.9-2.38,0-1.15.41-2.08,1.24-2.77s1.94-1.04,3.33-1.04Z"/>
    <path class="cls-4" d="m30.99,25.7h-1.86l-.13-1.11h-.04c-.65.86-1.5,1.29-2.56,1.29s-1.88-.31-2.4-.93c-.52-.62-.77-1.56-.77-2.83v-5.55h2.27v5.49c0,1.23.46,1.84,1.38,1.84.8,0,1.41-.47,1.84-1.42v-5.91h2.27v9.12Z"/>
    <path class="cls-4" d="m37.05,16.39c2.49,0,3.74,1.28,3.74,3.83v5.47h-1.86l-.15-1.12h-.04c-.64.87-1.57,1.31-2.8,1.31-.92,0-1.65-.25-2.17-.74-.53-.49-.79-1.15-.79-1.97v-.2c0-.9.29-1.58.88-2.05.58-.47,1.44-.71,2.57-.71h2.1c0-1.23-.6-1.84-1.81-1.84-.76,0-1.5.38-2.21,1.12l-1.16-1.49c.97-1.07,2.2-1.6,3.7-1.6Zm1.47,5.29h-1.69c-.5,0-.89.1-1.17.31s-.41.5-.41.88c0,.36.11.64.34.85.23.21.56.31,1,.31.85,0,1.49-.42,1.93-1.27v-1.09Z"/>
    <path class="cls-4" d="m47.64,25.7h-2.3l-3.26-9.12h2.38l2.08,6.54h.04l2.06-6.54h2.27l-3.26,9.12Z"/>
    <path class="cls-4" d="m55.84,16.39c1.24,0,2.2.34,2.88,1.03.68.69,1.02,1.65,1.02,2.89v1.53h-5.64c0,.71.16,1.23.47,1.57.31.33.79.5,1.45.5.79,0,1.47-.38,2.06-1.14l1.58,1.22c-.92,1.27-2.18,1.9-3.78,1.9-1.29,0-2.29-.35-2.99-1.05-.71-.7-1.06-1.69-1.06-2.97v-1.44c0-1.29.35-2.29,1.04-2.99s1.68-1.05,2.96-1.05Zm-1.73,3.98h3.52c0-1.34-.6-2.01-1.79-2.01s-1.73.67-1.73,2.01Z"/>
  </g>
  <line class="cls-2" x1="72.3" y1="19.92" x2="488.05" y2="19.92"/>
  <line class="cls-1" x1="72.3" y1="15.2" x2="72.3" y2="26.09"/>
  <line class="cls-1" x1="118.5" y1="15.2" x2="118.5" y2="26.09"/>
  <line class="cls-1" x1="164.69" y1="15.2" x2="164.69" y2="26.09"/>
  <line class="cls-1" x1="210.88" y1="15.2" x2="210.88" y2="26.09"/>
  <line class="cls-1" x1="257.08" y1="15.2" x2="257.08" y2="26.09"/>
  <line class="cls-1" x1="303.27" y1="15.2" x2="303.27" y2="26.09"/>
  <line class="cls-1" x1="349.47" y1="15.2" x2="349.47" y2="26.09"/>
  <line class="cls-1" x1="395.66" y1="15.2" x2="395.66" y2="26.09"/>
  <line class="cls-1" x1="441.86" y1="15.2" x2="441.86" y2="26.09"/>
  <line class="cls-1" x1="488.05" y1="15.2" x2="488.05" y2="26.09"/>
  <circle class="cls-4" cx="257.08" cy="19.92" r="8.4"/>
  <g>
    <path class="cls-4" d="m504.18,25.7v-12.29h2.41v12.29h-2.41Z"/>
    <path class="cls-4" d="m514.02,16.39c2.12,0,3.19,1.25,3.19,3.76v5.55h-2.27v-5.51c0-1.22-.47-1.82-1.4-1.82-.82,0-1.45.47-1.88,1.4v5.93h-2.27v-9.12h1.86l.13,1.11h.04c.68-.86,1.54-1.29,2.6-1.29Z"/>
    <path class="cls-4" d="m522.26,18.53v4.11c0,.42.08.71.23.87.15.16.43.24.82.24h.72v1.95h-1.29c-.98,0-1.69-.23-2.11-.7s-.64-1.24-.64-2.32v-4.15h-1.16v-1.95h1.23l.44-2.78h1.75v2.78h1.77v1.95h-1.77Z"/>
    <path class="cls-4" d="m529.57,16.39c1.24,0,2.2.34,2.88,1.03.68.69,1.02,1.65,1.02,2.89v1.53h-5.64c0,.71.16,1.23.47,1.57.31.33.79.5,1.45.5.79,0,1.47-.38,2.06-1.14l1.58,1.22c-.92,1.27-2.18,1.9-3.78,1.9-1.29,0-2.29-.35-2.99-1.05-.71-.7-1.06-1.69-1.06-2.97v-1.44c0-1.29.35-2.29,1.04-2.99s1.68-1.05,2.96-1.05Zm-1.73,3.98h3.52c0-1.34-.6-2.01-1.79-2.01s-1.73.67-1.73,2.01Z"/>
    <path class="cls-4" d="m540.16,16.39c2.12,0,3.19,1.25,3.19,3.76v5.55h-2.27v-5.51c0-1.22-.47-1.82-1.4-1.82-.82,0-1.45.47-1.88,1.4v5.93h-2.27v-9.12h1.86l.13,1.11h.04c.68-.86,1.54-1.29,2.6-1.29Z"/>
    <path class="cls-4" d="m552.75,22.93c0,.93-.32,1.66-.97,2.17-.64.52-1.55.77-2.72.77-1.63,0-2.98-.47-4.03-1.4l1.14-1.6c.85.75,1.83,1.12,2.95,1.12.96,0,1.44-.33,1.44-.98,0-.27-.13-.48-.4-.62-.26-.14-.74-.25-1.43-.34-1.18-.13-2.02-.42-2.53-.85-.51-.43-.76-1.06-.76-1.9s.33-1.58.99-2.12c.66-.54,1.53-.81,2.61-.81,1.44,0,2.59.37,3.46,1.11l-1.03,1.57c-.64-.53-1.39-.79-2.25-.79-.5,0-.89.08-1.17.25s-.41.4-.41.71c0,.25.13.43.38.56.25.13.7.23,1.35.3,1.22.12,2.08.41,2.61.85.52.44.78,1.11.78,1.99Z"/>
    <path class="cls-4" d="m554.17,21.86v-1.44c0-1.29.35-2.29,1.06-2.99.71-.7,1.7-1.05,2.99-1.05s2.28.35,2.98,1.05c.7.7,1.05,1.7,1.05,2.99v1.44c0,1.28-.35,2.27-1.05,2.97-.7.7-1.69,1.05-2.98,1.05s-2.29-.35-2.99-1.05c-.71-.7-1.06-1.69-1.06-2.97Zm2.27-1.4v1.36c0,1.39.6,2.08,1.79,2.08s1.77-.69,1.77-2.08v-1.36c0-1.4-.59-2.1-1.77-2.1s-1.79.7-1.79,2.1Z"/>
  </g>
  <g>
    <path class="cls-3" d="m73.34,41.84h-1.39v-7.73l-2.37,1.82-.74-.97,3.1-2.44h1.39v9.31Z"/>
    <path class="cls-3" d="m121.45,40.64v1.2h-6.19v-1.07c0-.98.22-1.75.67-2.32.45-.56,1.22-1.04,2.32-1.44.77-.28,1.3-.56,1.6-.85.29-.29.44-.67.44-1.14s-.15-.81-.46-1.06-.74-.38-1.28-.38c-.99,0-1.8.42-2.43,1.26l-.84-.95c.86-1,1.96-1.5,3.31-1.5.97,0,1.73.23,2.27.7.54.47.82,1.11.82,1.94,0,.78-.2,1.4-.6,1.85-.4.46-1.1.85-2.1,1.18-.87.29-1.47.61-1.81.96-.34.35-.51.82-.51,1.41v.22h4.81Z"/>
    <path class="cls-3" d="m166.17,36.92v.03c1.13.34,1.69,1.13,1.69,2.37,0,.84-.3,1.49-.89,1.96-.59.47-1.42.71-2.48.71-1.46,0-2.59-.43-3.39-1.29l.72-.98c.64.71,1.51,1.07,2.61,1.07.64,0,1.14-.13,1.49-.4.35-.27.53-.65.53-1.16,0-1.04-.72-1.56-2.15-1.56h-1.46v-1.2h1.34c1.35,0,2.02-.48,2.02-1.44,0-.46-.16-.82-.48-1.07-.32-.25-.78-.38-1.38-.38-.87,0-1.59.34-2.18,1.01l-.72-.95c.76-.84,1.77-1.26,3.02-1.26.98,0,1.75.22,2.3.66.55.44.82,1.05.82,1.83,0,1.03-.47,1.71-1.41,2.05Z"/>
    <path class="cls-3" d="m214.02,39.86h-1.08v1.98h-1.39v-1.98h-4.73v-1.07l4.62-6.27h1.5v6.14h1.08v1.2Zm-2.47-5.43h-.03l-3.14,4.23h3.17v-4.23Z"/>
    <path class="cls-3" d="m257.45,35.89c.98,0,1.75.27,2.31.8.57.53.85,1.26.85,2.17,0,.97-.31,1.73-.92,2.29-.62.55-1.46.83-2.54.83-1.43,0-2.55-.43-3.35-1.29l.72-.98c.64.71,1.5,1.07,2.6,1.07.65,0,1.15-.17,1.53-.5s.56-.78.56-1.35-.19-1.03-.56-1.36c-.37-.33-.88-.49-1.54-.49-.77,0-1.45.25-2.04.75l-.9-.4.33-4.91h5.49v1.2h-4.35l-.18,2.67h.03c.56-.34,1.21-.5,1.95-.5Z"/>
    <path class="cls-3" d="m304.04,35.85c.94,0,1.68.26,2.22.79s.8,1.26.8,2.18c0,1-.3,1.78-.9,2.33-.6.55-1.43.83-2.51.83s-1.88-.29-2.48-.86-.89-1.37-.89-2.4v-2.93c0-1.09.31-1.93.92-2.52.62-.59,1.49-.89,2.61-.89,1.19,0,2.13.37,2.8,1.1l-.75.98c-.46-.59-1.13-.88-2.01-.88-.71,0-1.26.19-1.63.57-.38.38-.56.94-.56,1.68v.9h.03c.57-.59,1.35-.88,2.34-.88Zm-.39,4.94c.64,0,1.14-.17,1.49-.5.35-.33.52-.81.52-1.44,0-.57-.16-1.01-.48-1.33-.32-.32-.77-.48-1.36-.48-.98,0-1.7.41-2.15,1.24v.38c0,.68.17,1.21.51,1.57.34.37.83.55,1.47.55Z"/>
    <path class="cls-3" d="m353.16,33.64l-4.24,8.2h-1.54l4.28-8.11h-4.11v1.96h-1.26v-3.16h6.87v1.11Z"/>
    <path class="cls-3" d="m397.68,36.9v.03c1.15.33,1.72,1.12,1.72,2.38,0,.87-.3,1.53-.91,1.98-.61.46-1.48.69-2.63.69s-2.02-.23-2.63-.69c-.61-.46-.92-1.12-.92-1.98,0-1.26.57-2.05,1.72-2.38v-.03c-.91-.34-1.37-1.01-1.37-2.04,0-.8.28-1.41.84-1.84.56-.43,1.35-.64,2.37-.64s1.81.21,2.36.64c.55.43.83,1.04.83,1.84,0,1.02-.46,1.7-1.37,2.04Zm-1.82,3.88c1.42,0,2.14-.51,2.14-1.54s-.71-1.57-2.14-1.57-2.15.52-2.15,1.57.72,1.54,2.15,1.54Zm1.35-6.84c-.31-.25-.76-.37-1.35-.37s-1.04.13-1.36.38c-.32.25-.48.6-.48,1.05,0,.97.61,1.46,1.83,1.46s1.82-.49,1.82-1.46c0-.46-.16-.82-.47-1.06Z"/>
    <path class="cls-3" d="m442.22,32.38c1.06,0,1.89.29,2.48.87.6.58.9,1.38.9,2.4v2.95c0,1.08-.31,1.91-.95,2.5-.63.59-1.52.89-2.68.89-1.21,0-2.18-.38-2.89-1.14l.71-1.01c.53.63,1.25.95,2.15.95.73,0,1.29-.19,1.68-.58.39-.38.58-.94.58-1.67v-.9h-.03c-.56.59-1.34.88-2.34.88-.94,0-1.68-.26-2.22-.79-.53-.53-.8-1.26-.8-2.18,0-.99.3-1.77.9-2.32.6-.56,1.43-.84,2.5-.84Zm-.16,4.94c1,0,1.72-.42,2.15-1.26v-.36c0-.68-.17-1.21-.51-1.57-.34-.37-.83-.55-1.48-.55s-1.13.17-1.47.51c-.35.34-.52.81-.52,1.43,0,.58.16,1.02.48,1.33.32.31.77.47,1.36.47Z"/>
    <g>
      <path class="cls-3" d="m485.51,41.84h-1.39v-7.73l-2.37,1.82-.74-.97,3.1-2.44h1.39v9.31Z"/>
      <path class="cls-3" d="m487.88,38.72v-3.08c0-1.04.29-1.84.86-2.41.57-.57,1.38-.85,2.43-.85s1.86.28,2.43.85c.57.57.85,1.37.85,2.41v3.08c0,1.05-.28,1.85-.85,2.42-.57.56-1.38.84-2.43.84s-1.87-.28-2.44-.84c-.57-.56-.85-1.37-.85-2.42Zm5.18-.06v-2.96c0-1.41-.63-2.12-1.89-2.12s-1.91.71-1.91,2.12v2.96c0,1.41.64,2.12,1.91,2.12s1.89-.71,1.89-2.12Z"/>
    </g>
  </g>
</svg>