<?xml version="1.0" encoding="UTF-8"?>
<svg id="Camada_1" data-name="Camada 1" xmlns="http://www.w3.org/2000/svg" viewBox="0 0 715.06 500.4">
  <defs>
    <style>
      .cls-1 {
        fill: #4a4518;
      }

      .cls-1, .cls-2, .cls-3, .cls-4 {
        stroke-width: 0px;
      }

      .cls-5 {
        fill: none;
        stroke: gray;
        stroke-miterlimit: 10;
        stroke-width: .75px;
      }

      .cls-3 {
        fill: #fff;
      }

      .cls-4 {
        fill: #e0bb00;
        opacity: .5;
      }
    </style>
  </defs>
  <g>
    <g>
      <circle class="cls-5" cx="361.19" cy="263.87" r="182.08"/>
      <circle class="cls-5" cx="361.19" cy="263.87" r="158.84"/>
      <circle class="cls-5" cx="361.19" cy="263.87" r="114.11"/>
      <circle class="cls-5" cx="361.19" cy="263.87" r="92.14"/>
      <circle class="cls-5" cx="361.19" cy="263.87" r="23.05"/>
      <circle class="cls-5" cx="361.19" cy="263.87" r="68.86"/>
      <circle class="cls-5" cx="361.19" cy="263.87" r="45.49"/>
      <circle class="cls-5" cx="361.19" cy="263.87" r="136.62"/>
      <circle class="cls-5" cx="361.19" cy="263.87" r="204.29"/>
      <circle class="cls-5" cx="361.19" cy="263.87" r="227.27"/>
    </g>
    <g>
      <line class="cls-5" x1="361.19" y1="263.87" x2="459.78" y2="468.18"/>
      <line class="cls-5" x1="582.92" y1="314.01" x2="361.19" y2="263.87"/>
      <line class="cls-5" x1="361.19" y1="263.87" x2="538.89" y2="121.48"/>
      <polyline class="cls-5" points="361.19 263.87 361.86 102.09 362.03 36.01"/>
      <line class="cls-5" x1="361.19" y1="263.87" x2="182.94" y2="122.93"/>
      <line class="cls-5" x1="361.19" y1="263.87" x2="138.99" y2="314.09"/>
      <line class="cls-5" x1="361.19" y1="263.87" x2="262.59" y2="469.09"/>
    </g>
  </g>
  <circle class="cls-3" cx="361.19" cy="263.66" r="6.5"/>
  <path class="cls-2" d="m358.18,263.63c0-2.29.1-2.8.21-3.17.39-1.19,1.31-1.84,2.66-1.84s2.27.66,2.66,1.84c.11.37.21.88.21,3.17s-.1,2.8-.21,3.17c-.39,1.19-1.31,1.84-2.66,1.84s-2.27-.66-2.66-1.84c-.11-.37-.21-.89-.21-3.17Zm2.87,3.9c.71,0,1.24-.33,1.47-.97.1-.3.16-.71.16-2.93s-.06-2.63-.16-2.93c-.23-.64-.76-.97-1.47-.97s-1.24.33-1.47.97c-.1.3-.16.71-.16,2.93s.06,2.63.16,2.93c.23.64.76.97,1.47.97Z"/>
  <circle class="cls-3" cx="361.46" cy="218.64" r="6.5"/>
  <path class="cls-2" d="m358.66,222.65c0-.09.01-.13.07-.2l3.57-4.55c.44-.55.7-1.09.7-1.72,0-.89-.6-1.56-1.56-1.56s-1.47.57-1.62,1.46c-.01.09-.07.13-.16.12l-.89-.19c-.09-.03-.13-.09-.12-.17.13-1.18,1.06-2.35,2.81-2.35s2.78,1.17,2.78,2.7c0,.89-.36,1.62-.96,2.38l-3.06,3.85h0s3.88.01,3.88.01c.09,0,.15.06.15.15v.85c0,.09-.06.15-.15.15h-5.3c-.09,0-.15-.06-.15-.15v-.76Z"/>
  <circle class="cls-3" cx="360.46" cy="309.67" r="6.5"/>
  <path class="cls-2" d="m357.53,313.69c0-.09.01-.13.07-.2l3.57-4.55c.44-.55.7-1.09.7-1.72,0-.89-.6-1.56-1.56-1.56s-1.47.57-1.62,1.46c-.01.09-.07.13-.16.12l-.89-.19c-.09-.03-.13-.09-.12-.17.13-1.18,1.06-2.35,2.81-2.35s2.78,1.17,2.78,2.7c0,.89-.36,1.62-.96,2.38l-3.06,3.85h0s3.88.01,3.88.01c.09,0,.15.06.15.15v.85c0,.09-.06.15-.15.15h-5.3c-.09,0-.15-.06-.15-.15v-.76Z"/>
  <circle class="cls-3" cx="361.46" cy="171.55" r="6.5"/>
  <path class="cls-2" d="m358.28,174.6v-.8c0-.06.01-.12.04-.17l3.21-6.94c.04-.09.1-.12.2-.12h.98c.1,0,.13.06.1.13l-3.16,6.89v.03h2.62c.06,0,.09-.03.09-.09v-2.59c0-.09.06-.15.15-.15h.93c.09,0,.15.06.15.15v2.59c0,.06.03.09.09.09h.9c.09,0,.15.06.15.15v.83c0,.09-.06.15-.15.15h-.9c-.06,0-.09.03-.09.09v1.5c0,.09-.06.15-.15.15h-.93c-.09,0-.15-.06-.15-.15v-1.5c0-.06-.03-.09-.09-.09h-3.85c-.09,0-.15-.06-.15-.15Z"/>
  <circle class="cls-3" cx="360.46" cy="355.66" r="6.5"/>
  <path class="cls-2" d="m357.15,358.7v-.8c0-.06.01-.12.04-.17l3.21-6.94c.04-.09.1-.12.2-.12h.98c.1,0,.13.06.1.13l-3.16,6.89v.03h2.62c.06,0,.09-.03.09-.09v-2.59c0-.09.06-.15.15-.15h.93c.09,0,.15.06.15.15v2.59c0,.06.03.09.09.09h.9c.09,0,.15.06.15.15v.83c0,.09-.06.15-.15.15h-.9c-.06,0-.09.03-.09.09v1.5c0,.09-.06.15-.15.15h-.93c-.09,0-.15-.06-.15-.15v-1.5c0-.06-.03-.09-.09-.09h-3.85c-.09,0-.15-.06-.15-.15Z"/>
  <circle class="cls-3" cx="361.46" cy="127.18" r="6.5"/>
  <path class="cls-2" d="m359.08,126.97l2.52-4.68c.04-.09.09-.1.19-.1h.99c.1,0,.13.06.09.15l-2.22,4.11.03.03c.19-.13.58-.23,1.01-.23,1.56,0,2.81,1.14,2.81,2.94,0,1.94-1.33,3.07-3.05,3.07s-3.03-1.14-3.03-3.03c0-.79.28-1.56.66-2.26Zm2.38,4.15c1.08,0,1.79-.77,1.79-1.88s-.71-1.87-1.79-1.87-1.78.76-1.78,1.87.7,1.88,1.78,1.88Z"/>
  <circle class="cls-3" cx="360.46" cy="399.27" r="6.5"/>
  <path class="cls-2" d="m357.95,399.06l2.52-4.68c.04-.09.09-.1.19-.1h.99c.1,0,.13.06.09.15l-2.22,4.11.03.03c.19-.13.58-.23,1.01-.23,1.56,0,2.81,1.14,2.81,2.94,0,1.94-1.33,3.07-3.05,3.07s-3.03-1.14-3.03-3.03c0-.79.28-1.56.66-2.26Zm2.38,4.15c1.08,0,1.79-.77,1.79-1.88s-.71-1.87-1.79-1.87-1.78.76-1.78,1.87.7,1.88,1.78,1.88Z"/>
  <circle class="cls-3" cx="361.84" cy="81.78" r="6.5"/>
  <path class="cls-2" d="m360.18,81.49v-.03c-.63-.35-1.17-1.11-1.17-2.1,0-1.49,1.06-2.74,2.83-2.74s2.83,1.25,2.83,2.74c0,.99-.54,1.75-1.17,2.1v.03c.79.42,1.4,1.28,1.4,2.45,0,1.73-1.25,2.91-3.06,2.91s-3.06-1.18-3.06-2.91c0-1.17.61-2.03,1.4-2.45Zm1.66,4.23c1.09,0,1.81-.77,1.81-1.84s-.71-1.82-1.81-1.82-1.81.77-1.81,1.82.73,1.84,1.81,1.84Zm1.57-6.38c0-.87-.63-1.57-1.57-1.57s-1.57.7-1.57,1.57.61,1.59,1.57,1.59,1.57-.71,1.57-1.59Z"/>
  <circle class="cls-3" cx="361.49" cy="445.87" r="6.5"/>
  <path class="cls-2" d="m359.69,445.59v-.03c-.63-.35-1.17-1.11-1.17-2.1,0-1.49,1.06-2.74,2.83-2.74s2.83,1.25,2.83,2.74c0,.99-.54,1.75-1.17,2.1v.03c.79.42,1.4,1.28,1.4,2.45,0,1.73-1.25,2.91-3.06,2.91s-3.06-1.18-3.06-2.91c0-1.17.61-2.03,1.4-2.45Zm1.66,4.23c1.09,0,1.81-.77,1.81-1.84s-.71-1.82-1.81-1.82-1.81.77-1.81,1.82.73,1.84,1.81,1.84Zm1.57-6.38c0-.87-.63-1.57-1.57-1.57s-1.57.7-1.57,1.57.61,1.59,1.57,1.59,1.57-.71,1.57-1.59Z"/>
  <circle class="cls-3" cx="362.32" cy="35.98" r="6.18"/>
  <g>
    <path class="cls-2" d="m358.44,33.13h-.02l-1.36.95c-.07.05-.13.02-.13-.07v-.89c0-.07.02-.12.08-.17l1.41-1.03c.06-.05.11-.07.19-.07h.72c.07,0,.12.05.12.12v7.96c0,.07-.05.12-.12.12h-.77c-.07,0-.12-.05-.12-.12v-6.8Z"/>
    <path class="cls-2" d="m361.67,35.95c0-1.93.08-2.36.18-2.68.33-1,1.11-1.56,2.24-1.56s1.92.55,2.24,1.56c.1.31.18.75.18,2.68s-.08,2.36-.18,2.68c-.33,1-1.11,1.56-2.24,1.56s-1.92-.55-2.24-1.56c-.1-.31-.18-.75-.18-2.68Zm2.42,3.29c.6,0,1.05-.28,1.24-.82.08-.25.13-.6.13-2.47s-.05-2.22-.13-2.47c-.19-.54-.64-.82-1.24-.82s-1.05.28-1.24.82c-.08.25-.13.6-.13,2.47s.05,2.22.13,2.47c.19.54.64.82,1.24.82Z"/>
  </g>
  <circle class="cls-3" cx="361.64" cy="491.62" r="7.13"/>
  <g>
    <path class="cls-2" d="m357.17,488.33h-.03l-1.57,1.1c-.08.06-.15.03-.15-.08v-1.03c0-.08.03-.14.1-.19l1.63-1.18c.07-.06.12-.08.22-.08h.83c.08,0,.14.06.14.14v9.19c0,.08-.06.14-.14.14h-.89c-.08,0-.14-.06-.14-.14v-7.85Z"/>
    <path class="cls-2" d="m360.9,491.58c0-2.23.1-2.73.21-3.09.38-1.16,1.28-1.8,2.59-1.8s2.21.64,2.59,1.8c.11.36.21.86.21,3.09s-.1,2.73-.21,3.09c-.38,1.16-1.28,1.8-2.59,1.8s-2.21-.64-2.59-1.8c-.11-.36-.21-.86-.21-3.09Zm2.8,3.8c.7,0,1.21-.32,1.43-.95.1-.29.15-.7.15-2.85s-.06-2.56-.15-2.85c-.22-.63-.74-.95-1.43-.95s-1.21.32-1.43.95c-.1.29-.15.7-.15,2.85s.06,2.56.15,2.85c.22.63.74.95,1.43.95Z"/>
  </g>
  <g>
    <path class="cls-2" d="m312.18,3.91c0-.14.09-.23.23-.23h9.4c.14,0,.23.09.23.23v1.45c0,.14-.09.23-.23.23h-7.45c-.09,0-.14.05-.14.14v4.76c0,.09.05.14.14.14h6.32c.14,0,.23.09.23.23v1.45c0,.14-.09.23-.23.23h-6.32c-.09,0-.14.05-.14.14v6.42c0,.14-.09.23-.23.23h-1.59c-.14,0-.23-.09-.23-.23V3.91Z"/>
    <path class="cls-2" d="m325.16,19.32c-.14,0-.23-.09-.23-.23v-10.55c0-.14.09-.23.23-.23h1.47c.14,0,.23.09.23.23v1.13h.02c.48-.94,1.45-1.61,2.92-1.61.87,0,1.7.32,2.25.83.11.11.14.21.05.32l-.85,1.13c-.09.12-.21.14-.32.05-.51-.32-1.06-.53-1.7-.53-1.68,0-2.37,1.31-2.37,3.22v6.03c0,.14-.09.23-.23.23h-1.47Z"/>
    <path class="cls-2" d="m341.28,19.32c-.14,0-.23-.09-.23-.23v-1.04h-.02c-.57.92-1.59,1.52-3.01,1.52-2.41,0-3.82-1.66-3.82-4.16v-6.88c0-.14.09-.23.23-.23h1.47c.14,0,.23.09.23.23v6.42c0,1.79.8,2.83,2.44,2.83,1.49,0,2.48-1.06,2.48-2.71v-6.53c0-.14.09-.23.23-.23h1.47c.14,0,.23.09.23.23v10.55c0,.14-.09.23-.23.23h-1.47Z"/>
    <path class="cls-2" d="m349.95,19.44c-2.14,0-2.97-.97-2.97-3.13v-6.3c0-.09-.05-.14-.14-.14h-.92c-.14,0-.23-.09-.23-.23v-1.1c0-.14.09-.23.23-.23h.92c.09,0,.14-.05.14-.14v-3.1c0-.14.09-.23.23-.23h1.47c.14,0,.23.09.23.23v3.1c0,.09.05.14.14.14h1.75c.14,0,.23.09.23.23v1.1c0,.14-.09.23-.23.23h-1.75c-.09,0-.14.05-.14.14v6.23c0,1.1.41,1.4,1.4,1.4h.48c.14,0,.23.09.23.23v1.33c0,.14-.09.23-.23.23h-.85Z"/>
    <path class="cls-2" d="m360.69,19.32c-.14,0-.23-.09-.23-.23v-.97h-.02c-.51.83-1.59,1.45-3.27,1.45-2.09,0-3.7-1.08-3.7-3.31s1.61-3.4,4.3-3.4h2.51c.09,0,.14-.05.14-.14v-.8c0-1.52-.6-2.16-2.64-2.16-1.24,0-2.02.32-2.67.78-.11.09-.25.09-.32-.02l-.62-1.06c-.07-.14-.05-.23.05-.32.83-.64,2.12-1.08,3.75-1.08,3.13,0,4.32,1.04,4.32,3.75v7.29c0,.14-.09.23-.23.23h-1.36Zm-.28-3.56v-1.22c0-.09-.05-.14-.14-.14h-2.21c-1.91,0-2.74.55-2.74,1.79,0,1.13.83,1.72,2.3,1.72,1.72,0,2.78-.8,2.78-2.16Z"/>
    <path class="cls-2" d="m372.86,19.32c-.14,0-.23-.09-.23-.23v-1.06h-.02c-.53.87-1.47,1.54-3.13,1.54-1.91,0-3.24-.9-3.79-2.64-.3-.87-.39-1.75-.39-3.13s.09-2.23.39-3.1c.55-1.75,1.89-2.64,3.79-2.64,1.66,0,2.6.64,3.13,1.52h.02V3.91c0-.14.09-.23.23-.23h1.47c.14,0,.23.09.23.23v15.18c0,.14-.09.23-.23.23h-1.47Zm-.48-3.22c.18-.53.25-1.2.25-2.3s-.07-1.75-.25-2.3c-.37-1.1-1.22-1.66-2.44-1.66s-2.05.57-2.41,1.66c-.18.6-.25,1.31-.25,2.3s.07,1.72.25,2.3c.37,1.08,1.2,1.68,2.41,1.68s2.07-.57,2.44-1.68Z"/>
    <path class="cls-2" d="m378.03,16.61c-.25-.76-.37-1.52-.37-2.8s.11-2.02.37-2.78c.6-1.89,2.21-2.97,4.35-2.97s3.75,1.08,4.35,2.97c.25.76.37,1.52.37,2.78s-.11,2.05-.37,2.8c-.6,1.86-2.21,2.97-4.35,2.97s-3.75-1.1-4.35-2.97Zm6.83-.55c.18-.6.25-1.2.25-2.25s-.07-1.63-.25-2.23c-.37-1.1-1.26-1.72-2.48-1.72s-2.12.62-2.48,1.72c-.18.6-.25,1.17-.25,2.23s.07,1.66.25,2.25c.37,1.1,1.26,1.72,2.48,1.72s2.12-.62,2.48-1.72Z"/>
    <path class="cls-2" d="m395.99,16.03l1.36-.34c.16-.02.25.05.3.18.25,1.1,1.1,1.91,2.55,1.91,1.08,0,1.95-.53,2.3-1.54.16-.44.21-1.04.21-1.96,0-.97-.07-1.54-.23-1.98-.34-1.06-1.2-1.52-2.28-1.52-1.24,0-2.05.71-2.3,1.45-.07.16-.12.23-.28.23h-1.36c-.14,0-.23-.09-.23-.23V3.91c0-.14.09-.23.23-.23h7.86c.14,0,.23.09.23.23v1.33c0,.14-.09.23-.23.23h-6.16c-.09,0-.14.05-.14.14v4.39h.07c.37-.48,1.29-1.01,2.58-1.01,1.91,0,3.31.9,3.86,2.58.21.67.34,1.45.34,2.71,0,1.1-.11,1.91-.32,2.53-.57,1.77-2.18,2.76-4.16,2.76-2.41,0-4.09-1.36-4.39-3.27-.02-.14.05-.25.18-.28Z"/>
    <path class="cls-2" d="m408.14,16.88h1.61c.14,0,.23.09.23.23v2.14c0,.23-.02.35-.14.51l-1.43,1.89c-.09.12-.18.16-.3.16s-.21-.09-.21-.21v-4.48c0-.14.09-.23.23-.23Z"/>
    <path class="cls-2" d="m413.2,11.5c0-3.68.16-4.51.34-5.1.62-1.91,2.12-2.97,4.28-2.97s3.66,1.06,4.28,2.97c.18.6.34,1.43.34,5.1s-.16,4.51-.34,5.1c-.62,1.91-2.12,2.97-4.28,2.97s-3.66-1.06-4.28-2.97c-.18-.6-.34-1.42-.34-5.1Zm4.62,6.28c1.15,0,2-.53,2.37-1.56.16-.48.25-1.15.25-4.71s-.09-4.23-.25-4.71c-.37-1.04-1.22-1.56-2.37-1.56s-2,.53-2.37,1.56c-.16.48-.25,1.15-.25,4.71s.09,4.23.25,4.71c.37,1.04,1.22,1.56,2.37,1.56Z"/>
  </g>
  <g>
    <path class="cls-2" d="m551.85,101.8c.05-.14.12-.23.28-.23h1.49c.16,0,.25.09.3.23l5.36,15.18c.05.14-.02.23-.16.23h-1.61c-.16,0-.25-.07-.3-.23l-1.2-3.4h-6.32l-1.2,3.4c-.07.16-.16.23-.3.23h-1.61c-.14,0-.21-.09-.16-.23l5.43-15.18Zm3.5,9.89l-2.46-7.11h-.05l-2.48,7.11h4.99Z"/>
    <path class="cls-2" d="m575.79,117.21c-.14,0-.23-.09-.23-.23v-6.44c0-1.77-.8-2.8-2.46-2.8-1.47,0-2.53,1.06-2.53,2.69v6.55c0,.14-.09.23-.23.23h-1.47c-.14,0-.23-.09-.23-.23v-6.44c0-1.77-.8-2.8-2.46-2.8-1.49,0-2.53,1.06-2.53,2.69v6.55c0,.14-.09.23-.23.23h-1.47c-.14,0-.23-.09-.23-.23v-10.55c0-.14.09-.23.23-.23h1.47c.14,0,.23.09.23.23v1.01h.02c.53-.85,1.59-1.5,3.08-1.5s2.6.62,3.22,1.72h.02c.76-1.06,1.89-1.72,3.56-1.72,2.55,0,3.93,1.63,3.93,4.14v6.9c0,.14-.09.23-.23.23h-1.47Z"/>
    <path class="cls-2" d="m587.82,117.21c-.14,0-.23-.09-.23-.23v-.97h-.02c-.51.83-1.59,1.45-3.27,1.45-2.09,0-3.7-1.08-3.7-3.31s1.61-3.4,4.3-3.4h2.51c.09,0,.14-.05.14-.14v-.8c0-1.52-.6-2.16-2.64-2.16-1.24,0-2.02.32-2.67.78-.11.09-.25.09-.32-.02l-.62-1.06c-.07-.14-.05-.23.05-.32.83-.64,2.12-1.08,3.75-1.08,3.13,0,4.32,1.04,4.32,3.75v7.29c0,.14-.09.23-.23.23h-1.36Zm-.28-3.56v-1.22c0-.09-.05-.14-.14-.14h-2.21c-1.91,0-2.74.55-2.74,1.79,0,1.13.83,1.72,2.3,1.72,1.72,0,2.78-.8,2.78-2.16Z"/>
    <path class="cls-2" d="m593.32,117.21c-.14,0-.23-.09-.23-.23v-10.55c0-.14.09-.23.23-.23h1.47c.14,0,.23.09.23.23v1.13h.02c.48-.94,1.45-1.61,2.92-1.61.87,0,1.7.32,2.25.83.11.11.14.21.05.32l-.85,1.13c-.09.12-.21.14-.32.05-.51-.32-1.06-.53-1.7-.53-1.68,0-2.37,1.31-2.37,3.22v6.03c0,.14-.09.23-.23.23h-1.47Z"/>
    <path class="cls-2" d="m601.87,119.97c-.09-.12-.09-.21.02-.32l.94-.94c.11-.12.23-.12.34,0,.76.69,1.54,1.1,2.6,1.1,1.82,0,2.78-.94,2.78-2.97v-1.29h-.02c-.51.92-1.45,1.52-3.06,1.52-1.86,0-3.15-.94-3.7-2.67-.28-.83-.37-1.63-.37-2.9s.09-2.07.37-2.9c.55-1.72,1.84-2.67,3.7-2.67,1.61,0,2.55.6,3.06,1.52h.02v-1.03c0-.14.09-.23.23-.23h1.47c.14,0,.23.09.23.23v10.3c0,3.13-1.7,4.87-4.81,4.87-1.54,0-3.08-.67-3.82-1.63Zm6.44-6.32c.18-.55.25-1.2.25-2.14s-.07-1.56-.25-2.14c-.39-1.13-1.2-1.63-2.35-1.63s-1.95.57-2.32,1.63c-.18.57-.28,1.24-.28,2.14s.09,1.59.28,2.14c.37,1.08,1.13,1.66,2.32,1.66s1.95-.53,2.35-1.66Z"/>
    <path class="cls-2" d="m613.97,114.49c-.25-.76-.37-1.52-.37-2.8s.11-2.02.37-2.78c.6-1.89,2.21-2.97,4.35-2.97s3.75,1.08,4.35,2.97c.25.76.37,1.52.37,2.78s-.11,2.05-.37,2.8c-.6,1.86-2.21,2.97-4.35,2.97s-3.75-1.1-4.35-2.97Zm6.83-.55c.18-.6.25-1.2.25-2.25s-.07-1.63-.25-2.23c-.37-1.1-1.26-1.72-2.48-1.72s-2.12.62-2.48,1.72c-.18.6-.25,1.17-.25,2.23s.07,1.66.25,2.25c.37,1.1,1.26,1.72,2.48,1.72s2.12-.62,2.48-1.72Z"/>
    <path class="cls-2" d="m626.37,117.21c-.14,0-.23-.09-.23-.23v-10.55c0-.14.09-.23.23-.23h1.47c.14,0,.23.09.23.23v1.13h.02c.48-.94,1.45-1.61,2.92-1.61.87,0,1.7.32,2.25.83.11.11.14.21.05.32l-.85,1.13c-.09.12-.21.14-.32.05-.51-.32-1.06-.53-1.7-.53-1.68,0-2.37,1.31-2.37,3.22v6.03c0,.14-.09.23-.23.23h-1.47Z"/>
    <path class="cls-2" d="m640.42,114.24v-1.26c0-.09.02-.18.07-.28l5.06-10.95c.07-.14.16-.18.32-.18h1.54c.16,0,.21.09.16.21l-4.99,10.88v.05h4.14c.09,0,.14-.05.14-.14v-4.09c0-.14.09-.23.23-.23h1.47c.14,0,.23.09.23.23v4.09c0,.09.05.14.14.14h1.43c.14,0,.23.09.23.23v1.31c0,.14-.09.23-.23.23h-1.43c-.09,0-.14.05-.14.14v2.37c0,.14-.09.23-.23.23h-1.47c-.14,0-.23-.09-.23-.23v-2.37c0-.09-.05-.14-.14-.14h-6.07c-.14,0-.23-.09-.23-.23Z"/>
    <path class="cls-2" d="m653.51,114.77h1.61c.14,0,.23.09.23.23v2.14c0,.23-.02.35-.14.51l-1.43,1.89c-.09.12-.18.16-.3.16s-.21-.09-.21-.21v-4.48c0-.14.09-.23.23-.23Z"/>
    <path class="cls-2" d="m659.12,113.92l1.36-.34c.16-.02.25.05.3.18.25,1.1,1.1,1.91,2.55,1.91,1.08,0,1.95-.53,2.3-1.54.16-.44.21-1.04.21-1.96,0-.97-.07-1.54-.23-1.98-.34-1.06-1.2-1.52-2.28-1.52-1.24,0-2.05.71-2.3,1.45-.07.16-.12.23-.28.23h-1.36c-.14,0-.23-.09-.23-.23v-8.32c0-.14.09-.23.23-.23h7.86c.14,0,.23.09.23.23v1.33c0,.14-.09.23-.23.23h-6.16c-.09,0-.14.05-.14.14v4.39h.07c.37-.48,1.29-1.01,2.58-1.01,1.91,0,3.31.9,3.86,2.58.21.67.34,1.45.34,2.71,0,1.1-.11,1.91-.32,2.53-.57,1.77-2.18,2.76-4.16,2.76-2.41,0-4.09-1.36-4.39-3.27-.02-.14.05-.25.18-.28Z"/>
  </g>
  <g>
    <path class="cls-2" d="m19.87,117.21c-.14,0-.23-.09-.23-.23v-15.18c0-.14.09-.23.23-.23h5.56c3.01,0,4.97,1.84,4.97,4.67s-1.95,4.67-4.97,4.67h-3.61c-.09,0-.14.05-.14.14v5.93c0,.14-.09.23-.23.23h-1.59Zm8.51-10.97c0-1.7-1.13-2.76-3.06-2.76h-3.5c-.09,0-.14.05-.14.14v5.24c0,.09.05.14.14.14h3.5c1.93,0,3.06-1.06,3.06-2.76Z"/>
    <path class="cls-2" d="m32.91,114.47c-.23-.71-.37-1.52-.37-2.78s.11-2.12.34-2.78c.62-1.91,2.23-2.97,4.32-2.97s3.7,1.08,4.32,2.97c.23.71.34,1.47.34,3.15,0,.14-.09.23-.25.23h-6.97c-.09,0-.14.05-.14.14,0,.6.07.97.18,1.33.44,1.26,1.43,1.91,2.78,1.91s2.23-.53,2.83-1.22c.11-.11.23-.14.34-.05l.94.85c.11.09.11.21.02.32-.87,1.1-2.37,1.89-4.3,1.89-2.23,0-3.82-1.08-4.42-2.99Zm6.85-3.73c.09,0,.14-.05.14-.14,0-.51-.05-.9-.16-1.24-.37-1.1-1.29-1.73-2.53-1.73s-2.16.62-2.53,1.73c-.12.34-.16.74-.16,1.24,0,.09.05.14.14.14h5.1Z"/>
    <path class="cls-2" d="m45.21,117.21c-.14,0-.23-.09-.23-.23v-10.55c0-.14.09-.23.23-.23h1.47c.14,0,.23.09.23.23v1.13h.02c.48-.94,1.45-1.61,2.92-1.61.87,0,1.7.32,2.25.83.11.11.14.21.05.32l-.85,1.13c-.09.12-.21.14-.32.05-.51-.32-1.06-.53-1.7-.53-1.68,0-2.37,1.31-2.37,3.22v6.03c0,.14-.09.23-.23.23h-1.47Z"/>
    <path class="cls-2" d="m53.47,115.81c-.09-.09-.09-.23,0-.32l.94-1.01c.09-.09.23-.09.32,0,.83.71,2.07,1.26,3.4,1.26,1.61,0,2.41-.69,2.41-1.68,0-.87-.41-1.36-2.14-1.54l-1.17-.11c-2.16-.23-3.29-1.31-3.29-3.1,0-2.09,1.49-3.36,4.09-3.36,1.61,0,2.99.53,3.91,1.22.12.07.12.21.05.32l-.78.99c-.09.12-.21.12-.32.05-.71-.46-1.84-.9-2.97-.9-1.38,0-2.09.62-2.09,1.52s.53,1.33,2.16,1.5l1.15.11c2.23.21,3.31,1.33,3.31,3.1,0,2.16-1.56,3.61-4.44,3.61-2.14,0-3.66-.87-4.55-1.66Z"/>
    <path class="cls-2" d="m65.68,103.71c-.14,0-.23-.09-.23-.23v-1.68c0-.14.09-.23.23-.23h1.56c.14,0,.23.09.23.23v1.68c0,.14-.09.23-.23.23h-1.56Zm.05,13.5c-.14,0-.23-.09-.23-.23v-10.55c0-.14.09-.23.23-.23h1.47c.14,0,.23.09.23.23v10.55c0,.14-.09.23-.23.23h-1.47Z"/>
    <path class="cls-2" d="m70.44,115.81c-.09-.09-.09-.23,0-.32l.94-1.01c.09-.09.23-.09.32,0,.83.71,2.07,1.26,3.4,1.26,1.61,0,2.41-.69,2.41-1.68,0-.87-.41-1.36-2.14-1.54l-1.17-.11c-2.16-.23-3.29-1.31-3.29-3.1,0-2.09,1.49-3.36,4.09-3.36,1.61,0,2.99.53,3.91,1.22.12.07.12.21.05.32l-.78.99c-.09.12-.21.12-.32.05-.71-.46-1.84-.9-2.97-.9-1.38,0-2.09.62-2.09,1.52s.53,1.33,2.16,1.5l1.15.11c2.23.21,3.31,1.33,3.31,3.1,0,2.16-1.56,3.61-4.44,3.61-2.14,0-3.66-.87-4.55-1.66Z"/>
    <path class="cls-2" d="m85.67,117.32c-2.14,0-2.97-.97-2.97-3.13v-6.3c0-.09-.05-.14-.14-.14h-.92c-.14,0-.23-.09-.23-.23v-1.1c0-.14.09-.23.23-.23h.92c.09,0,.14-.05.14-.14v-3.1c0-.14.09-.23.23-.23h1.47c.14,0,.23.09.23.23v3.1c0,.09.05.14.14.14h1.75c.14,0,.23.09.23.23v1.1c0,.14-.09.23-.23.23h-1.75c-.09,0-.14.05-.14.14v6.23c0,1.1.41,1.4,1.4,1.4h.48c.14,0,.23.09.23.23v1.33c0,.14-.09.23-.23.23h-.85Z"/>
    <path class="cls-2" d="m89.44,114.47c-.23-.71-.37-1.52-.37-2.78s.11-2.12.34-2.78c.62-1.91,2.23-2.97,4.32-2.97s3.7,1.08,4.32,2.97c.23.71.34,1.47.34,3.15,0,.14-.09.23-.25.23h-6.97c-.09,0-.14.05-.14.14,0,.6.07.97.18,1.33.44,1.26,1.43,1.91,2.78,1.91s2.23-.53,2.83-1.22c.11-.11.23-.14.34-.05l.94.85c.11.09.11.21.02.32-.87,1.1-2.37,1.89-4.3,1.89-2.23,0-3.82-1.08-4.42-2.99Zm6.21-10.07c-.18,0-.28-.05-.44-.23l-1.45-1.61h-.05l-1.47,1.61c-.16.18-.23.23-.44.23h-1.03c-.14,0-.18-.11-.09-.23l2.18-2.83c.12-.16.21-.23.37-.23h.99c.16,0,.25.07.37.23l2.18,2.83c.09.12.05.23-.09.23h-1.03Zm.64,6.35c.09,0,.14-.05.14-.14,0-.51-.05-.9-.16-1.24-.37-1.1-1.29-1.73-2.53-1.73s-2.16.62-2.53,1.73c-.12.34-.16.74-.16,1.24,0,.09.05.14.14.14h5.1Z"/>
    <path class="cls-2" d="m108.67,117.21c-.14,0-.23-.09-.23-.23v-6.44c0-1.77-.8-2.8-2.46-2.8-1.49,0-2.53,1.06-2.53,2.69v6.55c0,.14-.09.23-.23.23h-1.47c-.14,0-.23-.09-.23-.23v-10.55c0-.14.09-.23.23-.23h1.47c.14,0,.23.09.23.23v1.01h.02c.53-.85,1.59-1.5,3.08-1.5,2.39,0,3.82,1.63,3.82,4.14v6.9c0,.14-.09.23-.23.23h-1.47Z"/>
    <path class="cls-2" d="m113.71,108.91c.62-1.91,2.23-2.97,4.35-2.97,1.68,0,2.97.71,3.77,1.86.07.12.07.21-.07.32l-1.01.83c-.11.09-.23.09-.32-.02-.64-.8-1.26-1.2-2.37-1.2-1.2,0-2.09.57-2.46,1.72-.18.57-.25,1.26-.25,2.23s.07,1.68.25,2.25c.37,1.15,1.26,1.72,2.46,1.72,1.1,0,1.72-.39,2.37-1.2.09-.12.21-.12.32-.02l1.01.83c.14.12.14.21.07.32-.8,1.15-2.09,1.86-3.77,1.86-2.12,0-3.73-1.06-4.35-2.97-.21-.67-.34-1.56-.34-2.8s.14-2.12.34-2.78Z"/>
    <path class="cls-2" d="m125.07,103.71c-.14,0-.23-.09-.23-.23v-1.68c0-.14.09-.23.23-.23h1.56c.14,0,.23.09.23.23v1.68c0,.14-.09.23-.23.23h-1.56Zm.05,13.5c-.14,0-.23-.09-.23-.23v-10.55c0-.14.09-.23.23-.23h1.47c.14,0,.23.09.23.23v10.55c0,.14-.09.23-.23.23h-1.47Z"/>
    <path class="cls-2" d="m137.26,117.21c-.14,0-.23-.09-.23-.23v-.97h-.02c-.51.83-1.59,1.45-3.27,1.45-2.09,0-3.7-1.08-3.7-3.31s1.61-3.4,4.3-3.4h2.51c.09,0,.14-.05.14-.14v-.8c0-1.52-.6-2.16-2.64-2.16-1.24,0-2.02.32-2.67.78-.11.09-.25.09-.32-.02l-.62-1.06c-.07-.14-.05-.23.05-.32.83-.64,2.12-1.08,3.75-1.08,3.13,0,4.32,1.04,4.32,3.75v7.29c0,.14-.09.23-.23.23h-1.36Zm-.28-3.56v-1.22c0-.09-.05-.14-.14-.14h-2.21c-1.91,0-2.74.55-2.74,1.79,0,1.13.83,1.72,2.3,1.72,1.72,0,2.78-.8,2.78-2.16Z"/>
    <path class="cls-2" d="m148.32,113.92l1.36-.34c.16-.02.25.05.3.18.25,1.1,1.1,1.91,2.55,1.91,1.08,0,1.95-.53,2.3-1.54.16-.44.21-1.04.21-1.96,0-.97-.07-1.54-.23-1.98-.34-1.06-1.2-1.52-2.28-1.52-1.24,0-2.05.71-2.3,1.45-.07.16-.12.23-.28.23h-1.36c-.14,0-.23-.09-.23-.23v-8.32c0-.14.09-.23.23-.23h7.86c.14,0,.23.09.23.23v1.33c0,.14-.09.23-.23.23h-6.16c-.09,0-.14.05-.14.14v4.39h.07c.37-.48,1.29-1.01,2.58-1.01,1.91,0,3.31.9,3.86,2.58.21.67.34,1.45.34,2.71,0,1.1-.11,1.91-.32,2.53-.57,1.77-2.18,2.76-4.16,2.76-2.41,0-4.09-1.36-4.39-3.27-.02-.14.05-.25.18-.28Z"/>
    <path class="cls-2" d="m160.46,114.77h1.61c.14,0,.23.09.23.23v2.14c0,.23-.02.35-.14.51l-1.43,1.89c-.09.12-.18.16-.3.16s-.21-.09-.21-.21v-4.48c0-.14.09-.23.23-.23Z"/>
    <path class="cls-2" d="m165.52,109.39c0-3.68.16-4.51.34-5.1.62-1.91,2.12-2.97,4.28-2.97s3.66,1.06,4.28,2.97c.18.6.34,1.43.34,5.1s-.16,4.51-.34,5.1c-.62,1.91-2.12,2.97-4.28,2.97s-3.66-1.06-4.28-2.97c-.18-.6-.34-1.42-.34-5.1Zm4.62,6.28c1.15,0,2-.53,2.37-1.56.16-.48.25-1.15.25-4.71s-.09-4.23-.25-4.71c-.37-1.04-1.22-1.56-2.37-1.56s-2,.53-2.37,1.56c-.16.48-.25,1.15-.25,4.71s.09,4.23.25,4.71c.37,1.04,1.22,1.56,2.37,1.56Z"/>
  </g>
  <g>
    <path class="cls-2" d="m598.64,328.96c-.14,0-.23-.09-.23-.23v-15.18c0-.14.09-.23.23-.23h5.56c3.01,0,4.97,1.84,4.97,4.67s-1.95,4.67-4.97,4.67h-3.61c-.09,0-.14.04-.14.14v5.93c0,.14-.09.23-.23.23h-1.59Zm8.51-10.97c0-1.7-1.13-2.76-3.06-2.76h-3.5c-.09,0-.14.05-.14.14v5.24c0,.09.05.14.14.14h3.5c1.93,0,3.06-1.06,3.06-2.76Z"/>
    <path class="cls-2" d="m612.16,315.46c-.14,0-.23-.09-.23-.23v-1.68c0-.14.09-.23.23-.23h1.56c.14,0,.23.09.23.23v1.68c0,.14-.09.23-.23.23h-1.56Zm.05,13.5c-.14,0-.23-.09-.23-.23v-10.55c0-.14.09-.23.23-.23h1.47c.14,0,.23.09.23.23v10.55c0,.14-.09.23-.23.23h-1.47Z"/>
    <path class="cls-2" d="m617.36,320.66c.62-1.91,2.23-2.97,4.35-2.97,1.68,0,2.97.71,3.77,1.86.07.12.07.21-.07.32l-1.01.83c-.11.09-.23.09-.32-.02-.64-.8-1.26-1.2-2.37-1.2-1.2,0-2.09.57-2.46,1.72-.18.57-.25,1.27-.25,2.23s.07,1.68.25,2.25c.37,1.15,1.26,1.72,2.46,1.72,1.1,0,1.72-.39,2.37-1.2.09-.12.21-.12.32-.02l1.01.83c.14.12.14.21.07.32-.8,1.15-2.09,1.86-3.77,1.86-2.12,0-3.73-1.06-4.35-2.97-.21-.67-.34-1.56-.34-2.8s.14-2.12.34-2.78Z"/>
    <path class="cls-2" d="m634.93,328.96c-.14,0-.23-.09-.23-.23v-.96h-.02c-.51.83-1.59,1.45-3.27,1.45-2.09,0-3.7-1.08-3.7-3.31s1.61-3.4,4.3-3.4h2.51c.09,0,.14-.04.14-.14v-.8c0-1.52-.6-2.16-2.64-2.16-1.24,0-2.02.32-2.67.78-.11.09-.25.09-.32-.02l-.62-1.06c-.07-.14-.05-.23.05-.32.83-.64,2.12-1.08,3.75-1.08,3.13,0,4.32,1.04,4.32,3.75v7.29c0,.14-.09.23-.23.23h-1.36Zm-.69-12.81c-.18,0-.28-.05-.44-.23l-1.45-1.61h-.05l-1.47,1.61c-.16.18-.23.23-.44.23h-1.03c-.14,0-.18-.12-.09-.23l2.18-2.83c.11-.16.21-.23.37-.23h.99c.16,0,.25.07.37.23l2.18,2.83c.09.12.05.23-.09.23h-1.03Zm.41,9.24v-1.22c0-.09-.05-.14-.14-.14h-2.21c-1.91,0-2.74.55-2.74,1.79,0,1.12.83,1.72,2.3,1.72,1.72,0,2.78-.8,2.78-2.16Z"/>
    <path class="cls-2" d="m647.35,328.96c-.14,0-.23-.09-.23-.23v-6.44c0-1.77-.8-2.8-2.46-2.8-1.49,0-2.53,1.06-2.53,2.69v6.55c0,.14-.09.23-.23.23h-1.47c-.14,0-.23-.09-.23-.23v-10.55c0-.14.09-.23.23-.23h1.47c.14,0,.23.09.23.23v1.01h.02c.53-.85,1.59-1.49,3.08-1.49,2.39,0,3.82,1.63,3.82,4.14v6.9c0,.14-.09.23-.23.23h-1.47Z"/>
    <path class="cls-2" d="m652.39,320.66c.62-1.91,2.23-2.97,4.35-2.97,1.68,0,2.97.71,3.77,1.86.07.12.07.21-.07.32l-1.01.83c-.11.09-.23.09-.32-.02-.64-.8-1.26-1.2-2.37-1.2-1.2,0-2.09.57-2.46,1.72-.18.57-.25,1.27-.25,2.23s.07,1.68.25,2.25c.37,1.15,1.26,1.72,2.46,1.72,1.1,0,1.72-.39,2.37-1.2.09-.12.21-.12.32-.02l1.01.83c.14.12.14.21.07.32-.8,1.15-2.09,1.86-3.77,1.86-2.12,0-3.73-1.06-4.35-2.97-.21-.67-.34-1.56-.34-2.8s.14-2.12.34-2.78Z"/>
    <path class="cls-2" d="m663.75,315.46c-.14,0-.23-.09-.23-.23v-1.68c0-.14.09-.23.23-.23h1.56c.14,0,.23.09.23.23v1.68c0,.14-.09.23-.23.23h-1.56Zm.05,13.5c-.14,0-.23-.09-.23-.23v-10.55c0-.14.09-.23.23-.23h1.47c.14,0,.23.09.23.23v10.55c0,.14-.09.23-.23.23h-1.47Z"/>
    <path class="cls-2" d="m675.94,328.96c-.14,0-.23-.09-.23-.23v-.96h-.02c-.51.83-1.59,1.45-3.27,1.45-2.09,0-3.7-1.08-3.7-3.31s1.61-3.4,4.3-3.4h2.51c.09,0,.14-.04.14-.14v-.8c0-1.52-.6-2.16-2.64-2.16-1.24,0-2.02.32-2.67.78-.11.09-.25.09-.32-.02l-.62-1.06c-.07-.14-.05-.23.05-.32.83-.64,2.12-1.08,3.75-1.08,3.13,0,4.32,1.04,4.32,3.75v7.29c0,.14-.09.23-.23.23h-1.36Zm-.28-3.56v-1.22c0-.09-.05-.14-.14-.14h-2.21c-1.91,0-2.74.55-2.74,1.79,0,1.12.83,1.72,2.3,1.72,1.72,0,2.78-.8,2.78-2.16Z"/>
    <path class="cls-2" d="m687,325.67l1.36-.34c.16-.02.25.04.3.18.25,1.1,1.1,1.91,2.55,1.91,1.08,0,1.95-.53,2.3-1.54.16-.44.21-1.04.21-1.96,0-.96-.07-1.54-.23-1.98-.34-1.06-1.2-1.52-2.28-1.52-1.24,0-2.05.71-2.3,1.45-.07.16-.12.23-.28.23h-1.36c-.14,0-.23-.09-.23-.23v-8.32c0-.14.09-.23.23-.23h7.86c.14,0,.23.09.23.23v1.33c0,.14-.09.23-.23.23h-6.16c-.09,0-.14.05-.14.14v4.39h.07c.37-.48,1.29-1.01,2.58-1.01,1.91,0,3.31.9,3.86,2.58.21.67.34,1.45.34,2.71,0,1.1-.11,1.91-.32,2.53-.57,1.77-2.18,2.76-4.16,2.76-2.41,0-4.09-1.36-4.39-3.27-.02-.14.05-.25.18-.28Z"/>
    <path class="cls-2" d="m699.14,326.52h1.61c.14,0,.23.09.23.23v2.14c0,.23-.02.35-.14.51l-1.43,1.89c-.09.12-.18.16-.3.16s-.21-.09-.21-.21v-4.48c0-.14.09-.23.23-.23Z"/>
    <path class="cls-2" d="m704.2,321.14c0-3.68.16-4.51.34-5.11.62-1.91,2.12-2.97,4.28-2.97s3.66,1.06,4.28,2.97c.18.6.34,1.43.34,5.11s-.16,4.51-.34,5.1c-.62,1.91-2.12,2.97-4.28,2.97s-3.66-1.06-4.28-2.97c-.18-.6-.34-1.42-.34-5.1Zm4.62,6.28c1.15,0,2-.53,2.37-1.56.16-.48.25-1.15.25-4.71s-.09-4.23-.25-4.71c-.37-1.04-1.22-1.56-2.37-1.56s-2,.53-2.37,1.56c-.16.48-.25,1.15-.25,4.71s.09,4.23.25,4.71c.37,1.04,1.22,1.56,2.37,1.56Z"/>
  </g>
  <g>
    <path class="cls-2" d="m1.93,313.56c0-.14.09-.23.23-.23h9.4c.14,0,.23.09.23.23v1.45c0,.14-.09.23-.23.23h-7.45c-.09,0-.14.05-.14.14v4.6c0,.09.05.14.14.14h6.32c.14,0,.23.09.23.23v1.45c0,.14-.09.23-.23.23h-6.32c-.09,0-.14.05-.14.14v4.76c0,.09.05.14.14.14h7.45c.14,0,.23.09.23.23v1.45c0,.14-.09.23-.23.23H2.16c-.14,0-.23-.09-.23-.23v-15.18Z"/>
    <path class="cls-2" d="m21.73,333.1c-.14,0-.23-.09-.23-.23v-5.2h-.02c-.53.88-1.47,1.54-3.13,1.54-1.91,0-3.24-.9-3.79-2.64-.3-.87-.39-1.75-.39-3.13s.09-2.23.39-3.1c.55-1.75,1.89-2.64,3.79-2.64,1.66,0,2.6.64,3.13,1.52h.02v-1.04c0-.14.09-.23.23-.23h1.47c.14,0,.23.09.23.23v14.69c0,.14-.09.23-.23.23h-1.47Zm-.48-7.36c.18-.53.25-1.2.25-2.3s-.07-1.75-.25-2.3c-.37-1.1-1.22-1.66-2.44-1.66s-2.05.57-2.41,1.66c-.18.6-.25,1.31-.25,2.3s.07,1.72.25,2.3c.37,1.08,1.2,1.68,2.41,1.68s2.07-.57,2.44-1.68Z"/>
    <path class="cls-2" d="m34.13,328.96c-.14,0-.23-.09-.23-.23v-1.04h-.02c-.57.92-1.59,1.52-3.01,1.52-2.41,0-3.82-1.65-3.82-4.16v-6.88c0-.14.09-.23.23-.23h1.47c.14,0,.23.09.23.23v6.42c0,1.79.8,2.83,2.44,2.83,1.49,0,2.48-1.06,2.48-2.71v-6.53c0-.14.09-.23.23-.23h1.47c.14,0,.23.09.23.23v10.55c0,.14-.09.23-.23.23h-1.47Z"/>
    <path class="cls-2" d="m39.79,315.46c-.14,0-.23-.09-.23-.23v-1.68c0-.14.09-.23.23-.23h1.56c.14,0,.23.09.23.23v1.68c0,.14-.09.23-.23.23h-1.56Zm.05,13.5c-.14,0-.23-.09-.23-.23v-10.55c0-.14.09-.23.23-.23h1.47c.14,0,.23.09.23.23v10.55c0,.14-.09.23-.23.23h-1.47Z"/>
    <path class="cls-2" d="m47.95,329.08c-1.93,0-2.69-.92-2.69-2.9v-12.62c0-.14.09-.23.23-.23h1.47c.14,0,.23.09.23.23v12.51c0,.92.35,1.22,1.1,1.22h.44c.14,0,.23.09.23.23v1.33c0,.14-.09.23-.23.23h-.78Z"/>
    <path class="cls-2" d="m51.86,315.46c-.14,0-.23-.09-.23-.23v-1.68c0-.14.09-.23.23-.23h1.56c.14,0,.23.09.23.23v1.68c0,.14-.09.23-.23.23h-1.56Zm.05,13.5c-.14,0-.23-.09-.23-.23v-10.55c0-.14.09-.23.23-.23h1.47c.14,0,.23.09.23.23v10.55c0,.14-.09.23-.23.23h-1.47Z"/>
    <path class="cls-2" d="m57.61,328.96c-.14,0-.23-.09-.23-.23v-15.18c0-.14.09-.23.23-.23h1.47c.14,0,.23.09.23.23v5.66h.02c.53-.88,1.47-1.52,3.13-1.52,1.91,0,3.24.9,3.79,2.64.3.87.39,1.75.39,3.1s-.09,2.25-.39,3.13c-.55,1.75-1.89,2.64-3.79,2.64-1.66,0-2.6-.67-3.13-1.54h-.02v1.06c0,.14-.09.23-.23.23h-1.47Zm6.81-3.22c.18-.57.25-1.29.25-2.3s-.07-1.7-.25-2.3c-.37-1.08-1.2-1.66-2.41-1.66s-2.07.55-2.44,1.66c-.18.55-.25,1.2-.25,2.3s.07,1.77.25,2.3c.37,1.11,1.22,1.68,2.44,1.68s2.05-.6,2.41-1.68Z"/>
    <path class="cls-2" d="m69.99,328.96c-.14,0-.23-.09-.23-.23v-10.55c0-.14.09-.23.23-.23h1.47c.14,0,.23.09.23.23v1.13h.02c.48-.94,1.45-1.61,2.92-1.61.87,0,1.7.32,2.25.83.11.11.14.21.05.32l-.85,1.13c-.09.12-.21.14-.32.05-.51-.32-1.06-.53-1.7-.53-1.68,0-2.37,1.31-2.37,3.22v6.03c0,.14-.09.23-.23.23h-1.47Z"/>
    <path class="cls-2" d="m79.37,315.46c-.14,0-.23-.09-.23-.23v-1.68c0-.14.09-.23.23-.23h1.56c.14,0,.23.09.23.23v1.68c0,.14-.09.23-.23.23h-1.56Zm.05,13.5c-.14,0-.23-.09-.23-.23v-10.55c0-.14.09-.23.23-.23h1.47c.14,0,.23.09.23.23v10.55c0,.14-.09.23-.23.23h-1.47Z"/>
    <path class="cls-2" d="m84.59,326.25c-.25-.76-.37-1.52-.37-2.8s.11-2.02.37-2.78c.6-1.89,2.21-2.97,4.35-2.97s3.75,1.08,4.35,2.97c.25.76.37,1.52.37,2.78s-.11,2.05-.37,2.8c-.6,1.86-2.21,2.97-4.35,2.97s-3.75-1.1-4.35-2.97Zm6.83-.55c.18-.6.25-1.2.25-2.25s-.07-1.63-.25-2.23c-.37-1.1-1.26-1.72-2.48-1.72s-2.12.62-2.48,1.72c-.18.6-.25,1.17-.25,2.23s.07,1.66.25,2.25c.37,1.1,1.26,1.72,2.48,1.72s2.12-.62,2.48-1.72Z"/>
    <path class="cls-2" d="m109.11,315.19v-.07h-4.76c-.09,0-.14.05-.14.14v1.96c0,.14-.09.23-.23.23h-1.38c-.14,0-.23-.09-.23-.23v-3.66c0-.14.09-.23.23-.23h8.35c.14,0,.23.09.23.23v1.43c0,.09-.02.16-.05.23l-5.38,13.54c-.07.16-.12.21-.3.21h-1.54c-.14,0-.21-.09-.14-.25l5.33-13.52Z"/>
    <path class="cls-2" d="m114.7,326.52h1.61c.14,0,.23.09.23.23v2.14c0,.23-.02.35-.14.51l-1.43,1.89c-.09.12-.18.16-.3.16s-.21-.09-.21-.21v-4.48c0-.14.09-.23.23-.23Z"/>
    <path class="cls-2" d="m120.31,325.67l1.36-.34c.16-.02.25.04.3.18.25,1.1,1.1,1.91,2.55,1.91,1.08,0,1.95-.53,2.3-1.54.16-.44.21-1.04.21-1.96,0-.96-.07-1.54-.23-1.98-.34-1.06-1.2-1.52-2.28-1.52-1.24,0-2.05.71-2.3,1.45-.07.16-.12.23-.28.23h-1.36c-.14,0-.23-.09-.23-.23v-8.32c0-.14.09-.23.23-.23h7.86c.14,0,.23.09.23.23v1.33c0,.14-.09.23-.23.23h-6.16c-.09,0-.14.05-.14.14v4.39h.07c.37-.48,1.29-1.01,2.58-1.01,1.91,0,3.31.9,3.86,2.58.21.67.34,1.45.34,2.71,0,1.1-.11,1.91-.32,2.53-.57,1.77-2.18,2.76-4.16,2.76-2.41,0-4.09-1.36-4.39-3.27-.02-.14.05-.25.18-.28Z"/>
  </g>
  <g>
    <path class="cls-2" d="m461.7,493.8c-.09-.09-.12-.23-.02-.35l1.01-1.2c.09-.12.21-.12.32-.02,1.01.8,2.58,1.61,4.37,1.61,2.16,0,3.45-1.08,3.45-2.67,0-1.33-.76-2.23-3.27-2.55l-.78-.11c-3.04-.41-4.6-1.86-4.6-4.32,0-2.78,2-4.58,5.1-4.58,1.84,0,3.61.6,4.76,1.45.11.09.14.21.05.32l-.78,1.26c-.09.12-.21.12-.32.05-1.26-.78-2.44-1.17-3.77-1.17-1.91,0-2.97,1.03-2.97,2.53,0,1.31.87,2.18,3.29,2.51l.76.12c3.06.41,4.6,1.82,4.6,4.37,0,2.74-1.93,4.71-5.7,4.71-2.21,0-4.35-.9-5.5-1.95Z"/>
    <path class="cls-2" d="m482.93,495.5c-.14,0-.23-.09-.23-.23v-1.04h-.02c-.57.92-1.59,1.52-3.01,1.52-2.41,0-3.82-1.66-3.82-4.16v-6.88c0-.14.09-.23.23-.23h1.47c.14,0,.23.09.23.23v6.42c0,1.79.8,2.83,2.44,2.83,1.49,0,2.48-1.06,2.48-2.71v-6.53c0-.14.09-.23.23-.23h1.47c.14,0,.23.09.23.23v10.55c0,.14-.09.23-.23.23h-1.47Z"/>
    <path class="cls-2" d="m495.07,495.5c-.14,0-.23-.09-.23-.23v-.97h-.02c-.51.83-1.59,1.45-3.27,1.45-2.09,0-3.7-1.08-3.7-3.31s1.61-3.4,4.3-3.4h2.51c.09,0,.14-.05.14-.14v-.8c0-1.52-.6-2.16-2.64-2.16-1.24,0-2.02.32-2.67.78-.11.09-.25.09-.32-.02l-.62-1.06c-.07-.14-.05-.23.05-.32.83-.64,2.12-1.08,3.75-1.08,3.13,0,4.32,1.04,4.32,3.75v7.29c0,.14-.09.23-.23.23h-1.36Zm-.28-3.56v-1.22c0-.09-.05-.14-.14-.14h-2.21c-1.91,0-2.74.55-2.74,1.79,0,1.13.83,1.72,2.3,1.72,1.72,0,2.78-.8,2.78-2.16Z"/>
    <path class="cls-2" d="m503.21,495.5c-.16,0-.23-.09-.28-.23l-3.96-10.55c-.05-.14.02-.23.18-.23h1.59c.16,0,.23.07.3.23l2.85,7.91h.05l2.78-7.91c.05-.16.14-.23.28-.23h1.56c.16,0,.23.09.18.23l-3.93,10.55c-.05.14-.14.23-.3.23h-1.31Z"/>
    <path class="cls-2" d="m511.42,482.01c-.14,0-.23-.09-.23-.23v-1.68c0-.14.09-.23.23-.23h1.56c.14,0,.23.09.23.23v1.68c0,.14-.09.23-.23.23h-1.56Zm.05,13.5c-.14,0-.23-.09-.23-.23v-10.55c0-.14.09-.23.23-.23h1.47c.14,0,.23.09.23.23v10.55c0,.14-.09.23-.23.23h-1.47Z"/>
    <path class="cls-2" d="m523.84,495.5c-.14,0-.23-.09-.23-.23v-1.06h-.02c-.53.87-1.47,1.54-3.13,1.54-1.91,0-3.24-.9-3.79-2.64-.3-.87-.39-1.75-.39-3.13s.09-2.23.39-3.1c.55-1.75,1.89-2.64,3.79-2.64,1.66,0,2.6.64,3.13,1.52h.02v-5.66c0-.14.09-.23.23-.23h1.47c.14,0,.23.09.23.23v15.18c0,.14-.09.23-.23.23h-1.47Zm-.48-3.22c.18-.53.25-1.2.25-2.3s-.07-1.75-.25-2.3c-.37-1.1-1.22-1.66-2.44-1.66s-2.05.57-2.41,1.66c-.18.6-.25,1.31-.25,2.3s.07,1.72.25,2.3c.37,1.08,1.2,1.68,2.41,1.68s2.07-.57,2.44-1.68Z"/>
    <path class="cls-2" d="m535.99,495.5c-.14,0-.23-.09-.23-.23v-.97h-.02c-.51.83-1.59,1.45-3.27,1.45-2.09,0-3.7-1.08-3.7-3.31s1.61-3.4,4.3-3.4h2.51c.09,0,.14-.05.14-.14v-.8c0-1.52-.6-2.16-2.64-2.16-1.24,0-2.02.32-2.67.78-.11.09-.25.09-.32-.02l-.62-1.06c-.07-.14-.05-.23.05-.32.83-.64,2.12-1.08,3.75-1.08,3.13,0,4.32,1.04,4.32,3.75v7.29c0,.14-.09.23-.23.23h-1.36Zm-.28-3.56v-1.22c0-.09-.05-.14-.14-.14h-2.21c-1.91,0-2.74.55-2.74,1.79,0,1.13.83,1.72,2.3,1.72,1.72,0,2.78-.8,2.78-2.16Z"/>
    <path class="cls-2" d="m548.15,495.5c-.14,0-.23-.09-.23-.23v-1.06h-.02c-.53.87-1.47,1.54-3.13,1.54-1.91,0-3.24-.9-3.79-2.64-.3-.87-.39-1.75-.39-3.13s.09-2.23.39-3.1c.55-1.75,1.89-2.64,3.79-2.64,1.66,0,2.6.64,3.13,1.52h.02v-5.66c0-.14.09-.23.23-.23h1.47c.14,0,.23.09.23.23v15.18c0,.14-.09.23-.23.23h-1.47Zm-.48-3.22c.18-.53.25-1.2.25-2.3s-.07-1.75-.25-2.3c-.37-1.1-1.22-1.66-2.44-1.66s-2.05.57-2.41,1.66c-.18.6-.25,1.31-.25,2.3s.07,1.72.25,2.3c.37,1.08,1.2,1.68,2.41,1.68s2.07-.57,2.44-1.68Z"/>
    <path class="cls-2" d="m553.33,492.77c-.23-.71-.37-1.52-.37-2.78s.11-2.12.34-2.78c.62-1.91,2.23-2.97,4.32-2.97s3.7,1.08,4.32,2.97c.23.71.34,1.47.34,3.15,0,.14-.09.23-.25.23h-6.97c-.09,0-.14.05-.14.14,0,.6.07.97.18,1.33.44,1.26,1.43,1.91,2.78,1.91s2.23-.53,2.83-1.22c.11-.11.23-.14.34-.05l.94.85c.11.09.11.21.02.32-.87,1.1-2.37,1.89-4.3,1.89-2.23,0-3.82-1.08-4.42-2.99Zm6.85-3.73c.09,0,.14-.05.14-.14,0-.51-.05-.9-.16-1.24-.37-1.1-1.29-1.73-2.53-1.73s-2.16.62-2.53,1.73c-.12.34-.16.74-.16,1.24,0,.09.05.14.14.14h5.1Z"/>
    <path class="cls-2" d="m571.52,487.41l3.98-7.38c.07-.14.14-.16.3-.16h1.56c.16,0,.21.09.14.23l-3.5,6.48.05.05c.3-.21.92-.37,1.59-.37,2.46,0,4.44,1.79,4.44,4.65,0,3.06-2.09,4.85-4.81,4.85s-4.78-1.79-4.78-4.78c0-1.24.44-2.46,1.03-3.56Zm3.75,6.55c1.7,0,2.83-1.22,2.83-2.97s-1.13-2.94-2.83-2.94-2.81,1.2-2.81,2.94,1.1,2.97,2.81,2.97Z"/>
    <path class="cls-2" d="m583.34,493.07h1.61c.14,0,.23.09.23.23v2.14c0,.23-.02.35-.14.51l-1.43,1.89c-.09.12-.18.16-.3.16s-.21-.09-.21-.21v-4.48c0-.14.09-.23.23-.23Z"/>
    <path class="cls-2" d="m588.96,492.22l1.36-.34c.16-.02.25.05.3.18.25,1.1,1.1,1.91,2.55,1.91,1.08,0,1.95-.53,2.3-1.54.16-.44.21-1.04.21-1.96,0-.97-.07-1.54-.23-1.98-.34-1.06-1.2-1.52-2.28-1.52-1.24,0-2.05.71-2.3,1.45-.07.16-.12.23-.28.23h-1.36c-.14,0-.23-.09-.23-.23v-8.32c0-.14.09-.23.23-.23h7.86c.14,0,.23.09.23.23v1.33c0,.14-.09.23-.23.23h-6.16c-.09,0-.14.05-.14.14v4.39h.07c.37-.48,1.29-1.01,2.58-1.01,1.91,0,3.31.9,3.86,2.58.21.67.34,1.45.34,2.71,0,1.1-.11,1.91-.32,2.53-.57,1.77-2.18,2.76-4.16,2.76-2.41,0-4.09-1.36-4.39-3.27-.02-.14.05-.25.18-.28Z"/>
  </g>
  <g>
    <path class="cls-2" d="m85.72,484.9c0-2.6.11-3.5.41-4.39.78-2.46,2.64-3.68,5.2-3.68,2.32,0,4.12,1.15,5.01,3.15.05.12.02.23-.09.3l-1.38.67c-.14.07-.28,0-.32-.12-.62-1.22-1.59-2.09-3.22-2.09s-2.74.83-3.24,2.3c-.21.64-.3,1.4-.3,3.86s.09,3.22.3,3.86c.51,1.47,1.54,2.3,3.24,2.3s2.6-.87,3.22-2.09c.05-.12.18-.18.32-.12l1.38.67c.11.07.14.18.09.3-.9,2-2.69,3.15-5.01,3.15-2.55,0-4.42-1.22-5.2-3.68-.3-.9-.41-1.79-.41-4.39Z"/>
    <path class="cls-2" d="m98.94,490c-.25-.76-.37-1.52-.37-2.8s.11-2.02.37-2.78c.6-1.89,2.21-2.97,4.35-2.97s3.75,1.08,4.35,2.97c.25.76.37,1.52.37,2.78s-.11,2.05-.37,2.8c-.6,1.86-2.21,2.97-4.35,2.97s-3.75-1.1-4.35-2.97Zm6.83-.55c.18-.6.25-1.2.25-2.25s-.07-1.63-.25-2.23c-.37-1.1-1.26-1.72-2.48-1.72s-2.12.62-2.48,1.72c-.18.6-.25,1.17-.25,2.23s.07,1.66.25,2.25c.37,1.1,1.26,1.72,2.48,1.72s2.12-.62,2.48-1.72Z"/>
    <path class="cls-2" d="m125.18,492.72c-.14,0-.23-.09-.23-.23v-6.44c0-1.77-.8-2.8-2.46-2.8-1.47,0-2.53,1.06-2.53,2.69v6.55c0,.14-.09.23-.23.23h-1.47c-.14,0-.23-.09-.23-.23v-6.44c0-1.77-.8-2.8-2.46-2.8-1.49,0-2.53,1.06-2.53,2.69v6.55c0,.14-.09.23-.23.23h-1.47c-.14,0-.23-.09-.23-.23v-10.55c0-.14.09-.23.23-.23h1.47c.14,0,.23.09.23.23v1.01h.02c.53-.85,1.59-1.5,3.08-1.5s2.6.62,3.22,1.72h.02c.76-1.06,1.89-1.72,3.56-1.72,2.55,0,3.93,1.63,3.93,4.14v6.9c0,.14-.09.23-.23.23h-1.47Z"/>
    <path class="cls-2" d="m130.77,496.86c-.14,0-.23-.09-.23-.23v-14.69c0-.14.09-.23.23-.23h1.47c.14,0,.23.09.23.23v1.03h.02c.53-.87,1.47-1.52,3.13-1.52,1.91,0,3.24.9,3.79,2.64.3.87.39,1.75.39,3.1s-.09,2.25-.39,3.13c-.55,1.75-1.89,2.64-3.79,2.64-1.66,0-2.6-.67-3.13-1.54h-.02v5.2c0,.14-.09.23-.23.23h-1.47Zm6.81-7.36c.18-.57.25-1.29.25-2.3s-.07-1.7-.25-2.3c-.37-1.08-1.2-1.66-2.41-1.66s-2.07.55-2.44,1.66c-.18.55-.25,1.2-.25,2.3s.07,1.77.25,2.3c.37,1.1,1.22,1.68,2.44,1.68s2.05-.6,2.41-1.68Z"/>
    <path class="cls-2" d="m145.56,492.83c-1.93,0-2.69-.92-2.69-2.9v-12.62c0-.14.09-.23.23-.23h1.47c.14,0,.23.09.23.23v12.51c0,.92.35,1.22,1.1,1.22h.44c.14,0,.23.09.23.23v1.33c0,.14-.09.23-.23.23h-.78Z"/>
    <path class="cls-2" d="m148.99,489.98c-.23-.71-.37-1.52-.37-2.78s.11-2.12.34-2.78c.62-1.91,2.23-2.97,4.32-2.97s3.7,1.08,4.32,2.97c.23.71.34,1.47.34,3.15,0,.14-.09.23-.25.23h-6.97c-.09,0-.14.05-.14.14,0,.6.07.97.18,1.33.44,1.26,1.43,1.91,2.78,1.91s2.23-.53,2.83-1.22c.11-.11.23-.14.34-.05l.94.85c.11.09.11.21.02.32-.87,1.1-2.37,1.89-4.3,1.89-2.23,0-3.82-1.08-4.42-2.99Zm6.85-3.73c.09,0,.14-.05.14-.14,0-.51-.05-.9-.16-1.24-.37-1.1-1.29-1.73-2.53-1.73s-2.16.62-2.53,1.73c-.12.34-.16.74-.16,1.24,0,.09.05.14.14.14h5.1Z"/>
    <path class="cls-2" d="m167.62,492.72c-.16,0-.23-.05-.35-.21l-2.67-3.89h-.02l-2.67,3.89c-.09.16-.18.21-.35.21h-1.63c-.18,0-.23-.12-.16-.23l3.75-5.52-3.43-5.04c-.07-.12-.02-.23.16-.23h1.66c.14,0,.25.02.34.21l2.32,3.43h.02l2.37-3.43c.09-.16.18-.21.32-.21h1.66c.18,0,.23.12.16.23l-3.45,5.04,3.77,5.52c.07.11.02.23-.16.23h-1.66Z"/>
    <path class="cls-2" d="m172.2,479.22c-.14,0-.23-.09-.23-.23v-1.68c0-.14.09-.23.23-.23h1.56c.14,0,.23.09.23.23v1.68c0,.14-.09.23-.23.23h-1.56Zm.05,13.5c-.14,0-.23-.09-.23-.23v-10.55c0-.14.09-.23.23-.23h1.47c.14,0,.23.09.23.23v10.55c0,.14-.09.23-.23.23h-1.47Z"/>
    <path class="cls-2" d="m184.62,492.72c-.14,0-.23-.09-.23-.23v-1.06h-.02c-.53.87-1.47,1.54-3.13,1.54-1.91,0-3.24-.9-3.79-2.64-.3-.87-.39-1.75-.39-3.13s.09-2.23.39-3.1c.55-1.75,1.89-2.64,3.79-2.64,1.66,0,2.6.64,3.13,1.52h.02v-5.66c0-.14.09-.23.23-.23h1.47c.14,0,.23.09.23.23v15.18c0,.14-.09.23-.23.23h-1.47Zm-.48-3.22c.18-.53.25-1.2.25-2.3s-.07-1.75-.25-2.3c-.37-1.1-1.22-1.66-2.44-1.66s-2.05.57-2.41,1.66c-.18.6-.25,1.31-.25,2.3s.07,1.72.25,2.3c.37,1.08,1.2,1.68,2.41,1.68s2.07-.57,2.44-1.68Z"/>
    <path class="cls-2" d="m196.76,492.72c-.14,0-.23-.09-.23-.23v-.97h-.02c-.51.83-1.59,1.45-3.27,1.45-2.09,0-3.7-1.08-3.7-3.31s1.61-3.4,4.3-3.4h2.51c.09,0,.14-.05.14-.14v-.8c0-1.52-.6-2.16-2.64-2.16-1.24,0-2.02.32-2.67.78-.11.09-.25.09-.32-.02l-.62-1.06c-.07-.14-.05-.23.05-.32.83-.64,2.12-1.08,3.75-1.08,3.13,0,4.32,1.04,4.32,3.75v7.29c0,.14-.09.23-.23.23h-1.36Zm-.28-3.56v-1.22c0-.09-.05-.14-.14-.14h-2.21c-1.91,0-2.74.55-2.74,1.79,0,1.13.83,1.72,2.3,1.72,1.72,0,2.78-.8,2.78-2.16Z"/>
    <path class="cls-2" d="m208.93,492.72c-.14,0-.23-.09-.23-.23v-1.06h-.02c-.53.87-1.47,1.54-3.13,1.54-1.91,0-3.24-.9-3.79-2.64-.3-.87-.39-1.75-.39-3.13s.09-2.23.39-3.1c.55-1.75,1.89-2.64,3.79-2.64,1.66,0,2.6.64,3.13,1.52h.02v-5.66c0-.14.09-.23.23-.23h1.47c.14,0,.23.09.23.23v15.18c0,.14-.09.23-.23.23h-1.47Zm-.48-3.22c.18-.53.25-1.2.25-2.3s-.07-1.75-.25-2.3c-.37-1.1-1.22-1.66-2.44-1.66s-2.05.57-2.41,1.66c-.18.6-.25,1.31-.25,2.3s.07,1.72.25,2.3c.37,1.08,1.2,1.68,2.41,1.68s2.07-.57,2.44-1.68Z"/>
    <path class="cls-2" d="m214.1,489.98c-.23-.71-.37-1.52-.37-2.78s.11-2.12.34-2.78c.62-1.91,2.23-2.97,4.32-2.97s3.7,1.08,4.32,2.97c.23.71.34,1.47.34,3.15,0,.14-.09.23-.25.23h-6.97c-.09,0-.14.05-.14.14,0,.6.07.97.18,1.33.44,1.26,1.43,1.91,2.78,1.91s2.23-.53,2.83-1.22c.11-.11.23-.14.34-.05l.94.85c.11.09.11.21.02.32-.87,1.1-2.37,1.89-4.3,1.89-2.23,0-3.82-1.08-4.42-2.99Zm6.85-3.73c.09,0,.14-.05.14-.14,0-.51-.05-.9-.16-1.24-.37-1.1-1.29-1.73-2.53-1.73s-2.16.62-2.53,1.73c-.12.34-.16.74-.16,1.24,0,.09.05.14.14.14h5.1Z"/>
    <path class="cls-2" d="m231.97,489.43l1.36-.34c.16-.02.25.05.3.18.25,1.1,1.1,1.91,2.55,1.91,1.08,0,1.95-.53,2.3-1.54.16-.44.21-1.04.21-1.96,0-.97-.07-1.54-.23-1.98-.34-1.06-1.2-1.52-2.28-1.52-1.24,0-2.05.71-2.3,1.45-.07.16-.12.23-.28.23h-1.36c-.14,0-.23-.09-.23-.23v-8.32c0-.14.09-.23.23-.23h7.86c.14,0,.23.09.23.23v1.33c0,.14-.09.23-.23.23h-6.16c-.09,0-.14.05-.14.14v4.39h.07c.37-.48,1.29-1.01,2.58-1.01,1.91,0,3.31.9,3.86,2.58.21.67.34,1.45.34,2.71,0,1.1-.11,1.91-.32,2.53-.57,1.77-2.18,2.76-4.16,2.76-2.41,0-4.09-1.36-4.39-3.27-.02-.14.05-.25.18-.28Z"/>
    <path class="cls-2" d="m244.12,490.28h1.61c.14,0,.23.09.23.23v2.14c0,.23-.02.35-.14.51l-1.43,1.89c-.09.12-.18.16-.3.16s-.21-.09-.21-.21v-4.48c0-.14.09-.23.23-.23Z"/>
    <path class="cls-2" d="m249.73,489.43l1.36-.34c.16-.02.25.05.3.18.25,1.1,1.1,1.91,2.55,1.91,1.08,0,1.95-.53,2.3-1.54.16-.44.21-1.04.21-1.96,0-.97-.07-1.54-.23-1.98-.34-1.06-1.2-1.52-2.28-1.52-1.24,0-2.05.71-2.3,1.45-.07.16-.12.23-.28.23h-1.36c-.14,0-.23-.09-.23-.23v-8.32c0-.14.09-.23.23-.23h7.86c.14,0,.23.09.23.23v1.33c0,.14-.09.23-.23.23h-6.16c-.09,0-.14.05-.14.14v4.39h.07c.37-.48,1.29-1.01,2.58-1.01,1.91,0,3.31.9,3.86,2.58.21.67.34,1.45.34,2.71,0,1.1-.11,1.91-.32,2.53-.57,1.77-2.18,2.76-4.16,2.76-2.41,0-4.09-1.36-4.39-3.27-.02-.14.05-.25.18-.28Z"/>
  </g>
  <polygon class="cls-4" points="362 148.91 271.88 193.12 194.61 301.51 307.19 377.17 425.51 398.12 472.59 289.12 441.56 199.85 362 148.91"/>
  <circle class="cls-1" cx="361.92" cy="149.25" r="2.14"/>
  <circle class="cls-1" cx="441.68" cy="199.38" r="2.14"/>
  <circle class="cls-1" cx="472.61" cy="288.86" r="2.14"/>
  <circle class="cls-1" cx="425.52" cy="397.04" r="2.14"/>
  <circle class="cls-1" cx="306.75" cy="377.32" r="2.14"/>
  <circle class="cls-1" cx="194.87" cy="301.48" r="2.14"/>
  <circle class="cls-1" cx="271.68" cy="193.4" r="2.14"/>
</svg>