<?xml version="1.0" encoding="UTF-8"?>
<svg id="Camada_1" data-name="Camada 1" xmlns="http://www.w3.org/2000/svg" viewBox="0 0 715.06 500.4">
  <defs>
    <style>
      .cls-1, .cls-2, .cls-3, .cls-4 {
        stroke-width: 0px;
      }

      .cls-2 {
        fill: #2c1c36;
      }

      .cls-3 {
        fill: #432f54;
        opacity: .5;
      }

      .cls-4 {
        fill: #fff;
      }

      .cls-5 {
        fill: none;
        stroke: gray;
        stroke-miterlimit: 10;
        stroke-width: .72px;
      }
    </style>
  </defs>
  <g>
    <g>
      <g>
        <circle class="cls-5" cx="361.9" cy="253.5" r="175.08"/>
        <circle class="cls-5" cx="361.9" cy="253.5" r="152.73"/>
        <circle class="cls-5" cx="361.9" cy="253.5" r="109.73"/>
        <circle class="cls-5" cx="361.9" cy="253.5" r="88.59"/>
        <circle class="cls-5" cx="361.9" cy="253.5" r="22.16"/>
        <circle class="cls-5" cx="361.9" cy="253.5" r="66.22"/>
        <circle class="cls-5" cx="361.9" cy="253.5" r="43.74"/>
        <circle class="cls-5" cx="361.9" cy="253.5" r="131.37"/>
        <circle class="cls-5" cx="361.9" cy="253.5" r="196.44"/>
        <circle class="cls-5" cx="361.9" cy="253.5" r="218.53"/>
      </g>
      <g>
        <line class="cls-5" x1="361.93" y1="253.69" x2="516.09" y2="408.76"/>
        <line class="cls-5" x1="361.93" y1="253.69" x2="515.58" y2="98.4"/>
        <polyline class="cls-5" points="361.5 472.41 362.15 98.13 362.31 34.59"/>
        <line class="cls-5" x1="361.54" y1="251.73" x2="206.96" y2="99.52"/>
        <line class="cls-5" x1="580.4" y1="253.16" x2="143.4" y2="253.12"/>
        <line class="cls-5" x1="361.93" y1="253.69" x2="206.26" y2="407.27"/>
      </g>
    </g>
    <circle class="cls-4" cx="361.93" cy="253.49" r="6.25"/>
    <path class="cls-1" d="m359.04,253.46c0-2.2.1-2.69.21-3.05.37-1.14,1.26-1.77,2.55-1.77s2.18.63,2.55,1.77c.11.36.21.85.21,3.05s-.1,2.69-.21,3.05c-.37,1.14-1.26,1.77-2.55,1.77s-2.18-.63-2.55-1.77c-.11-.36-.21-.85-.21-3.05Zm2.76,3.75c.69,0,1.19-.32,1.41-.93.1-.29.15-.69.15-2.82s-.05-2.53-.15-2.82c-.22-.62-.73-.93-1.41-.93s-1.19.32-1.42.93c-.1.29-.15.69-.15,2.82s.05,2.53.15,2.82c.22.62.73.93,1.42.93Z"/>
    <circle class="cls-4" cx="362.19" cy="210.2" r="6.25"/>
    <path class="cls-1" d="m359.5,214.06c0-.08.01-.13.07-.2l3.44-4.38c.42-.53.67-1.05.67-1.66,0-.86-.57-1.5-1.5-1.5s-1.42.55-1.56,1.4c-.01.08-.07.13-.15.11l-.86-.18c-.08-.03-.13-.08-.11-.17.13-1.14,1.02-2.26,2.71-2.26s2.68,1.12,2.68,2.59c0,.86-.35,1.56-.92,2.29l-2.95,3.7h0s3.73.01,3.73.01c.08,0,.14.06.14.14v.81c0,.08-.06.14-.14.14h-5.1c-.08,0-.14-.06-.14-.14v-.73Z"/>
    <circle class="cls-4" cx="361.23" cy="297.73" r="6.25"/>
    <path class="cls-1" d="m358.41,301.59c0-.08.01-.13.07-.2l3.44-4.38c.42-.53.67-1.05.67-1.66,0-.86-.57-1.5-1.5-1.5s-1.42.55-1.56,1.4c-.01.08-.07.13-.15.11l-.86-.18c-.08-.03-.13-.08-.11-.17.13-1.14,1.02-2.26,2.71-2.26s2.68,1.12,2.68,2.59c0,.86-.35,1.56-.92,2.29l-2.95,3.7h0s3.73.01,3.73.01c.08,0,.14.06.14.14v.81c0,.08-.06.14-.14.14h-5.1c-.08,0-.14-.06-.14-.14v-.73Z"/>
    <circle class="cls-4" cx="362.19" cy="164.93" r="6.25"/>
    <path class="cls-1" d="m359.13,167.85v-.77c0-.06.01-.11.04-.17l3.08-6.68c.04-.08.1-.11.2-.11h.94c.1,0,.13.06.1.13l-3.04,6.63v.03h2.52c.06,0,.08-.03.08-.08v-2.5c0-.08.06-.14.14-.14h.9c.08,0,.14.06.14.14v2.5c0,.06.03.08.08.08h.87c.08,0,.14.06.14.14v.8c0,.08-.06.14-.14.14h-.87c-.06,0-.08.03-.08.08v1.44c0,.08-.06.14-.14.14h-.9c-.08,0-.14-.06-.14-.14v-1.44c0-.06-.03-.08-.08-.08h-3.7c-.08,0-.14-.06-.14-.14Z"/>
    <circle class="cls-4" cx="361.23" cy="341.95" r="6.25"/>
    <path class="cls-1" d="m358.04,344.88v-.77c0-.06.01-.11.04-.17l3.08-6.68c.04-.08.1-.11.2-.11h.94c.1,0,.13.06.1.13l-3.04,6.63v.03h2.52c.06,0,.08-.03.08-.08v-2.5c0-.08.06-.14.14-.14h.9c.08,0,.14.06.14.14v2.5c0,.06.03.08.08.08h.87c.08,0,.14.06.14.14v.8c0,.08-.06.14-.14.14h-.87c-.06,0-.08.03-.08.08v1.44c0,.08-.06.14-.14.14h-.9c-.08,0-.14-.06-.14-.14v-1.44c0-.06-.03-.08-.08-.08h-3.7c-.08,0-.14-.06-.14-.14Z"/>
    <circle class="cls-4" cx="362.19" cy="122.25" r="6.25"/>
    <path class="cls-1" d="m359.9,122.05l2.43-4.5c.04-.08.08-.1.18-.1h.95c.1,0,.13.06.08.14l-2.13,3.96.03.03c.18-.13.56-.22.97-.22,1.5,0,2.71,1.09,2.71,2.83,0,1.87-1.28,2.96-2.93,2.96s-2.92-1.09-2.92-2.92c0-.76.27-1.5.63-2.17Zm2.29,4c1.04,0,1.73-.74,1.73-1.81s-.69-1.79-1.73-1.79-1.71.73-1.71,1.79.67,1.81,1.71,1.81Z"/>
    <circle class="cls-4" cx="361.23" cy="383.88" r="6.25"/>
    <path class="cls-1" d="m358.81,383.68l2.43-4.5c.04-.08.08-.1.18-.1h.95c.1,0,.13.06.08.14l-2.13,3.96.03.03c.18-.13.56-.22.97-.22,1.5,0,2.71,1.09,2.71,2.83,0,1.87-1.28,2.96-2.93,2.96s-2.92-1.09-2.92-2.92c0-.76.27-1.5.63-2.17Zm2.29,4c1.04,0,1.73-.74,1.73-1.81s-.69-1.79-1.73-1.79-1.71.73-1.71,1.79.67,1.81,1.71,1.81Z"/>
    <circle class="cls-4" cx="362.56" cy="78.6" r="6.25"/>
    <path class="cls-1" d="m360.96,78.32v-.03c-.6-.34-1.12-1.07-1.12-2.02,0-1.43,1.02-2.64,2.72-2.64s2.72,1.21,2.72,2.64c0,.95-.52,1.68-1.12,2.02v.03c.76.41,1.35,1.23,1.35,2.36,0,1.67-1.21,2.8-2.95,2.8s-2.94-1.14-2.94-2.8c0-1.12.59-1.95,1.35-2.36Zm1.6,4.07c1.05,0,1.74-.74,1.74-1.77s-.69-1.75-1.74-1.75-1.74.74-1.74,1.75.7,1.77,1.74,1.77Zm1.51-6.14c0-.84-.6-1.51-1.51-1.51s-1.51.67-1.51,1.51.59,1.53,1.51,1.53,1.51-.69,1.51-1.53Z"/>
    <circle class="cls-4" cx="362.22" cy="428.7" r="6.25"/>
    <path class="cls-1" d="m360.49,428.42v-.03c-.6-.34-1.12-1.07-1.12-2.02,0-1.43,1.02-2.64,2.72-2.64s2.72,1.21,2.72,2.64c0,.95-.52,1.68-1.12,2.02v.03c.76.41,1.35,1.23,1.35,2.36,0,1.67-1.21,2.8-2.95,2.8s-2.94-1.14-2.94-2.8c0-1.12.59-1.95,1.35-2.36Zm1.6,4.07c1.05,0,1.74-.74,1.74-1.77s-.69-1.75-1.74-1.75-1.74.74-1.74,1.75.7,1.77,1.74,1.77Zm1.51-6.14c0-.84-.6-1.51-1.51-1.51s-1.51.67-1.51,1.51.59,1.53,1.51,1.53,1.51-.69,1.51-1.53Z"/>
    <circle class="cls-4" cx="363.02" cy="34.56" r="5.94"/>
    <g>
      <path class="cls-1" d="m359.29,31.82h-.02l-1.31.92c-.07.05-.13.02-.13-.07v-.86c0-.07.02-.12.08-.16l1.36-.99c.06-.05.1-.07.19-.07h.7c.07,0,.12.05.12.12v7.65c0,.07-.05.12-.12.12h-.74c-.07,0-.12-.05-.12-.12v-6.54Z"/>
      <path class="cls-1" d="m362.39,34.53c0-1.86.08-2.27.17-2.57.31-.96,1.07-1.5,2.16-1.5s1.84.53,2.16,1.5c.09.3.17.72.17,2.57s-.08,2.27-.17,2.58c-.31.96-1.07,1.5-2.16,1.5s-1.84-.53-2.16-1.5c-.09-.3-.17-.72-.17-2.58Zm2.33,3.17c.58,0,1.01-.27,1.19-.79.08-.24.13-.58.13-2.38s-.05-2.13-.13-2.38c-.19-.52-.61-.79-1.19-.79s-1.01.27-1.19.79c-.08.24-.13.58-.13,2.38s.05,2.13.13,2.38c.19.52.61.79,1.19.79Z"/>
    </g>
    <circle class="cls-4" cx="362.36" cy="472.68" r="6.86"/>
    <g>
      <path class="cls-1" d="m358.06,469.52h-.03l-1.51,1.06c-.08.05-.15.03-.15-.08v-.99c0-.08.03-.13.09-.19l1.57-1.14c.07-.05.12-.08.21-.08h.8c.08,0,.13.05.13.13v8.83c0,.08-.05.13-.13.13h-.86c-.08,0-.13-.05-.13-.13v-7.55Z"/>
      <path class="cls-1" d="m361.65,472.65c0-2.14.09-2.62.2-2.97.36-1.11,1.23-1.73,2.49-1.73s2.13.62,2.49,1.73c.11.35.2.83.2,2.97s-.09,2.62-.2,2.97c-.36,1.11-1.23,1.73-2.49,1.73s-2.13-.62-2.49-1.73c-.11-.35-.2-.83-.2-2.97Zm2.69,3.65c.67,0,1.16-.31,1.38-.91.09-.28.15-.67.15-2.74s-.05-2.46-.15-2.74c-.21-.6-.71-.91-1.38-.91s-1.17.31-1.38.91c-.09.28-.15.67-.15,2.74s.05,2.46.15,2.74c.21.6.71.91,1.38.91Z"/>
    </g>
    <g>
      <path class="cls-1" d="m314.81,3.73c0-.13.09-.22.22-.22h9.04c.13,0,.22.09.22.22v1.39c0,.13-.09.22-.22.22h-7.16c-.09,0-.13.04-.13.13v4.58c0,.09.04.13.13.13h6.08c.13,0,.22.09.22.22v1.39c0,.13-.09.22-.22.22h-6.08c-.09,0-.13.04-.13.13v6.17c0,.13-.09.22-.22.22h-1.53c-.13,0-.22-.09-.22-.22V3.73Z"/>
      <path class="cls-1" d="m327.28,18.54c-.13,0-.22-.09-.22-.22v-10.15c0-.13.09-.22.22-.22h1.42c.13,0,.22.09.22.22v1.08h.02c.46-.91,1.39-1.55,2.81-1.55.84,0,1.64.31,2.17.8.11.11.13.2.04.31l-.82,1.08c-.09.11-.2.13-.31.04-.49-.31-1.02-.51-1.64-.51-1.61,0-2.28,1.26-2.28,3.1v5.79c0,.13-.09.22-.22.22h-1.42Z"/>
      <path class="cls-1" d="m342.78,18.54c-.13,0-.22-.09-.22-.22v-1h-.02c-.55.88-1.53,1.46-2.9,1.46-2.32,0-3.67-1.59-3.67-4v-6.61c0-.13.09-.22.22-.22h1.42c.13,0,.22.09.22.22v6.17c0,1.72.77,2.72,2.34,2.72,1.44,0,2.39-1.02,2.39-2.61v-6.28c0-.13.09-.22.22-.22h1.42c.13,0,.22.09.22.22v10.15c0,.13-.09.22-.22.22h-1.42Z"/>
      <path class="cls-1" d="m351.12,18.66c-2.06,0-2.85-.93-2.85-3.01v-6.06c0-.09-.04-.13-.13-.13h-.88c-.13,0-.22-.09-.22-.22v-1.06c0-.13.09-.22.22-.22h.88c.09,0,.13-.04.13-.13v-2.98c0-.13.09-.22.22-.22h1.42c.13,0,.22.09.22.22v2.98c0,.09.04.13.13.13h1.68c.13,0,.22.09.22.22v1.06c0,.13-.09.22-.22.22h-1.68c-.09,0-.13.04-.13.13v5.99c0,1.06.4,1.35,1.35,1.35h.46c.13,0,.22.09.22.22v1.28c0,.13-.09.22-.22.22h-.82Z"/>
      <path class="cls-1" d="m361.45,18.54c-.13,0-.22-.09-.22-.22v-.93h-.02c-.49.8-1.53,1.39-3.14,1.39-2.01,0-3.56-1.04-3.56-3.18s1.55-3.27,4.13-3.27h2.41c.09,0,.13-.04.13-.13v-.77c0-1.46-.58-2.08-2.54-2.08-1.19,0-1.95.31-2.56.75-.11.09-.24.09-.31-.02l-.6-1.02c-.07-.13-.04-.22.04-.31.8-.62,2.03-1.04,3.6-1.04,3.01,0,4.16,1,4.16,3.6v7.01c0,.13-.09.22-.22.22h-1.3Zm-.26-3.43v-1.17c0-.09-.04-.13-.13-.13h-2.12c-1.83,0-2.63.53-2.63,1.72,0,1.08.8,1.66,2.21,1.66,1.66,0,2.68-.77,2.68-2.08Z"/>
      <path class="cls-1" d="m373.15,18.54c-.13,0-.22-.09-.22-.22v-1.02h-.02c-.51.84-1.42,1.48-3.01,1.48-1.84,0-3.12-.86-3.65-2.54-.29-.84-.38-1.68-.38-3.01s.09-2.14.38-2.98c.53-1.68,1.81-2.54,3.65-2.54,1.59,0,2.5.62,3.01,1.46h.02V3.73c0-.13.09-.22.22-.22h1.42c.13,0,.22.09.22.22v14.59c0,.13-.09.22-.22.22h-1.42Zm-.46-3.1c.18-.51.24-1.15.24-2.21s-.07-1.68-.24-2.21c-.35-1.06-1.17-1.59-2.34-1.59s-1.97.55-2.32,1.59c-.18.58-.24,1.26-.24,2.21s.07,1.66.24,2.21c.35,1.04,1.15,1.61,2.32,1.61s1.99-.55,2.34-1.61Z"/>
      <path class="cls-1" d="m378.12,15.94c-.24-.73-.35-1.46-.35-2.7s.11-1.95.35-2.67c.58-1.81,2.12-2.85,4.18-2.85s3.6,1.04,4.18,2.85c.24.73.35,1.46.35,2.67s-.11,1.97-.35,2.7c-.57,1.79-2.12,2.85-4.18,2.85s-3.6-1.06-4.18-2.85Zm6.57-.53c.18-.58.24-1.15.24-2.17s-.07-1.57-.24-2.14c-.35-1.06-1.22-1.66-2.39-1.66s-2.03.6-2.39,1.66c-.18.58-.24,1.13-.24,2.14s.07,1.59.24,2.17c.35,1.06,1.22,1.66,2.39,1.66s2.03-.6,2.39-1.66Z"/>
      <path class="cls-1" d="m401.7,5.3v-.07h-4.58c-.09,0-.13.04-.13.13v1.88c0,.13-.09.22-.22.22h-1.33c-.13,0-.22-.09-.22-.22v-3.52c0-.13.09-.22.22-.22h8.03c.13,0,.22.09.22.22v1.37c0,.09-.02.15-.04.22l-5.17,13.02c-.07.16-.11.2-.29.2h-1.48c-.13,0-.2-.09-.13-.24l5.13-13Z"/>
      <path class="cls-1" d="m407.07,16.2h1.55c.13,0,.22.09.22.22v2.06c0,.22-.02.33-.13.49l-1.37,1.81c-.09.11-.18.15-.29.15s-.2-.09-.2-.2v-4.31c0-.13.09-.22.22-.22Z"/>
      <path class="cls-1" d="m411.94,11.03c0-3.54.15-4.33.33-4.91.6-1.83,2.03-2.85,4.11-2.85s3.51,1.02,4.11,2.85c.18.58.33,1.37.33,4.91s-.15,4.33-.33,4.91c-.6,1.84-2.03,2.85-4.11,2.85s-3.52-1.02-4.11-2.85c-.18-.57-.33-1.37-.33-4.91Zm4.44,6.04c1.11,0,1.92-.51,2.28-1.5.15-.46.24-1.11.24-4.53s-.09-4.07-.24-4.53c-.35-1-1.17-1.5-2.28-1.5s-1.92.51-2.28,1.5c-.16.46-.24,1.11-.24,4.53s.09,4.07.24,4.53c.35.99,1.17,1.5,2.28,1.5Z"/>
    </g>
    <g>
      <path class="cls-1" d="m318.78,482.84c.04-.13.11-.22.26-.22h1.44c.15,0,.24.09.29.22l5.15,14.59c.04.13-.02.22-.15.22h-1.55c-.15,0-.24-.07-.29-.22l-1.15-3.27h-6.08l-1.15,3.27c-.07.15-.15.22-.29.22h-1.55c-.13,0-.2-.09-.16-.22l5.22-14.59Zm3.36,9.51l-2.37-6.83h-.04l-2.39,6.83h4.8Z"/>
      <path class="cls-1" d="m328.49,497.66c-.13,0-.22-.09-.22-.22v-10.15c0-.13.09-.22.22-.22h1.42c.13,0,.22.09.22.22v1.08h.02c.46-.91,1.39-1.55,2.81-1.55.84,0,1.64.31,2.17.8.11.11.13.2.04.31l-.82,1.08c-.09.11-.2.13-.31.04-.49-.31-1.02-.51-1.64-.51-1.61,0-2.28,1.26-2.28,3.1v5.79c0,.13-.09.22-.22.22h-1.42Z"/>
      <path class="cls-1" d="m337.04,495.05c-.24-.73-.35-1.46-.35-2.7s.11-1.95.35-2.67c.58-1.81,2.12-2.85,4.18-2.85s3.6,1.04,4.18,2.85c.24.73.35,1.46.35,2.67s-.11,1.97-.35,2.7c-.57,1.79-2.12,2.85-4.18,2.85s-3.6-1.06-4.18-2.85Zm6.57-.53c.18-.58.24-1.15.24-2.17s-.07-1.57-.24-2.14c-.35-1.06-1.22-1.66-2.39-1.66s-2.03.6-2.39,1.66c-.18.58-.24,1.13-.24,2.14s.07,1.59.24,2.17c.35,1.06,1.22,1.66,2.39,1.66s2.03-.6,2.39-1.66Z"/>
      <path class="cls-1" d="m362.28,497.66c-.13,0-.22-.09-.22-.22v-6.19c0-1.7-.77-2.7-2.37-2.7-1.42,0-2.43,1.02-2.43,2.59v6.3c0,.13-.09.22-.22.22h-1.42c-.13,0-.22-.09-.22-.22v-6.19c0-1.7-.77-2.7-2.37-2.7-1.44,0-2.43,1.02-2.43,2.59v6.3c0,.13-.09.22-.22.22h-1.42c-.13,0-.22-.09-.22-.22v-10.15c0-.13.09-.22.22-.22h1.42c.13,0,.22.09.22.22v.97h.02c.51-.82,1.53-1.44,2.96-1.44s2.5.6,3.1,1.66h.02c.73-1.02,1.81-1.66,3.43-1.66,2.46,0,3.78,1.57,3.78,3.98v6.63c0,.13-.09.22-.22.22h-1.42Z"/>
      <path class="cls-1" d="m373.84,497.66c-.13,0-.22-.09-.22-.22v-.93h-.02c-.49.8-1.53,1.39-3.14,1.39-2.01,0-3.56-1.04-3.56-3.18s1.55-3.27,4.13-3.27h2.41c.09,0,.13-.04.13-.13v-.77c0-1.46-.58-2.08-2.54-2.08-1.19,0-1.95.31-2.56.75-.11.09-.24.09-.31-.02l-.6-1.02c-.07-.13-.04-.22.04-.31.8-.62,2.03-1.04,3.6-1.04,3.01,0,4.16,1,4.16,3.6v7.01c0,.13-.09.22-.22.22h-1.3Zm-.26-3.43v-1.17c0-.09-.04-.13-.13-.13h-2.12c-1.83,0-2.63.53-2.63,1.72,0,1.08.8,1.66,2.21,1.66,1.66,0,2.68-.77,2.68-2.08Z"/>
      <path class="cls-1" d="m378.18,496.31c-.09-.09-.09-.22,0-.31l.91-.97c.09-.09.22-.09.31,0,.8.69,1.99,1.22,3.27,1.22,1.55,0,2.32-.66,2.32-1.61,0-.84-.4-1.3-2.06-1.48l-1.13-.11c-2.08-.22-3.16-1.26-3.16-2.98,0-2.01,1.44-3.23,3.94-3.23,1.55,0,2.87.51,3.76,1.17.11.07.11.2.04.31l-.75.95c-.09.11-.2.11-.31.04-.69-.44-1.77-.86-2.85-.86-1.33,0-2.01.6-2.01,1.46s.51,1.28,2.08,1.44l1.11.11c2.14.2,3.18,1.28,3.18,2.98,0,2.08-1.5,3.47-4.27,3.47-2.06,0-3.52-.84-4.38-1.59Z"/>
      <path class="cls-1" d="m401.62,484.41v-.07h-4.58c-.09,0-.13.04-.13.13v1.88c0,.13-.09.22-.22.22h-1.33c-.13,0-.22-.09-.22-.22v-3.52c0-.13.09-.22.22-.22h8.03c.13,0,.22.09.22.22v1.37c0,.09-.02.16-.04.22l-5.17,13.02c-.07.16-.11.2-.29.2h-1.48c-.13,0-.2-.09-.13-.24l5.13-13Z"/>
      <path class="cls-1" d="m406.99,495.31h1.55c.13,0,.22.09.22.22v2.06c0,.22-.02.33-.13.49l-1.37,1.81c-.09.11-.18.15-.29.15s-.2-.09-.2-.2v-4.31c0-.13.09-.22.22-.22Z"/>
      <path class="cls-1" d="m412.39,494.5l1.3-.33c.16-.02.24.04.29.18.24,1.06,1.06,1.83,2.45,1.83,1.04,0,1.88-.51,2.21-1.48.15-.42.2-1,.2-1.88,0-.93-.07-1.48-.22-1.9-.33-1.02-1.15-1.46-2.19-1.46-1.19,0-1.97.69-2.21,1.39-.07.15-.11.22-.26.22h-1.3c-.13,0-.22-.09-.22-.22v-8c0-.13.09-.22.22-.22h7.56c.13,0,.22.09.22.22v1.28c0,.13-.09.22-.22.22h-5.93c-.09,0-.13.04-.13.13v4.22h.07c.35-.46,1.24-.97,2.48-.97,1.83,0,3.18.86,3.71,2.48.2.64.33,1.39.33,2.61,0,1.06-.11,1.83-.31,2.43-.55,1.7-2.1,2.65-4,2.65-2.32,0-3.94-1.3-4.22-3.14-.02-.13.04-.24.18-.27Z"/>
    </g>
    <g>
      <path class="cls-1" d="m529.93,79.87c.04-.13.11-.22.26-.22h1.44c.15,0,.24.09.29.22l5.15,14.59c.04.13-.02.22-.15.22h-1.55c-.15,0-.24-.07-.29-.22l-1.15-3.27h-6.08l-1.15,3.27c-.07.15-.15.22-.29.22h-1.55c-.13,0-.2-.09-.16-.22l5.22-14.59Zm3.36,9.51l-2.37-6.83h-.04l-2.39,6.83h4.8Z"/>
      <path class="cls-1" d="m552.95,94.68c-.13,0-.22-.09-.22-.22v-6.19c0-1.7-.77-2.7-2.37-2.7-1.42,0-2.43,1.02-2.43,2.59v6.3c0,.13-.09.22-.22.22h-1.42c-.13,0-.22-.09-.22-.22v-6.19c0-1.7-.77-2.7-2.37-2.7-1.44,0-2.43,1.02-2.43,2.59v6.3c0,.13-.09.22-.22.22h-1.42c-.13,0-.22-.09-.22-.22v-10.15c0-.13.09-.22.22-.22h1.42c.13,0,.22.09.22.22v.97h.02c.51-.82,1.53-1.44,2.96-1.44s2.5.6,3.1,1.66h.02c.73-1.02,1.81-1.66,3.43-1.66,2.46,0,3.78,1.57,3.78,3.98v6.63c0,.13-.09.22-.22.22h-1.42Z"/>
      <path class="cls-1" d="m564.51,94.68c-.13,0-.22-.09-.22-.22v-.93h-.02c-.49.8-1.53,1.39-3.14,1.39-2.01,0-3.56-1.04-3.56-3.18s1.55-3.27,4.13-3.27h2.41c.09,0,.13-.04.13-.13v-.77c0-1.46-.58-2.08-2.54-2.08-1.19,0-1.95.31-2.56.75-.11.09-.24.09-.31-.02l-.6-1.02c-.07-.13-.04-.22.04-.31.8-.62,2.03-1.04,3.6-1.04,3.01,0,4.16,1,4.16,3.6v7.01c0,.13-.09.22-.22.22h-1.3Zm-.26-3.43v-1.17c0-.09-.04-.13-.13-.13h-2.12c-1.83,0-2.63.53-2.63,1.72,0,1.08.8,1.66,2.21,1.66,1.66,0,2.68-.77,2.68-2.08Z"/>
      <path class="cls-1" d="m569.8,94.68c-.13,0-.22-.09-.22-.22v-10.15c0-.13.09-.22.22-.22h1.42c.13,0,.22.09.22.22v1.08h.02c.46-.91,1.39-1.55,2.81-1.55.84,0,1.64.31,2.17.8.11.11.13.2.04.31l-.82,1.08c-.09.11-.2.13-.31.04-.49-.31-1.02-.51-1.64-.51-1.61,0-2.28,1.26-2.28,3.1v5.79c0,.13-.09.22-.22.22h-1.42Z"/>
      <path class="cls-1" d="m578.03,97.34c-.09-.11-.09-.2.02-.31l.91-.91c.11-.11.22-.11.33,0,.73.66,1.48,1.06,2.5,1.06,1.75,0,2.68-.91,2.68-2.85v-1.24h-.02c-.49.88-1.39,1.46-2.94,1.46-1.79,0-3.03-.91-3.56-2.56-.27-.8-.35-1.57-.35-2.79s.09-1.99.35-2.79c.53-1.66,1.77-2.56,3.56-2.56,1.55,0,2.45.58,2.94,1.46h.02v-.99c0-.13.09-.22.22-.22h1.42c.13,0,.22.09.22.22v9.91c0,3.01-1.64,4.69-4.62,4.69-1.48,0-2.96-.64-3.67-1.57Zm6.19-6.08c.18-.53.24-1.15.24-2.06s-.07-1.5-.24-2.06c-.38-1.08-1.15-1.57-2.25-1.57s-1.88.55-2.23,1.57c-.18.55-.26,1.19-.26,2.06s.09,1.53.26,2.06c.35,1.04,1.08,1.59,2.23,1.59s1.88-.51,2.25-1.59Z"/>
      <path class="cls-1" d="m589.66,92.08c-.24-.73-.35-1.46-.35-2.7s.11-1.95.35-2.67c.58-1.81,2.12-2.85,4.18-2.85s3.6,1.04,4.18,2.85c.24.73.35,1.46.35,2.67s-.11,1.97-.35,2.7c-.57,1.79-2.12,2.85-4.18,2.85s-3.6-1.06-4.18-2.85Zm6.57-.53c.18-.58.24-1.15.24-2.17s-.07-1.57-.24-2.14c-.35-1.06-1.22-1.66-2.39-1.66s-2.03.6-2.39,1.66c-.18.58-.24,1.13-.24,2.14s.07,1.59.24,2.17c.35,1.06,1.22,1.66,2.39,1.66s2.03-.6,2.39-1.66Z"/>
      <path class="cls-1" d="m601.58,94.68c-.13,0-.22-.09-.22-.22v-10.15c0-.13.09-.22.22-.22h1.42c.13,0,.22.09.22.22v1.08h.02c.46-.91,1.39-1.55,2.81-1.55.84,0,1.64.31,2.17.8.11.11.13.2.04.31l-.82,1.08c-.09.11-.2.13-.31.04-.49-.31-1.02-.51-1.64-.51-1.61,0-2.28,1.26-2.28,3.1v5.79c0,.13-.09.22-.22.22h-1.42Z"/>
      <path class="cls-1" d="m615.58,91.48l1.35-.33c.13-.04.22.02.27.15.31.95,1.08,1.9,2.67,1.9s2.59-1.13,2.59-2.65c0-1.68-1.08-2.79-2.76-2.79h-.66c-.13,0-.22-.09-.22-.22v-1.28c0-.13.09-.22.22-.22h.64c1.5,0,2.5-1,2.5-2.52,0-1.39-.91-2.39-2.41-2.39-1.39,0-2.12.82-2.39,1.83-.04.13-.13.2-.27.18l-1.33-.33c-.13-.02-.2-.13-.18-.27.31-1.68,1.81-3.14,4.22-3.14,2.65,0,4.25,1.7,4.25,4.07,0,1.5-.82,2.59-1.86,3.23v.04c.93.4,2.14,1.68,2.14,3.74,0,2.63-1.88,4.44-4.49,4.44-2.43,0-4.05-1.35-4.47-3.18-.02-.13.04-.22.18-.27Z"/>
      <path class="cls-1" d="m627.67,92.34h1.55c.13,0,.22.09.22.22v2.06c0,.22-.02.33-.13.49l-1.37,1.81c-.09.11-.18.15-.29.15s-.2-.09-.2-.2v-4.31c0-.13.09-.22.22-.22Z"/>
      <path class="cls-1" d="m633.07,91.52l1.3-.33c.15-.02.24.04.29.18.24,1.06,1.06,1.83,2.45,1.83,1.04,0,1.88-.51,2.21-1.48.15-.42.2-1,.2-1.88,0-.93-.07-1.48-.22-1.9-.33-1.02-1.15-1.46-2.19-1.46-1.19,0-1.97.69-2.21,1.39-.07.15-.11.22-.26.22h-1.3c-.13,0-.22-.09-.22-.22v-8c0-.13.09-.22.22-.22h7.56c.13,0,.22.09.22.22v1.28c0,.13-.09.22-.22.22h-5.93c-.09,0-.13.04-.13.13v4.22h.07c.35-.46,1.24-.97,2.48-.97,1.83,0,3.18.86,3.71,2.48.2.64.33,1.39.33,2.61,0,1.06-.11,1.83-.31,2.43-.55,1.7-2.1,2.65-4,2.65-2.32,0-3.94-1.3-4.22-3.14-.02-.13.04-.24.18-.27Z"/>
    </g>
    <g>
      <path class="cls-1" d="m89.18,94.68c-.15,0-.22-.07-.29-.22l-3.01-6.15h-3.32c-.09,0-.13.04-.13.13v6.01c0,.13-.09.22-.22.22h-1.53c-.13,0-.22-.09-.22-.22v-14.59c0-.13.09-.22.22-.22h5.44c2.81,0,4.71,1.72,4.71,4.33,0,2.03-1.15,3.52-2.96,4.09l3.21,6.35c.09.13.02.27-.13.27h-1.77Zm-.31-10.7c0-1.57-1.04-2.5-2.79-2.5h-3.52c-.09,0-.13.04-.13.13v4.73c0,.09.04.13.13.13h3.52c1.75,0,2.79-.93,2.79-2.5Z"/>
      <path class="cls-1" d="m93.78,92.05c-.22-.69-.35-1.46-.35-2.68s.11-2.03.33-2.67c.6-1.83,2.14-2.85,4.16-2.85s3.56,1.04,4.16,2.85c.22.69.33,1.42.33,3.03,0,.13-.09.22-.24.22h-6.7c-.09,0-.13.04-.13.13,0,.57.07.93.18,1.28.42,1.22,1.37,1.83,2.68,1.83s2.14-.51,2.72-1.17c.11-.11.22-.13.33-.04l.91.82c.11.09.11.2.02.31-.84,1.06-2.28,1.81-4.13,1.81-2.14,0-3.67-1.04-4.25-2.87Zm6.59-3.58c.09,0,.13-.04.13-.13,0-.49-.04-.86-.16-1.19-.35-1.06-1.24-1.66-2.43-1.66s-2.08.6-2.43,1.66c-.11.33-.16.71-.16,1.19,0,.09.04.13.13.13h4.91Z"/>
      <path class="cls-1" d="m108.47,94.79c-2.06,0-2.85-.93-2.85-3.01v-6.06c0-.09-.04-.13-.13-.13h-.88c-.13,0-.22-.09-.22-.22v-1.06c0-.13.09-.22.22-.22h.88c.09,0,.13-.04.13-.13v-2.98c0-.13.09-.22.22-.22h1.42c.13,0,.22.09.22.22v2.98c0,.09.04.13.13.13h1.68c.13,0,.22.09.22.22v1.06c0,.13-.09.22-.22.22h-1.68c-.09,0-.13.04-.13.13v5.99c0,1.06.4,1.35,1.35,1.35h.46c.13,0,.22.09.22.22v1.28c0,.13-.09.22-.22.22h-.82Z"/>
      <path class="cls-1" d="m112.6,94.68c-.13,0-.22-.09-.22-.22v-10.15c0-.13.09-.22.22-.22h1.42c.13,0,.22.09.22.22v1.08h.02c.46-.91,1.39-1.55,2.81-1.55.84,0,1.64.31,2.17.8.11.11.13.2.04.31l-.82,1.08c-.09.11-.2.13-.31.04-.49-.31-1.02-.51-1.64-.51-1.61,0-2.28,1.26-2.28,3.1v5.79c0,.13-.09.22-.22.22h-1.42Z"/>
      <path class="cls-1" d="m121.16,92.08c-.24-.73-.35-1.46-.35-2.7s.11-1.95.35-2.67c.58-1.81,2.12-2.85,4.18-2.85s3.6,1.04,4.18,2.85c.24.73.35,1.46.35,2.67s-.11,1.97-.35,2.7c-.57,1.79-2.12,2.85-4.18,2.85s-3.6-1.06-4.18-2.85Zm6.57-.53c.18-.58.24-1.15.24-2.17s-.07-1.57-.24-2.14c-.35-1.06-1.22-1.66-2.39-1.66s-2.03.6-2.39,1.66c-.18.58-.24,1.13-.24,2.14s.07,1.59.24,2.17c.35,1.06,1.22,1.66,2.39,1.66s2.03-.6,2.39-1.66Z"/>
      <path class="cls-1" d="m132.64,97.34c-.09-.11-.09-.2.02-.31l.91-.91c.11-.11.22-.11.33,0,.73.66,1.48,1.06,2.5,1.06,1.75,0,2.68-.91,2.68-2.85v-1.24h-.02c-.49.88-1.39,1.46-2.94,1.46-1.79,0-3.03-.91-3.56-2.56-.27-.8-.35-1.57-.35-2.79s.09-1.99.35-2.79c.53-1.66,1.77-2.56,3.56-2.56,1.55,0,2.45.58,2.94,1.46h.02v-.99c0-.13.09-.22.22-.22h1.42c.13,0,.22.09.22.22v9.91c0,3.01-1.64,4.69-4.62,4.69-1.48,0-2.96-.64-3.67-1.57Zm6.19-6.08c.18-.53.24-1.15.24-2.06s-.07-1.5-.24-2.06c-.38-1.08-1.15-1.57-2.25-1.57s-1.88.55-2.23,1.57c-.18.55-.26,1.19-.26,2.06s.09,1.53.26,2.06c.35,1.04,1.08,1.59,2.23,1.59s1.88-.51,2.25-1.59Z"/>
      <path class="cls-1" d="m144.27,92.08c-.24-.73-.35-1.46-.35-2.7s.11-1.95.35-2.67c.58-1.81,2.12-2.85,4.18-2.85s3.6,1.04,4.18,2.85c.24.73.35,1.46.35,2.67s-.11,1.97-.35,2.7c-.57,1.79-2.12,2.85-4.18,2.85s-3.6-1.06-4.18-2.85Zm6.57-.53c.18-.58.24-1.15.24-2.17s-.07-1.57-.24-2.14c-.35-1.06-1.22-1.66-2.39-1.66s-2.03.6-2.39,1.66c-.18.58-.24,1.13-.24,2.14s.07,1.59.24,2.17c.35,1.06,1.22,1.66,2.39,1.66s2.03-.6,2.39-1.66Z"/>
      <path class="cls-1" d="m155.24,93.34c-.09-.09-.09-.22,0-.31l.91-.97c.09-.09.22-.09.31,0,.8.69,1.99,1.22,3.27,1.22,1.55,0,2.32-.66,2.32-1.61,0-.84-.4-1.3-2.06-1.48l-1.13-.11c-2.08-.22-3.16-1.26-3.16-2.98,0-2.01,1.44-3.23,3.94-3.23,1.55,0,2.87.51,3.76,1.17.11.07.11.2.04.31l-.75.95c-.09.11-.2.11-.31.04-.69-.44-1.77-.86-2.85-.86-1.33,0-2.01.6-2.01,1.46s.51,1.28,2.08,1.44l1.11.11c2.14.2,3.18,1.28,3.18,2.98,0,2.08-1.5,3.47-4.27,3.47-2.06,0-3.52-.84-4.38-1.59Z"/>
      <path class="cls-1" d="m169.88,94.79c-2.06,0-2.85-.93-2.85-3.01v-6.06c0-.09-.04-.13-.13-.13h-.88c-.13,0-.22-.09-.22-.22v-1.06c0-.13.09-.22.22-.22h.88c.09,0,.13-.04.13-.13v-2.98c0-.13.09-.22.22-.22h1.42c.13,0,.22.09.22.22v2.98c0,.09.04.13.13.13h1.68c.13,0,.22.09.22.22v1.06c0,.13-.09.22-.22.22h-1.68c-.09,0-.13.04-.13.13v5.99c0,1.06.4,1.35,1.35,1.35h.46c.13,0,.22.09.22.22v1.28c0,.13-.09.22-.22.22h-.82Z"/>
      <path class="cls-1" d="m173.51,92.08c-.24-.73-.35-1.46-.35-2.7s.11-1.95.35-2.67c.58-1.81,2.12-2.85,4.18-2.85s3.6,1.04,4.18,2.85c.24.73.35,1.46.35,2.67s-.11,1.97-.35,2.7c-.57,1.79-2.12,2.85-4.18,2.85s-3.6-1.06-4.18-2.85Zm6.57-.53c.18-.58.24-1.15.24-2.17s-.07-1.57-.24-2.14c-.35-1.06-1.22-1.66-2.39-1.66s-2.03.6-2.39,1.66c-.18.58-.24,1.13-.24,2.14s.07,1.59.24,2.17c.35,1.06,1.22,1.66,2.39,1.66s2.03-.6,2.39-1.66Z"/>
      <path class="cls-1" d="m197.08,81.44v-.07h-4.58c-.09,0-.13.04-.13.13v1.88c0,.13-.09.22-.22.22h-1.33c-.13,0-.22-.09-.22-.22v-3.52c0-.13.09-.22.22-.22h8.03c.13,0,.22.09.22.22v1.37c0,.09-.02.16-.04.22l-5.17,13.02c-.07.16-.11.2-.29.2h-1.48c-.13,0-.2-.09-.13-.24l5.13-13Z"/>
    </g>
    <g>
      <path class="cls-1" d="m522.65,421.4c-.09-.09-.11-.22-.02-.33l.97-1.15c.09-.11.2-.11.31-.02.97.77,2.48,1.55,4.2,1.55,2.08,0,3.32-1.04,3.32-2.56,0-1.28-.73-2.15-3.14-2.46l-.75-.11c-2.92-.4-4.42-1.79-4.42-4.16,0-2.68,1.92-4.4,4.91-4.4,1.77,0,3.47.58,4.58,1.39.11.09.13.2.04.31l-.75,1.22c-.09.11-.2.11-.31.04-1.22-.75-2.34-1.13-3.63-1.13-1.83,0-2.85.99-2.85,2.43,0,1.26.84,2.1,3.16,2.41l.73.11c2.94.4,4.42,1.75,4.42,4.2,0,2.63-1.86,4.53-5.48,4.53-2.12,0-4.18-.86-5.28-1.88Z"/>
      <path class="cls-1" d="m543.07,423.04c-.13,0-.22-.09-.22-.22v-1h-.02c-.55.88-1.53,1.46-2.9,1.46-2.32,0-3.67-1.59-3.67-4v-6.61c0-.13.09-.22.22-.22h1.42c.13,0,.22.09.22.22v6.17c0,1.72.77,2.72,2.34,2.72,1.44,0,2.39-1.02,2.39-2.61v-6.28c0-.13.09-.22.22-.22h1.42c.13,0,.22.09.22.22v10.15c0,.13-.09.22-.22.22h-1.42Z"/>
      <path class="cls-1" d="m554.74,423.04c-.13,0-.22-.09-.22-.22v-.93h-.02c-.49.8-1.53,1.39-3.14,1.39-2.01,0-3.56-1.04-3.56-3.18s1.55-3.27,4.13-3.27h2.41c.09,0,.13-.04.13-.13v-.77c0-1.46-.58-2.08-2.54-2.08-1.19,0-1.95.31-2.56.75-.11.09-.24.09-.31-.02l-.6-1.02c-.07-.13-.04-.22.04-.31.8-.62,2.03-1.04,3.6-1.04,3.01,0,4.16,1,4.16,3.6v7.01c0,.13-.09.22-.22.22h-1.3Zm-.26-3.43v-1.17c0-.09-.04-.13-.13-.13h-2.12c-1.83,0-2.63.53-2.63,1.72,0,1.08.8,1.66,2.21,1.66,1.66,0,2.68-.77,2.68-2.08Z"/>
      <path class="cls-1" d="m562.57,423.04c-.16,0-.22-.09-.27-.22l-3.8-10.15c-.04-.13.02-.22.18-.22h1.53c.15,0,.22.07.29.22l2.74,7.61h.04l2.68-7.61c.04-.16.13-.22.26-.22h1.5c.15,0,.22.09.18.22l-3.78,10.15c-.04.13-.13.22-.29.22h-1.26Z"/>
      <path class="cls-1" d="m570.47,410.06c-.13,0-.22-.09-.22-.22v-1.61c0-.13.09-.22.22-.22h1.5c.13,0,.22.09.22.22v1.61c0,.13-.09.22-.22.22h-1.5Zm.04,12.98c-.13,0-.22-.09-.22-.22v-10.15c0-.13.09-.22.22-.22h1.42c.13,0,.22.09.22.22v10.15c0,.13-.09.22-.22.22h-1.42Z"/>
      <path class="cls-1" d="m582.41,423.04c-.13,0-.22-.09-.22-.22v-1.02h-.02c-.51.84-1.42,1.48-3.01,1.48-1.84,0-3.12-.86-3.65-2.54-.29-.84-.38-1.68-.38-3.01s.09-2.14.38-2.98c.53-1.68,1.81-2.54,3.65-2.54,1.59,0,2.5.62,3.01,1.46h.02v-5.44c0-.13.09-.22.22-.22h1.42c.13,0,.22.09.22.22v14.59c0,.13-.09.22-.22.22h-1.42Zm-.46-3.1c.18-.51.24-1.15.24-2.21s-.07-1.68-.24-2.21c-.35-1.06-1.17-1.59-2.34-1.59s-1.97.55-2.32,1.59c-.18.58-.24,1.26-.24,2.21s.07,1.66.24,2.21c.35,1.04,1.15,1.61,2.32,1.61s1.99-.55,2.34-1.61Z"/>
      <path class="cls-1" d="m594.08,423.04c-.13,0-.22-.09-.22-.22v-.93h-.02c-.49.8-1.53,1.39-3.14,1.39-2.01,0-3.56-1.04-3.56-3.18s1.55-3.27,4.13-3.27h2.41c.09,0,.13-.04.13-.13v-.77c0-1.46-.58-2.08-2.54-2.08-1.19,0-1.95.31-2.56.75-.11.09-.24.09-.31-.02l-.6-1.02c-.07-.13-.04-.22.04-.31.8-.62,2.03-1.04,3.6-1.04,3.01,0,4.16,1,4.16,3.6v7.01c0,.13-.09.22-.22.22h-1.3Zm-.26-3.43v-1.17c0-.09-.04-.13-.13-.13h-2.12c-1.83,0-2.63.53-2.63,1.72,0,1.08.8,1.66,2.21,1.66,1.66,0,2.68-.77,2.68-2.08Z"/>
      <path class="cls-1" d="m605.78,423.04c-.13,0-.22-.09-.22-.22v-1.02h-.02c-.51.84-1.42,1.48-3.01,1.48-1.84,0-3.12-.86-3.65-2.54-.29-.84-.38-1.68-.38-3.01s.09-2.14.38-2.98c.53-1.68,1.81-2.54,3.65-2.54,1.59,0,2.5.62,3.01,1.46h.02v-5.44c0-.13.09-.22.22-.22h1.42c.13,0,.22.09.22.22v14.59c0,.13-.09.22-.22.22h-1.42Zm-.46-3.1c.18-.51.24-1.15.24-2.21s-.07-1.68-.24-2.21c-.35-1.06-1.17-1.59-2.34-1.59s-1.97.55-2.32,1.59c-.18.58-.24,1.26-.24,2.21s.07,1.66.24,2.21c.35,1.04,1.15,1.61,2.32,1.61s1.99-.55,2.34-1.61Z"/>
      <path class="cls-1" d="m610.76,420.4c-.22-.69-.35-1.46-.35-2.68s.11-2.03.33-2.67c.6-1.83,2.14-2.85,4.16-2.85s3.56,1.04,4.16,2.85c.22.69.33,1.42.33,3.03,0,.13-.09.22-.24.22h-6.7c-.09,0-.13.04-.13.13,0,.57.07.93.18,1.28.42,1.22,1.37,1.83,2.68,1.83s2.14-.51,2.72-1.17c.11-.11.22-.13.33-.04l.91.82c.11.09.11.2.02.31-.84,1.06-2.28,1.81-4.13,1.81-2.14,0-3.67-1.04-4.25-2.87Zm6.59-3.58c.09,0,.13-.04.13-.13,0-.49-.04-.86-.16-1.19-.35-1.06-1.24-1.66-2.43-1.66s-2.08.6-2.43,1.66c-.11.33-.16.71-.16,1.19,0,.09.04.13.13.13h4.91Z"/>
      <path class="cls-1" d="m627.04,420.18v-1.22c0-.09.02-.18.07-.27l4.86-10.52c.07-.13.15-.18.31-.18h1.48c.15,0,.2.09.15.2l-4.8,10.46v.04h3.98c.09,0,.13-.04.13-.13v-3.94c0-.13.09-.22.22-.22h1.42c.13,0,.22.09.22.22v3.94c0,.09.04.13.13.13h1.37c.13,0,.22.09.22.22v1.26c0,.13-.09.22-.22.22h-1.37c-.09,0-.13.04-.13.13v2.28c0,.13-.09.22-.22.22h-1.42c-.13,0-.22-.09-.22-.22v-2.28c0-.09-.04-.13-.13-.13h-5.84c-.13,0-.22-.09-.22-.22Z"/>
    </g>
    <g>
      <path class="cls-1" d="m37.91,410.87c.04-.13.11-.22.26-.22h1.44c.15,0,.24.09.29.22l5.15,14.59c.04.13-.02.22-.15.22h-1.55c-.15,0-.24-.07-.29-.22l-1.15-3.27h-6.08l-1.15,3.27c-.07.15-.15.22-.29.22h-1.55c-.13,0-.2-.09-.16-.22l5.22-14.59Zm3.36,9.51l-2.37-6.83h-.04l-2.39,6.83h4.8Z"/>
      <path class="cls-1" d="m53.94,425.68c-.13,0-.22-.09-.22-.22v-1.02h-.02c-.51.84-1.42,1.48-3.01,1.48-1.84,0-3.12-.86-3.65-2.54-.29-.84-.38-1.68-.38-3.01s.09-2.14.38-2.98c.53-1.68,1.81-2.54,3.65-2.54,1.59,0,2.5.62,3.01,1.46h.02v-5.44c0-.13.09-.22.22-.22h1.42c.13,0,.22.09.22.22v14.59c0,.13-.09.22-.22.22h-1.42Zm-.46-3.1c.18-.51.24-1.15.24-2.21s-.07-1.68-.24-2.21c-.35-1.06-1.17-1.59-2.34-1.59s-1.97.55-2.32,1.59c-.18.58-.24,1.26-.24,2.21s.07,1.66.24,2.21c.35,1.04,1.15,1.61,2.32,1.61s1.99-.55,2.34-1.61Z"/>
      <path class="cls-1" d="m58.48,424.34c-.09-.09-.09-.22,0-.31l.91-.97c.09-.09.22-.09.31,0,.8.69,1.99,1.22,3.27,1.22,1.55,0,2.32-.66,2.32-1.61,0-.84-.4-1.3-2.06-1.48l-1.13-.11c-2.08-.22-3.16-1.26-3.16-2.98,0-2.01,1.44-3.23,3.94-3.23,1.55,0,2.87.51,3.76,1.17.11.07.11.2.04.31l-.75.95c-.09.11-.2.11-.31.04-.69-.44-1.77-.86-2.85-.86-1.33,0-2.01.6-2.01,1.46s.51,1.28,2.08,1.44l1.11.11c2.14.2,3.18,1.28,3.18,2.98,0,2.08-1.5,3.47-4.27,3.47-2.06,0-3.52-.84-4.38-1.59Z"/>
      <path class="cls-1" d="m73.12,425.79c-2.06,0-2.85-.93-2.85-3.01v-6.06c0-.09-.04-.13-.13-.13h-.88c-.13,0-.22-.09-.22-.22v-1.06c0-.13.09-.22.22-.22h.88c.09,0,.13-.04.13-.13v-2.98c0-.13.09-.22.22-.22h1.42c.13,0,.22.09.22.22v2.98c0,.09.04.13.13.13h1.68c.13,0,.22.09.22.22v1.06c0,.13-.09.22-.22.22h-1.68c-.09,0-.13.04-.13.13v5.99c0,1.06.4,1.35,1.35,1.35h.46c.13,0,.22.09.22.22v1.28c0,.13-.09.22-.22.22h-.82Z"/>
      <path class="cls-1" d="m77.25,425.68c-.13,0-.22-.09-.22-.22v-10.15c0-.13.09-.22.22-.22h1.42c.13,0,.22.09.22.22v1.08h.02c.46-.91,1.39-1.55,2.81-1.55.84,0,1.64.31,2.17.8.11.11.13.2.04.31l-.82,1.08c-.09.11-.2.13-.31.04-.49-.31-1.02-.51-1.64-.51-1.61,0-2.28,1.26-2.28,3.1v5.79c0,.13-.09.22-.22.22h-1.42Z"/>
      <path class="cls-1" d="m86.28,412.71c-.13,0-.22-.09-.22-.22v-1.61c0-.13.09-.22.22-.22h1.5c.13,0,.22.09.22.22v1.61c0,.13-.09.22-.22.22h-1.5Zm.04,12.98c-.13,0-.22-.09-.22-.22v-10.15c0-.13.09-.22.22-.22h1.42c.13,0,.22.09.22.22v10.15c0,.13-.09.22-.22.22h-1.42Z"/>
      <path class="cls-1" d="m98.46,425.68c-.13,0-.22-.09-.22-.22v-6.19c0-1.7-.77-2.7-2.37-2.7-1.44,0-2.43,1.02-2.43,2.59v6.3c0,.13-.09.22-.22.22h-1.42c-.13,0-.22-.09-.22-.22v-10.15c0-.13.09-.22.22-.22h1.42c.13,0,.22.09.22.22v.97h.02c.51-.82,1.53-1.44,2.96-1.44,2.3,0,3.67,1.57,3.67,3.98v6.63c0,.13-.09.22-.22.22h-1.42Z"/>
      <path class="cls-1" d="m103.39,428.34c-.09-.11-.09-.2.02-.31l.91-.91c.11-.11.22-.11.33,0,.73.66,1.48,1.06,2.5,1.06,1.75,0,2.68-.91,2.68-2.85v-1.24h-.02c-.49.88-1.39,1.46-2.94,1.46-1.79,0-3.03-.91-3.56-2.56-.27-.8-.35-1.57-.35-2.79s.09-1.99.35-2.79c.53-1.66,1.77-2.56,3.56-2.56,1.55,0,2.45.58,2.94,1.46h.02v-.99c0-.13.09-.22.22-.22h1.42c.13,0,.22.09.22.22v9.91c0,3.01-1.64,4.69-4.62,4.69-1.48,0-2.96-.64-3.67-1.57Zm6.19-6.08c.18-.53.24-1.15.24-2.06s-.07-1.5-.24-2.06c-.38-1.08-1.15-1.57-2.25-1.57s-1.88.55-2.23,1.57c-.18.55-.26,1.19-.26,2.06s.09,1.53.26,2.06c.35,1.04,1.08,1.59,2.23,1.59s1.88-.51,2.25-1.59Z"/>
      <path class="cls-1" d="m115.03,423.05c-.22-.69-.35-1.46-.35-2.68s.11-2.03.33-2.67c.6-1.83,2.14-2.85,4.16-2.85s3.56,1.04,4.16,2.85c.22.69.33,1.42.33,3.03,0,.13-.09.22-.24.22h-6.7c-.09,0-.13.04-.13.13,0,.57.07.93.18,1.28.42,1.22,1.37,1.83,2.68,1.83s2.14-.51,2.72-1.17c.11-.11.22-.13.33-.04l.91.82c.11.09.11.2.02.31-.84,1.06-2.28,1.81-4.13,1.81-2.14,0-3.67-1.04-4.25-2.87Zm5.97-9.68c-.18,0-.27-.04-.42-.22l-1.39-1.55h-.04l-1.42,1.55c-.15.18-.22.22-.42.22h-1c-.13,0-.18-.11-.09-.22l2.1-2.72c.11-.16.2-.22.35-.22h.95c.16,0,.24.07.35.22l2.1,2.72c.09.11.04.22-.09.22h-1Zm.62,6.1c.09,0,.13-.04.13-.13,0-.49-.04-.86-.16-1.19-.35-1.06-1.24-1.66-2.43-1.66s-2.08.6-2.43,1.66c-.11.33-.16.71-.16,1.19,0,.09.04.13.13.13h4.91Z"/>
      <path class="cls-1" d="m133.51,425.68c-.13,0-.22-.09-.22-.22v-6.19c0-1.7-.77-2.7-2.37-2.7-1.44,0-2.43,1.02-2.43,2.59v6.3c0,.13-.09.22-.22.22h-1.42c-.13,0-.22-.09-.22-.22v-10.15c0-.13.09-.22.22-.22h1.42c.13,0,.22.09.22.22v.97h.02c.51-.82,1.53-1.44,2.96-1.44,2.3,0,3.67,1.57,3.67,3.98v6.63c0,.13-.09.22-.22.22h-1.42Z"/>
      <path class="cls-1" d="m138.36,417.7c.6-1.83,2.14-2.85,4.18-2.85,1.61,0,2.85.69,3.63,1.79.07.11.07.2-.07.31l-.97.8c-.11.09-.22.09-.31-.02-.62-.77-1.22-1.15-2.28-1.15-1.15,0-2.01.55-2.37,1.66-.18.55-.24,1.22-.24,2.14s.07,1.61.24,2.17c.35,1.11,1.22,1.66,2.37,1.66,1.06,0,1.66-.38,2.28-1.15.09-.11.2-.11.31-.02l.97.8c.13.11.13.2.07.31-.77,1.11-2.01,1.79-3.63,1.79-2.03,0-3.58-1.02-4.18-2.85-.2-.64-.33-1.5-.33-2.7s.13-2.03.33-2.67Z"/>
      <path class="cls-1" d="m149.28,412.71c-.13,0-.22-.09-.22-.22v-1.61c0-.13.09-.22.22-.22h1.5c.13,0,.22.09.22.22v1.61c0,.13-.09.22-.22.22h-1.5Zm.04,12.98c-.13,0-.22-.09-.22-.22v-10.15c0-.13.09-.22.22-.22h1.42c.13,0,.22.09.22.22v10.15c0,.13-.09.22-.22.22h-1.42Z"/>
      <path class="cls-1" d="m161,425.68c-.13,0-.22-.09-.22-.22v-.93h-.02c-.49.8-1.53,1.39-3.14,1.39-2.01,0-3.56-1.04-3.56-3.18s1.55-3.27,4.13-3.27h2.41c.09,0,.13-.04.13-.13v-.77c0-1.46-.58-2.08-2.54-2.08-1.19,0-1.95.31-2.56.75-.11.09-.24.09-.31-.02l-.6-1.02c-.07-.13-.04-.22.04-.31.8-.62,2.03-1.04,3.6-1.04,3.01,0,4.16,1,4.16,3.6v7.01c0,.13-.09.22-.22.22h-1.3Zm-.26-3.43v-1.17c0-.09-.04-.13-.13-.13h-2.12c-1.83,0-2.63.53-2.63,1.72,0,1.08.8,1.66,2.21,1.66,1.66,0,2.68-.77,2.68-2.08Z"/>
      <path class="cls-1" d="m171.31,424.31c0-.13.02-.2.11-.31l5.42-6.9c.66-.84,1.06-1.66,1.06-2.61,0-1.35-.91-2.37-2.37-2.37s-2.23.86-2.45,2.21c-.02.13-.11.2-.24.18l-1.35-.29c-.13-.04-.2-.13-.18-.27.2-1.79,1.61-3.56,4.27-3.56s4.22,1.77,4.22,4.09c0,1.35-.55,2.45-1.46,3.6l-4.64,5.84v.02h5.88c.13,0,.22.09.22.22v1.28c0,.13-.09.22-.22.22h-8.05c-.13,0-.22-.09-.22-.22v-1.15Z"/>
      <path class="cls-1" d="m183.32,423.34h1.55c.13,0,.22.09.22.22v2.06c0,.22-.02.33-.13.49l-1.37,1.81c-.09.11-.18.15-.29.15s-.2-.09-.2-.2v-4.31c0-.13.09-.22.22-.22Z"/>
      <path class="cls-1" d="m188.71,422.52l1.3-.33c.15-.02.24.04.29.18.24,1.06,1.06,1.83,2.45,1.83,1.04,0,1.88-.51,2.21-1.48.15-.42.2-1,.2-1.88,0-.93-.07-1.48-.22-1.9-.33-1.02-1.15-1.46-2.19-1.46-1.19,0-1.97.69-2.21,1.39-.07.15-.11.22-.26.22h-1.3c-.13,0-.22-.09-.22-.22v-8c0-.13.09-.22.22-.22h7.56c.13,0,.22.09.22.22v1.28c0,.13-.09.22-.22.22h-5.93c-.09,0-.13.04-.13.13v4.22h.07c.35-.46,1.24-.97,2.48-.97,1.83,0,3.18.86,3.71,2.48.2.64.33,1.39.33,2.61,0,1.06-.11,1.83-.31,2.43-.55,1.7-2.1,2.65-4,2.65-2.32,0-3.94-1.3-4.22-3.14-.02-.13.04-.24.18-.27Z"/>
    </g>
    <g>
      <path class="cls-1" d="m596.35,259.11c-.13,0-.22-.09-.22-.22v-14.59c0-.13.09-.22.22-.22h5.35c2.9,0,4.78,1.77,4.78,4.49s-1.88,4.49-4.78,4.49h-3.47c-.09,0-.13.04-.13.13v5.71c0,.13-.09.22-.22.22h-1.53Zm8.18-10.55c0-1.64-1.08-2.65-2.94-2.65h-3.36c-.09,0-.13.04-.13.13v5.04c0,.09.04.13.13.13h3.36c1.86,0,2.94-1.02,2.94-2.65Z"/>
      <path class="cls-1" d="m609.35,246.13c-.13,0-.22-.09-.22-.22v-1.61c0-.13.09-.22.22-.22h1.5c.13,0,.22.09.22.22v1.61c0,.13-.09.22-.22.22h-1.5Zm.04,12.98c-.13,0-.22-.09-.22-.22v-10.15c0-.13.09-.22.22-.22h1.42c.13,0,.22.09.22.22v10.15c0,.13-.09.22-.22.22h-1.42Z"/>
      <path class="cls-1" d="m614.35,251.13c.6-1.83,2.14-2.85,4.18-2.85,1.61,0,2.85.69,3.63,1.79.07.11.07.2-.07.31l-.97.8c-.11.09-.22.09-.31-.02-.62-.77-1.22-1.15-2.28-1.15-1.15,0-2.01.55-2.37,1.66-.18.55-.24,1.22-.24,2.14s.07,1.61.24,2.17c.35,1.11,1.22,1.66,2.37,1.66,1.06,0,1.66-.38,2.28-1.15.09-.11.2-.11.31-.02l.97.8c.13.11.13.2.07.31-.77,1.11-2.01,1.79-3.63,1.79-2.03,0-3.58-1.02-4.18-2.85-.2-.64-.33-1.5-.33-2.7s.13-2.03.33-2.67Z"/>
      <path class="cls-1" d="m631.24,259.11c-.13,0-.22-.09-.22-.22v-.93h-.02c-.49.8-1.53,1.39-3.14,1.39-2.01,0-3.56-1.04-3.56-3.18s1.55-3.27,4.13-3.27h2.41c.09,0,.13-.04.13-.13v-.77c0-1.46-.58-2.08-2.54-2.08-1.19,0-1.95.31-2.56.75-.11.09-.24.09-.31-.02l-.6-1.02c-.07-.13-.04-.22.04-.31.8-.62,2.03-1.04,3.6-1.04,3.01,0,4.16,1,4.16,3.6v7.01c0,.13-.09.22-.22.22h-1.3Zm-.66-12.32c-.18,0-.27-.04-.42-.22l-1.39-1.55h-.04l-1.42,1.55c-.15.18-.22.22-.42.22h-1c-.13,0-.18-.11-.09-.22l2.1-2.72c.11-.16.2-.22.35-.22h.95c.16,0,.24.07.35.22l2.1,2.72c.09.11.04.22-.09.22h-1Zm.4,8.89v-1.17c0-.09-.04-.13-.13-.13h-2.12c-1.83,0-2.63.53-2.63,1.72,0,1.08.8,1.66,2.21,1.66,1.66,0,2.68-.77,2.68-2.08Z"/>
      <path class="cls-1" d="m643.18,259.11c-.13,0-.22-.09-.22-.22v-6.19c0-1.7-.77-2.7-2.37-2.7-1.44,0-2.43,1.02-2.43,2.59v6.3c0,.13-.09.22-.22.22h-1.42c-.13,0-.22-.09-.22-.22v-10.15c0-.13.09-.22.22-.22h1.42c.13,0,.22.09.22.22v.97h.02c.51-.82,1.53-1.44,2.96-1.44,2.3,0,3.67,1.57,3.67,3.98v6.63c0,.13-.09.22-.22.22h-1.42Z"/>
      <path class="cls-1" d="m648.03,251.13c.6-1.83,2.14-2.85,4.18-2.85,1.61,0,2.85.69,3.63,1.79.07.11.07.2-.07.31l-.97.8c-.11.09-.22.09-.31-.02-.62-.77-1.22-1.15-2.28-1.15-1.15,0-2.01.55-2.37,1.66-.18.55-.24,1.22-.24,2.14s.07,1.61.24,2.17c.35,1.11,1.22,1.66,2.37,1.66,1.06,0,1.66-.38,2.28-1.15.09-.11.2-.11.31-.02l.97.8c.13.11.13.2.07.31-.77,1.11-2.01,1.79-3.63,1.79-2.03,0-3.58-1.02-4.18-2.85-.2-.64-.33-1.5-.33-2.7s.13-2.03.33-2.67Z"/>
      <path class="cls-1" d="m658.95,246.13c-.13,0-.22-.09-.22-.22v-1.61c0-.13.09-.22.22-.22h1.5c.13,0,.22.09.22.22v1.61c0,.13-.09.22-.22.22h-1.5Zm.04,12.98c-.13,0-.22-.09-.22-.22v-10.15c0-.13.09-.22.22-.22h1.42c.13,0,.22.09.22.22v10.15c0,.13-.09.22-.22.22h-1.42Z"/>
      <path class="cls-1" d="m670.67,259.11c-.13,0-.22-.09-.22-.22v-.93h-.02c-.49.8-1.53,1.39-3.14,1.39-2.01,0-3.56-1.04-3.56-3.18s1.55-3.27,4.13-3.27h2.41c.09,0,.13-.04.13-.13v-.77c0-1.46-.58-2.08-2.54-2.08-1.19,0-1.95.31-2.56.75-.11.09-.24.09-.31-.02l-.6-1.02c-.07-.13-.04-.22.04-.31.8-.62,2.03-1.04,3.6-1.04,3.01,0,4.16,1,4.16,3.6v7.01c0,.13-.09.22-.22.22h-1.3Zm-.26-3.43v-1.17c0-.09-.04-.13-.13-.13h-2.12c-1.83,0-2.63.53-2.63,1.72,0,1.08.8,1.66,2.21,1.66,1.66,0,2.68-.77,2.68-2.08Z"/>
      <path class="cls-1" d="m681.31,255.95l1.3-.33c.15-.02.24.04.29.18.24,1.06,1.06,1.83,2.45,1.83,1.04,0,1.88-.51,2.21-1.48.15-.42.2-1,.2-1.88,0-.93-.07-1.48-.22-1.9-.33-1.02-1.15-1.46-2.19-1.46-1.19,0-1.97.69-2.21,1.39-.07.15-.11.22-.26.22h-1.3c-.13,0-.22-.09-.22-.22v-8c0-.13.09-.22.22-.22h7.56c.13,0,.22.09.22.22v1.28c0,.13-.09.22-.22.22h-5.93c-.09,0-.13.04-.13.13v4.22h.07c.35-.46,1.24-.97,2.48-.97,1.83,0,3.18.86,3.71,2.48.2.64.33,1.39.33,2.61,0,1.06-.11,1.83-.31,2.43-.55,1.7-2.1,2.65-4,2.65-2.32,0-3.94-1.3-4.22-3.14-.02-.13.04-.24.18-.27Z"/>
      <path class="cls-1" d="m692.99,256.76h1.55c.13,0,.22.09.22.22v2.06c0,.22-.02.33-.13.49l-1.37,1.81c-.09.11-.18.15-.29.15s-.2-.09-.2-.2v-4.31c0-.13.09-.22.22-.22Z"/>
      <path class="cls-1" d="m698.38,255.95l1.3-.33c.16-.02.24.04.29.18.24,1.06,1.06,1.83,2.45,1.83,1.04,0,1.88-.51,2.21-1.48.15-.42.2-1,.2-1.88,0-.93-.07-1.48-.22-1.9-.33-1.02-1.15-1.46-2.19-1.46-1.19,0-1.97.69-2.21,1.39-.07.15-.11.22-.26.22h-1.3c-.13,0-.22-.09-.22-.22v-8c0-.13.09-.22.22-.22h7.56c.13,0,.22.09.22.22v1.28c0,.13-.09.22-.22.22h-5.93c-.09,0-.13.04-.13.13v4.22h.07c.35-.46,1.24-.97,2.48-.97,1.83,0,3.18.86,3.71,2.48.2.64.33,1.39.33,2.61,0,1.06-.11,1.83-.31,2.43-.55,1.7-2.1,2.65-4,2.65-2.32,0-3.94-1.3-4.22-3.14-.02-.13.04-.24.18-.27Z"/>
    </g>
    <g>
      <path class="cls-1" d="m7.21,244.25c0-.13.09-.22.22-.22h1.53c.13,0,.22.09.22.22v6.17c0,.09.04.13.13.13h6.52c.09,0,.13-.04.13-.13v-6.17c0-.13.09-.22.22-.22h1.53c.13,0,.22.09.22.22v14.59c0,.13-.09.22-.22.22h-1.53c-.13,0-.22-.09-.22-.22v-6.32c0-.09-.04-.13-.13-.13h-6.52c-.09,0-.13.04-.13.13v6.32c0,.13-.09.22-.22.22h-1.53c-.13,0-.22-.09-.22-.22v-14.59Z"/>
      <path class="cls-1" d="m28.02,259.07c-.13,0-.22-.09-.22-.22v-.93h-.02c-.49.8-1.53,1.39-3.14,1.39-2.01,0-3.56-1.04-3.56-3.18s1.55-3.27,4.13-3.27h2.41c.09,0,.13-.04.13-.13v-.77c0-1.46-.58-2.08-2.54-2.08-1.19,0-1.95.31-2.56.75-.11.09-.24.09-.31-.02l-.6-1.02c-.07-.13-.04-.22.04-.31.8-.62,2.03-1.04,3.6-1.04,3.01,0,4.16,1,4.16,3.6v7.01c0,.13-.09.22-.22.22h-1.3Zm-.26-3.43v-1.17c0-.09-.04-.13-.13-.13h-2.12c-1.83,0-2.63.53-2.63,1.72,0,1.08.8,1.66,2.21,1.66,1.66,0,2.68-.77,2.68-2.08Z"/>
      <path class="cls-1" d="m33.31,259.07c-.13,0-.22-.09-.22-.22v-10.15c0-.13.09-.22.22-.22h1.42c.13,0,.22.09.22.22v1.08h.02c.46-.91,1.39-1.55,2.81-1.55.84,0,1.64.31,2.17.8.11.11.13.2.04.31l-.82,1.08c-.09.11-.2.13-.31.04-.49-.31-1.02-.51-1.64-.51-1.61,0-2.28,1.26-2.28,3.1v5.79c0,.13-.09.22-.22.22h-1.42Z"/>
      <path class="cls-1" d="m55.68,259.07c-.13,0-.22-.09-.22-.22v-6.19c0-1.7-.77-2.7-2.37-2.7-1.42,0-2.43,1.02-2.43,2.59v6.3c0,.13-.09.22-.22.22h-1.42c-.13,0-.22-.09-.22-.22v-6.19c0-1.7-.77-2.7-2.37-2.7-1.44,0-2.43,1.02-2.43,2.59v6.3c0,.13-.09.22-.22.22h-1.42c-.13,0-.22-.09-.22-.22v-10.15c0-.13.09-.22.22-.22h1.42c.13,0,.22.09.22.22v.97h.02c.51-.82,1.53-1.44,2.96-1.44s2.5.6,3.1,1.66h.02c.73-1.02,1.81-1.66,3.43-1.66,2.46,0,3.78,1.57,3.78,3.98v6.63c0,.13-.09.22-.22.22h-1.42Z"/>
      <path class="cls-1" d="m60.55,256.46c-.24-.73-.35-1.46-.35-2.7s.11-1.95.35-2.67c.58-1.81,2.12-2.85,4.18-2.85s3.6,1.04,4.18,2.85c.24.73.35,1.46.35,2.67s-.11,1.97-.35,2.7c-.57,1.79-2.12,2.85-4.18,2.85s-3.6-1.06-4.18-2.85Zm6.57-.53c.18-.58.24-1.15.24-2.17s-.07-1.57-.24-2.14c-.35-1.06-1.22-1.66-2.39-1.66s-2.03.6-2.39,1.66c-.18.58-.24,1.13-.24,2.14s.07,1.59.24,2.17c.35,1.06,1.22,1.66,2.39,1.66s2.03-.6,2.39-1.66Z"/>
      <path class="cls-1" d="m79.13,259.07c-.13,0-.22-.09-.22-.22v-6.19c0-1.7-.77-2.7-2.37-2.7-1.44,0-2.43,1.02-2.43,2.59v6.3c0,.13-.09.22-.22.22h-1.42c-.13,0-.22-.09-.22-.22v-10.15c0-.13.09-.22.22-.22h1.42c.13,0,.22.09.22.22v.97h.02c.51-.82,1.53-1.44,2.96-1.44,2.3,0,3.67,1.57,3.67,3.98v6.63c0,.13-.09.22-.22.22h-1.42Z"/>
      <path class="cls-1" d="m84.46,246.09c-.13,0-.22-.09-.22-.22v-1.61c0-.13.09-.22.22-.22h1.5c.13,0,.22.09.22.22v1.61c0,.13-.09.22-.22.22h-1.5Zm.04,12.98c-.13,0-.22-.09-.22-.22v-10.15c0-.13.09-.22.22-.22h1.42c.13,0,.22.09.22.22v10.15c0,.13-.09.22-.22.22h-1.42Z"/>
      <path class="cls-1" d="m96.18,259.07c-.13,0-.22-.09-.22-.22v-.93h-.02c-.49.8-1.53,1.39-3.14,1.39-2.01,0-3.56-1.04-3.56-3.18s1.55-3.27,4.13-3.27h2.41c.09,0,.13-.04.13-.13v-.77c0-1.46-.58-2.08-2.54-2.08-1.19,0-1.95.31-2.56.75-.11.09-.24.09-.31-.02l-.6-1.02c-.07-.13-.04-.22.04-.31.8-.62,2.03-1.04,3.6-1.04,3.01,0,4.16,1,4.16,3.6v7.01c0,.13-.09.22-.22.22h-1.3Zm-.26-3.43v-1.17c0-.09-.04-.13-.13-.13h-2.12c-1.83,0-2.63.53-2.63,1.72,0,1.08.8,1.66,2.21,1.66,1.66,0,2.68-.77,2.68-2.08Z"/>
      <path class="cls-1" d="m113.12,245.82v-.07h-4.58c-.09,0-.13.04-.13.13v1.88c0,.13-.09.22-.22.22h-1.33c-.13,0-.22-.09-.22-.22v-3.52c0-.13.09-.22.22-.22h8.03c.13,0,.22.09.22.22v1.37c0,.09-.02.16-.04.22l-5.17,13.02c-.07.16-.11.2-.29.2h-1.48c-.13,0-.2-.09-.13-.24l5.13-13Z"/>
      <path class="cls-1" d="m118.49,256.72h1.55c.13,0,.22.09.22.22v2.06c0,.22-.02.33-.13.49l-1.37,1.81c-.09.11-.18.15-.29.15s-.2-.09-.2-.2v-4.31c0-.13.09-.22.22-.22Z"/>
      <path class="cls-1" d="m123.89,255.9l1.3-.33c.16-.02.24.04.29.18.24,1.06,1.06,1.83,2.45,1.83,1.04,0,1.88-.51,2.21-1.48.15-.42.2-1,.2-1.88,0-.93-.07-1.48-.22-1.9-.33-1.02-1.15-1.46-2.19-1.46-1.19,0-1.97.69-2.21,1.39-.07.15-.11.22-.26.22h-1.3c-.13,0-.22-.09-.22-.22v-8c0-.13.09-.22.22-.22h7.56c.13,0,.22.09.22.22v1.28c0,.13-.09.22-.22.22h-5.93c-.09,0-.13.04-.13.13v4.22h.07c.35-.46,1.24-.97,2.48-.97,1.83,0,3.18.86,3.71,2.48.2.64.33,1.39.33,2.61,0,1.06-.11,1.83-.31,2.43-.55,1.7-2.1,2.65-4,2.65-2.32,0-3.94-1.3-4.22-3.14-.02-.13.04-.24.18-.27Z"/>
    </g>
    <polygon class="cls-3" points="483.53 253.03 415.92 198.95 362.18 100.56 253.7 145.65 197.64 253.03 321.99 293.27 361.53 415.89 424.15 316.53 483.53 253.03"/>
  </g>
  <circle class="cls-2" cx="362.05" cy="100.58" r="2.14"/>
  <circle class="cls-2" cx="253.58" cy="145.67" r="2.14"/>
  <circle class="cls-2" cx="198.2" cy="253.58" r="2.14"/>
  <circle class="cls-2" cx="361.85" cy="415.96" r="2.14"/>
  <circle class="cls-2" cx="321.79" cy="293.79" r="2.14"/>
  <circle class="cls-2" cx="416.11" cy="198.86" r="2.14"/>
  <circle class="cls-2" cx="482.69" cy="253.18" r="2.14"/>
  <circle class="cls-2" cx="424.29" cy="316.95" r="2.14"/>
</svg>