<?xml version="1.0" encoding="UTF-8"?>
<svg xmlns="http://www.w3.org/2000/svg" viewBox="0 0 715.06 500.4">
  <defs>
    <style>
      .cls-1 {
        fill: #4a4518;
      }

      .cls-1, .cls-2, .cls-3, .cls-4 {
        stroke-width: 0px;
      }

      .cls-5 {
        isolation: isolate;
      }

      .cls-3 {
        fill: #fff;
      }

      .cls-4 {
        fill: #f1dc53;
        mix-blend-mode: multiply;
        opacity: .73;
      }

      .cls-6 {
        fill: none;
        stroke: gray;
        stroke-miterlimit: 10;
        stroke-width: .72px;
      }
    </style>
  </defs>
  <g class="cls-5">
    <g id="Camada_1" data-name="Camada 1">
      <g>
        <g>
          <g>
            <circle class="cls-6" cx="362.61" cy="252.53" r="175.08"/>
            <circle class="cls-6" cx="362.61" cy="252.53" r="152.73"/>
            <circle class="cls-6" cx="362.61" cy="252.53" r="109.73"/>
            <circle class="cls-6" cx="362.61" cy="252.53" r="88.59"/>
            <circle class="cls-6" cx="362.61" cy="252.53" r="22.16"/>
            <circle class="cls-6" cx="362.61" cy="252.53" r="66.22"/>
            <circle class="cls-6" cx="362.61" cy="252.53" r="43.74"/>
            <circle class="cls-6" cx="362.61" cy="252.53" r="131.37"/>
            <circle class="cls-6" cx="362.61" cy="252.53" r="196.44"/>
            <circle class="cls-6" cx="362.61" cy="252.53" r="218.53"/>
          </g>
          <g>
            <line class="cls-6" x1="362.63" y1="252.73" x2="516.8" y2="407.79"/>
            <line class="cls-6" x1="362.63" y1="252.73" x2="516.29" y2="97.43"/>
            <polyline class="cls-6" points="362.2 471.44 362.85 97.17 363.02 33.63"/>
            <line class="cls-6" x1="362.25" y1="250.76" x2="207.67" y2="98.55"/>
            <line class="cls-6" x1="581.11" y1="252.19" x2="144.11" y2="252.15"/>
            <line class="cls-6" x1="362.63" y1="252.73" x2="206.97" y2="406.31"/>
          </g>
        </g>
        <circle class="cls-3" cx="362.63" cy="252.53" r="6.25"/>
        <path class="cls-2" d="m359.74,252.5c0-2.2.1-2.69.21-3.05.37-1.14,1.26-1.77,2.55-1.77s2.18.63,2.55,1.77c.11.36.21.85.21,3.05s-.1,2.69-.21,3.05c-.37,1.14-1.26,1.77-2.55,1.77s-2.18-.63-2.55-1.77c-.11-.36-.21-.85-.21-3.05Zm2.76,3.75c.69,0,1.19-.32,1.41-.93.1-.29.15-.69.15-2.81s-.05-2.53-.15-2.82c-.22-.62-.73-.93-1.41-.93s-1.19.32-1.42.93c-.1.29-.15.69-.15,2.82s.05,2.53.15,2.81c.22.62.73.93,1.42.93Z"/>
        <circle class="cls-3" cx="362.9" cy="209.23" r="6.25"/>
        <path class="cls-2" d="m360.21,213.09c0-.08.01-.13.07-.2l3.44-4.38c.42-.53.67-1.05.67-1.66,0-.86-.57-1.5-1.5-1.5s-1.42.55-1.56,1.4c-.01.08-.07.13-.15.11l-.86-.18c-.08-.03-.13-.08-.11-.17.13-1.14,1.02-2.26,2.71-2.26s2.68,1.12,2.68,2.59c0,.86-.35,1.56-.92,2.29l-2.95,3.7h0s3.73.01,3.73.01c.08,0,.14.06.14.14v.81c0,.09-.06.14-.14.14h-5.1c-.08,0-.14-.05-.14-.14v-.73Z"/>
        <circle class="cls-3" cx="361.94" cy="296.76" r="6.25"/>
        <path class="cls-2" d="m359.11,300.62c0-.08.01-.13.07-.2l3.44-4.38c.42-.53.67-1.05.67-1.65,0-.86-.57-1.5-1.5-1.5s-1.42.55-1.56,1.4c-.01.08-.07.12-.15.11l-.86-.18c-.08-.03-.13-.08-.11-.17.13-1.14,1.02-2.26,2.71-2.26s2.68,1.12,2.68,2.59c0,.86-.35,1.56-.92,2.29l-2.95,3.7h0s3.73.01,3.73.01c.08,0,.14.05.14.14v.81c0,.08-.06.14-.14.14h-5.1c-.08,0-.14-.06-.14-.14v-.73Z"/>
        <circle class="cls-3" cx="362.9" cy="163.96" r="6.25"/>
        <path class="cls-2" d="m359.84,166.88v-.77c0-.06.01-.11.04-.17l3.08-6.68c.04-.08.1-.11.2-.11h.94c.1,0,.13.05.1.12l-3.04,6.63v.03h2.52c.06,0,.08-.03.08-.09v-2.5c0-.08.06-.14.14-.14h.9c.08,0,.14.05.14.14v2.5c0,.06.03.09.08.09h.87c.08,0,.14.05.14.14v.8c0,.08-.06.14-.14.14h-.87c-.06,0-.08.03-.08.08v1.45c0,.08-.06.14-.14.14h-.9c-.08,0-.14-.06-.14-.14v-1.45c0-.05-.03-.08-.08-.08h-3.7c-.08,0-.14-.05-.14-.14Z"/>
        <circle class="cls-3" cx="361.94" cy="340.99" r="6.25"/>
        <path class="cls-2" d="m358.75,343.91v-.77c0-.06.01-.11.04-.17l3.08-6.68c.04-.08.1-.11.2-.11h.94c.1,0,.13.05.1.12l-3.04,6.63v.03h2.52c.06,0,.08-.03.08-.09v-2.5c0-.08.06-.14.14-.14h.9c.08,0,.14.05.14.14v2.5c0,.06.03.09.08.09h.87c.08,0,.14.05.14.14v.8c0,.08-.06.14-.14.14h-.87c-.06,0-.08.03-.08.08v1.45c0,.08-.06.14-.14.14h-.9c-.08,0-.14-.06-.14-.14v-1.45c0-.05-.03-.08-.08-.08h-3.7c-.08,0-.14-.05-.14-.14Z"/>
        <circle class="cls-3" cx="362.9" cy="121.29" r="6.25"/>
        <path class="cls-2" d="m360.61,121.08l2.43-4.5c.04-.08.08-.1.18-.1h.95c.1,0,.13.05.08.14l-2.13,3.96.03.03c.18-.12.56-.22.97-.22,1.5,0,2.71,1.09,2.71,2.83,0,1.87-1.28,2.96-2.93,2.96s-2.92-1.09-2.92-2.92c0-.76.27-1.5.63-2.17Zm2.29,4c1.04,0,1.73-.74,1.73-1.81s-.69-1.79-1.73-1.79-1.71.73-1.71,1.79.67,1.81,1.71,1.81Z"/>
        <circle class="cls-3" cx="361.94" cy="382.91" r="6.25"/>
        <path class="cls-2" d="m359.52,382.71l2.43-4.5c.04-.08.08-.1.18-.1h.95c.1,0,.13.06.08.14l-2.13,3.96.03.03c.18-.13.56-.22.97-.22,1.5,0,2.71,1.09,2.71,2.83,0,1.87-1.28,2.96-2.93,2.96s-2.92-1.09-2.92-2.92c0-.76.27-1.5.63-2.17Zm2.29,4c1.04,0,1.73-.74,1.73-1.81s-.69-1.79-1.73-1.79-1.71.73-1.71,1.79.67,1.81,1.71,1.81Z"/>
        <circle class="cls-3" cx="363.27" cy="77.63" r="6.25"/>
        <path class="cls-2" d="m361.67,77.36v-.03c-.6-.34-1.12-1.07-1.12-2.02,0-1.43,1.02-2.64,2.72-2.64s2.72,1.21,2.72,2.64c0,.95-.52,1.68-1.12,2.02v.03c.76.41,1.35,1.23,1.35,2.36,0,1.67-1.21,2.8-2.95,2.8s-2.94-1.13-2.94-2.8c0-1.12.59-1.95,1.35-2.36Zm1.6,4.07c1.05,0,1.74-.74,1.74-1.77s-.69-1.75-1.74-1.75-1.74.74-1.74,1.75.7,1.77,1.74,1.77Zm1.51-6.14c0-.84-.6-1.52-1.51-1.52s-1.51.67-1.51,1.52.59,1.53,1.51,1.53,1.51-.69,1.51-1.53Z"/>
        <circle class="cls-3" cx="362.93" cy="427.73" r="6.25"/>
        <path class="cls-2" d="m361.2,427.45v-.03c-.6-.34-1.12-1.06-1.12-2.02,0-1.43,1.02-2.63,2.72-2.63s2.72,1.21,2.72,2.63c0,.96-.52,1.68-1.12,2.02v.03c.76.41,1.35,1.23,1.35,2.36,0,1.67-1.21,2.8-2.95,2.8s-2.94-1.14-2.94-2.8c0-1.12.59-1.95,1.35-2.36Zm1.6,4.07c1.05,0,1.74-.74,1.74-1.77s-.69-1.75-1.74-1.75-1.74.74-1.74,1.75.7,1.77,1.74,1.77Zm1.51-6.14c0-.84-.6-1.51-1.51-1.51s-1.51.67-1.51,1.51.59,1.53,1.51,1.53,1.51-.69,1.51-1.53Z"/>
        <circle class="cls-3" cx="363.72" cy="33.59" r="5.94"/>
        <g>
          <path class="cls-2" d="m360,30.85h-.02l-1.31.92c-.07.04-.13.02-.13-.07v-.86c0-.07.02-.12.08-.16l1.36-.99c.06-.05.1-.07.19-.07h.7c.07,0,.12.05.12.12v7.65c0,.07-.05.12-.12.12h-.74c-.07,0-.12-.05-.12-.12v-6.54Z"/>
          <path class="cls-2" d="m363.1,33.57c0-1.86.08-2.27.17-2.57.31-.96,1.07-1.5,2.16-1.5s1.84.53,2.16,1.5c.09.3.17.72.17,2.57s-.08,2.27-.17,2.57c-.31.96-1.07,1.5-2.16,1.5s-1.84-.53-2.16-1.5c-.09-.3-.17-.72-.17-2.57Zm2.33,3.17c.58,0,1.01-.27,1.19-.79.08-.24.13-.58.13-2.38s-.05-2.13-.13-2.38c-.19-.52-.61-.79-1.19-.79s-1.01.27-1.19.79c-.08.24-.13.58-.13,2.38s.05,2.13.13,2.38c.19.52.61.79,1.19.79Z"/>
        </g>
        <circle class="cls-3" cx="363.07" cy="471.72" r="6.86"/>
        <g>
          <path class="cls-2" d="m358.77,468.55h-.03l-1.51,1.06c-.08.05-.15.03-.15-.08v-.99c0-.08.03-.13.09-.19l1.57-1.14c.07-.05.12-.08.21-.08h.8c.08,0,.13.05.13.13v8.83c0,.08-.05.13-.13.13h-.86c-.08,0-.13-.05-.13-.13v-7.55Z"/>
          <path class="cls-2" d="m362.36,471.68c0-2.14.09-2.62.2-2.97.36-1.11,1.23-1.73,2.49-1.73s2.13.62,2.49,1.73c.11.35.2.83.2,2.97s-.09,2.62-.2,2.97c-.36,1.11-1.23,1.73-2.49,1.73s-2.13-.62-2.49-1.73c-.11-.35-.2-.83-.2-2.97Zm2.69,3.65c.67,0,1.16-.31,1.38-.91.09-.28.15-.67.15-2.74s-.05-2.46-.15-2.74c-.21-.6-.71-.91-1.38-.91s-1.17.31-1.38.91c-.09.28-.15.67-.15,2.74s.05,2.46.15,2.74c.21.6.71.91,1.38.91Z"/>
        </g>
        <g>
          <path class="cls-2" d="m315.52,2.77c0-.13.09-.22.22-.22h9.04c.13,0,.22.09.22.22v1.39c0,.13-.09.22-.22.22h-7.16c-.09,0-.13.04-.13.13v4.58c0,.09.04.13.13.13h6.08c.13,0,.22.09.22.22v1.39c0,.13-.09.22-.22.22h-6.08c-.09,0-.13.04-.13.13v6.17c0,.13-.09.22-.22.22h-1.53c-.13,0-.22-.09-.22-.22V2.77Z"/>
          <path class="cls-2" d="m327.99,17.58c-.13,0-.22-.09-.22-.22V7.21c0-.13.09-.22.22-.22h1.42c.13,0,.22.09.22.22v1.08h.02c.46-.91,1.39-1.55,2.81-1.55.84,0,1.64.31,2.17.8.11.11.13.2.04.31l-.82,1.08c-.09.11-.2.13-.31.04-.49-.31-1.02-.51-1.64-.51-1.61,0-2.28,1.26-2.28,3.1v5.79c0,.13-.09.22-.22.22h-1.42Z"/>
          <path class="cls-2" d="m343.49,17.58c-.13,0-.22-.09-.22-.22v-.99h-.02c-.55.88-1.53,1.46-2.9,1.46-2.32,0-3.67-1.59-3.67-4v-6.61c0-.13.09-.22.22-.22h1.42c.13,0,.22.09.22.22v6.17c0,1.72.77,2.72,2.34,2.72,1.44,0,2.39-1.02,2.39-2.61v-6.28c0-.13.09-.22.22-.22h1.42c.13,0,.22.09.22.22v10.15c0,.13-.09.22-.22.22h-1.42Z"/>
          <path class="cls-2" d="m351.83,17.69c-2.06,0-2.85-.93-2.85-3.01v-6.06c0-.09-.04-.13-.13-.13h-.88c-.13,0-.22-.09-.22-.22v-1.06c0-.13.09-.22.22-.22h.88c.09,0,.13-.04.13-.13v-2.98c0-.13.09-.22.22-.22h1.42c.13,0,.22.09.22.22v2.98c0,.09.04.13.13.13h1.68c.13,0,.22.09.22.22v1.06c0,.13-.09.22-.22.22h-1.68c-.09,0-.13.04-.13.13v5.99c0,1.06.4,1.35,1.35,1.35h.46c.13,0,.22.09.22.22v1.28c0,.13-.09.22-.22.22h-.82Z"/>
          <path class="cls-2" d="m362.15,17.58c-.13,0-.22-.09-.22-.22v-.93h-.02c-.49.79-1.53,1.39-3.14,1.39-2.01,0-3.56-1.04-3.56-3.18s1.55-3.27,4.13-3.27h2.41c.09,0,.13-.04.13-.13v-.77c0-1.46-.58-2.08-2.54-2.08-1.19,0-1.95.31-2.56.75-.11.09-.24.09-.31-.02l-.6-1.02c-.07-.13-.04-.22.04-.31.8-.62,2.03-1.04,3.6-1.04,3.01,0,4.16,1,4.16,3.61v7.01c0,.13-.09.22-.22.22h-1.3Zm-.26-3.43v-1.17c0-.09-.04-.13-.13-.13h-2.12c-1.83,0-2.63.53-2.63,1.72,0,1.08.8,1.66,2.21,1.66,1.66,0,2.68-.77,2.68-2.08Z"/>
          <path class="cls-2" d="m373.86,17.58c-.13,0-.22-.09-.22-.22v-1.02h-.02c-.51.84-1.42,1.48-3.01,1.48-1.84,0-3.12-.86-3.65-2.54-.29-.84-.38-1.68-.38-3.01s.09-2.14.38-2.98c.53-1.68,1.81-2.54,3.65-2.54,1.59,0,2.5.62,3.01,1.46h.02V2.77c0-.13.09-.22.22-.22h1.42c.13,0,.22.09.22.22v14.59c0,.13-.09.22-.22.22h-1.42Zm-.46-3.1c.18-.51.24-1.15.24-2.21s-.07-1.68-.24-2.21c-.35-1.06-1.17-1.59-2.34-1.59s-1.97.55-2.32,1.59c-.18.58-.24,1.26-.24,2.21s.07,1.66.24,2.21c.35,1.04,1.15,1.62,2.32,1.62s1.99-.55,2.34-1.62Z"/>
          <path class="cls-2" d="m378.83,14.97c-.24-.73-.35-1.46-.35-2.7s.11-1.95.35-2.67c.58-1.81,2.12-2.85,4.18-2.85s3.6,1.04,4.18,2.85c.24.73.35,1.46.35,2.67s-.11,1.97-.35,2.7c-.57,1.79-2.12,2.85-4.18,2.85s-3.6-1.06-4.18-2.85Zm6.57-.53c.18-.58.24-1.15.24-2.17s-.07-1.57-.24-2.14c-.35-1.06-1.22-1.66-2.39-1.66s-2.03.6-2.39,1.66c-.18.58-.24,1.13-.24,2.14s.07,1.59.24,2.17c.35,1.06,1.22,1.66,2.39,1.66s2.03-.6,2.39-1.66Z"/>
          <path class="cls-2" d="m397.5,9.69v-.04c-.95-.53-1.77-1.68-1.77-3.18,0-2.26,1.61-4.16,4.29-4.16s4.29,1.9,4.29,4.16c0,1.5-.82,2.65-1.77,3.18v.04c1.19.64,2.12,1.95,2.12,3.71,0,2.63-1.9,4.42-4.64,4.42s-4.64-1.79-4.64-4.42c0-1.77.93-3.07,2.12-3.71Zm2.52,6.41c1.66,0,2.74-1.17,2.74-2.79s-1.08-2.76-2.74-2.76-2.74,1.17-2.74,2.76,1.11,2.79,2.74,2.79Zm2.39-9.69c0-1.33-.95-2.39-2.39-2.39s-2.39,1.06-2.39,2.39.93,2.41,2.39,2.41,2.39-1.08,2.39-2.41Z"/>
          <path class="cls-2" d="m407.78,15.23h1.55c.13,0,.22.09.22.22v2.05c0,.22-.02.33-.13.49l-1.37,1.81c-.09.11-.18.15-.29.15s-.2-.09-.2-.2v-4.31c0-.13.09-.22.22-.22Z"/>
          <path class="cls-2" d="m412.65,10.06c0-3.54.15-4.33.33-4.91.6-1.83,2.03-2.85,4.11-2.85s3.51,1.02,4.11,2.85c.18.58.33,1.37.33,4.91s-.15,4.33-.33,4.91c-.6,1.84-2.03,2.85-4.11,2.85s-3.52-1.02-4.11-2.85c-.18-.57-.33-1.37-.33-4.91Zm4.44,6.04c1.11,0,1.92-.51,2.28-1.5.15-.46.24-1.11.24-4.53s-.09-4.07-.24-4.53c-.35-1-1.17-1.5-2.28-1.5s-1.92.51-2.28,1.5c-.16.46-.24,1.11-.24,4.53s.09,4.07.24,4.53c.35.99,1.17,1.5,2.28,1.5Z"/>
        </g>
        <g>
          <path class="cls-2" d="m319.49,481.88c.04-.13.11-.22.26-.22h1.44c.15,0,.24.09.29.22l5.15,14.59c.04.13-.02.22-.15.22h-1.55c-.15,0-.24-.07-.29-.22l-1.15-3.27h-6.08l-1.15,3.27c-.07.15-.15.22-.29.22h-1.55c-.13,0-.2-.09-.16-.22l5.22-14.59Zm3.36,9.51l-2.37-6.83h-.04l-2.39,6.83h4.8Z"/>
          <path class="cls-2" d="m329.19,496.69c-.13,0-.22-.09-.22-.22v-10.15c0-.13.09-.22.22-.22h1.42c.13,0,.22.09.22.22v1.08h.02c.46-.91,1.39-1.55,2.81-1.55.84,0,1.64.31,2.17.79.11.11.13.2.04.31l-.82,1.08c-.09.11-.2.13-.31.04-.49-.31-1.02-.51-1.64-.51-1.61,0-2.28,1.26-2.28,3.1v5.79c0,.13-.09.22-.22.22h-1.42Z"/>
          <path class="cls-2" d="m337.75,494.08c-.24-.73-.35-1.46-.35-2.7s.11-1.95.35-2.68c.58-1.81,2.12-2.85,4.18-2.85s3.6,1.04,4.18,2.85c.24.73.35,1.46.35,2.68s-.11,1.97-.35,2.7c-.57,1.79-2.12,2.85-4.18,2.85s-3.6-1.06-4.18-2.85Zm6.57-.53c.18-.57.24-1.15.24-2.17s-.07-1.57-.24-2.14c-.35-1.06-1.22-1.66-2.39-1.66s-2.03.6-2.39,1.66c-.18.57-.24,1.13-.24,2.14s.07,1.59.24,2.17c.35,1.06,1.22,1.66,2.39,1.66s2.03-.6,2.39-1.66Z"/>
          <path class="cls-2" d="m362.98,496.69c-.13,0-.22-.09-.22-.22v-6.19c0-1.7-.77-2.7-2.37-2.7-1.42,0-2.43,1.02-2.43,2.59v6.3c0,.13-.09.22-.22.22h-1.42c-.13,0-.22-.09-.22-.22v-6.19c0-1.7-.77-2.7-2.37-2.7-1.44,0-2.43,1.02-2.43,2.59v6.3c0,.13-.09.22-.22.22h-1.42c-.13,0-.22-.09-.22-.22v-10.15c0-.13.09-.22.22-.22h1.42c.13,0,.22.09.22.22v.97h.02c.51-.82,1.53-1.44,2.96-1.44s2.5.6,3.1,1.66h.02c.73-1.02,1.81-1.66,3.43-1.66,2.46,0,3.78,1.57,3.78,3.98v6.63c0,.13-.09.22-.22.22h-1.42Z"/>
          <path class="cls-2" d="m374.55,496.69c-.13,0-.22-.09-.22-.22v-.93h-.02c-.49.8-1.53,1.39-3.14,1.39-2.01,0-3.56-1.04-3.56-3.18s1.55-3.27,4.13-3.27h2.41c.09,0,.13-.04.13-.13v-.77c0-1.46-.58-2.08-2.54-2.08-1.19,0-1.95.31-2.56.75-.11.09-.24.09-.31-.02l-.6-1.02c-.07-.13-.04-.22.04-.31.8-.62,2.03-1.04,3.6-1.04,3.01,0,4.16.99,4.16,3.6v7.01c0,.13-.09.22-.22.22h-1.3Zm-.26-3.43v-1.17c0-.09-.04-.13-.13-.13h-2.12c-1.83,0-2.63.53-2.63,1.72,0,1.08.8,1.66,2.21,1.66,1.66,0,2.68-.77,2.68-2.08Z"/>
          <path class="cls-2" d="m378.89,495.34c-.09-.09-.09-.22,0-.31l.91-.97c.09-.09.22-.09.31,0,.8.69,1.99,1.21,3.27,1.21,1.55,0,2.32-.66,2.32-1.61,0-.84-.4-1.3-2.06-1.48l-1.13-.11c-2.08-.22-3.16-1.26-3.16-2.98,0-2.01,1.44-3.23,3.94-3.23,1.55,0,2.87.51,3.76,1.17.11.07.11.2.04.31l-.75.95c-.09.11-.2.11-.31.04-.69-.44-1.77-.86-2.85-.86-1.33,0-2.01.6-2.01,1.46s.51,1.28,2.08,1.44l1.11.11c2.14.2,3.18,1.28,3.18,2.98,0,2.08-1.5,3.47-4.27,3.47-2.06,0-3.52-.84-4.38-1.59Z"/>
          <path class="cls-2" d="m397.42,488.8v-.04c-.95-.53-1.77-1.68-1.77-3.18,0-2.26,1.61-4.16,4.29-4.16s4.29,1.9,4.29,4.16c0,1.5-.82,2.65-1.77,3.18v.04c1.19.64,2.12,1.95,2.12,3.71,0,2.63-1.9,4.42-4.64,4.42s-4.64-1.79-4.64-4.42c0-1.77.93-3.07,2.12-3.71Zm2.52,6.41c1.66,0,2.74-1.17,2.74-2.79s-1.08-2.76-2.74-2.76-2.74,1.17-2.74,2.76,1.11,2.79,2.74,2.79Zm2.39-9.68c0-1.33-.95-2.39-2.39-2.39s-2.39,1.06-2.39,2.39.93,2.41,2.39,2.41,2.39-1.08,2.39-2.41Z"/>
          <path class="cls-2" d="m407.7,494.35h1.55c.13,0,.22.09.22.22v2.06c0,.22-.02.33-.13.49l-1.37,1.81c-.09.11-.18.15-.29.15s-.2-.09-.2-.2v-4.31c0-.13.09-.22.22-.22Z"/>
          <path class="cls-2" d="m412.57,489.17c0-3.54.15-4.33.33-4.91.6-1.84,2.03-2.85,4.11-2.85s3.51,1.02,4.11,2.85c.18.57.33,1.37.33,4.91s-.15,4.33-.33,4.91c-.6,1.84-2.03,2.85-4.11,2.85s-3.52-1.02-4.11-2.85c-.18-.57-.33-1.37-.33-4.91Zm4.44,6.04c1.11,0,1.92-.51,2.28-1.5.15-.46.24-1.11.24-4.53s-.09-4.07-.24-4.53c-.35-.99-1.17-1.5-2.28-1.5s-1.92.51-2.28,1.5c-.16.46-.24,1.11-.24,4.53s.09,4.07.24,4.53c.35.99,1.17,1.5,2.28,1.5Z"/>
        </g>
        <g>
          <path class="cls-2" d="m530.63,78.9c.04-.13.11-.22.26-.22h1.44c.15,0,.24.09.29.22l5.15,14.59c.04.13-.02.22-.15.22h-1.55c-.15,0-.24-.07-.29-.22l-1.15-3.27h-6.08l-1.15,3.27c-.07.15-.15.22-.29.22h-1.55c-.13,0-.2-.09-.16-.22l5.22-14.59Zm3.36,9.51l-2.37-6.83h-.04l-2.39,6.83h4.8Z"/>
          <path class="cls-2" d="m553.65,93.72c-.13,0-.22-.09-.22-.22v-6.19c0-1.7-.77-2.7-2.37-2.7-1.42,0-2.43,1.02-2.43,2.59v6.3c0,.13-.09.22-.22.22h-1.42c-.13,0-.22-.09-.22-.22v-6.19c0-1.7-.77-2.7-2.37-2.7-1.44,0-2.43,1.02-2.43,2.59v6.3c0,.13-.09.22-.22.22h-1.42c-.13,0-.22-.09-.22-.22v-10.15c0-.13.09-.22.22-.22h1.42c.13,0,.22.09.22.22v.97h.02c.51-.82,1.53-1.44,2.96-1.44s2.5.6,3.1,1.66h.02c.73-1.02,1.81-1.66,3.43-1.66,2.46,0,3.78,1.57,3.78,3.98v6.63c0,.13-.09.22-.22.22h-1.42Z"/>
          <path class="cls-2" d="m565.22,93.72c-.13,0-.22-.09-.22-.22v-.93h-.02c-.49.8-1.53,1.39-3.14,1.39-2.01,0-3.56-1.04-3.56-3.18s1.55-3.27,4.13-3.27h2.41c.09,0,.13-.04.13-.13v-.77c0-1.46-.58-2.08-2.54-2.08-1.19,0-1.95.31-2.56.75-.11.09-.24.09-.31-.02l-.6-1.02c-.07-.13-.04-.22.04-.31.8-.62,2.03-1.04,3.6-1.04,3.01,0,4.16.99,4.16,3.6v7.01c0,.13-.09.22-.22.22h-1.3Zm-.26-3.43v-1.17c0-.09-.04-.13-.13-.13h-2.12c-1.83,0-2.63.53-2.63,1.72,0,1.08.8,1.66,2.21,1.66,1.66,0,2.68-.77,2.68-2.08Z"/>
          <path class="cls-2" d="m570.51,93.72c-.13,0-.22-.09-.22-.22v-10.15c0-.13.09-.22.22-.22h1.42c.13,0,.22.09.22.22v1.08h.02c.46-.91,1.39-1.55,2.81-1.55.84,0,1.64.31,2.17.79.11.11.13.2.04.31l-.82,1.08c-.09.11-.2.13-.31.04-.49-.31-1.02-.51-1.64-.51-1.61,0-2.28,1.26-2.28,3.1v5.79c0,.13-.09.22-.22.22h-1.42Z"/>
          <path class="cls-2" d="m578.74,96.37c-.09-.11-.09-.2.02-.31l.91-.91c.11-.11.22-.11.33,0,.73.66,1.48,1.06,2.5,1.06,1.75,0,2.68-.91,2.68-2.85v-1.24h-.02c-.49.88-1.39,1.46-2.94,1.46-1.79,0-3.03-.91-3.56-2.56-.27-.8-.35-1.57-.35-2.79s.09-1.99.35-2.79c.53-1.66,1.77-2.56,3.56-2.56,1.55,0,2.45.57,2.94,1.46h.02v-.99c0-.13.09-.22.22-.22h1.42c.13,0,.22.09.22.22v9.9c0,3.01-1.64,4.69-4.62,4.69-1.48,0-2.96-.64-3.67-1.57Zm6.19-6.08c.18-.53.24-1.15.24-2.06s-.07-1.5-.24-2.05c-.38-1.08-1.15-1.57-2.25-1.57s-1.88.55-2.23,1.57c-.18.55-.26,1.19-.26,2.05s.09,1.53.26,2.06c.35,1.04,1.08,1.59,2.23,1.59s1.88-.51,2.25-1.59Z"/>
          <path class="cls-2" d="m590.37,91.11c-.24-.73-.35-1.46-.35-2.7s.11-1.95.35-2.68c.58-1.81,2.12-2.85,4.18-2.85s3.6,1.04,4.18,2.85c.24.73.35,1.46.35,2.68s-.11,1.97-.35,2.7c-.57,1.79-2.12,2.85-4.18,2.85s-3.6-1.06-4.18-2.85Zm6.57-.53c.18-.57.24-1.15.24-2.17s-.07-1.57-.24-2.14c-.35-1.06-1.22-1.66-2.39-1.66s-2.03.6-2.39,1.66c-.18.57-.24,1.13-.24,2.14s.07,1.59.24,2.17c.35,1.06,1.22,1.66,2.39,1.66s2.03-.6,2.39-1.66Z"/>
          <path class="cls-2" d="m602.29,93.72c-.13,0-.22-.09-.22-.22v-10.15c0-.13.09-.22.22-.22h1.42c.13,0,.22.09.22.22v1.08h.02c.46-.91,1.39-1.55,2.81-1.55.84,0,1.64.31,2.17.79.11.11.13.2.04.31l-.82,1.08c-.09.11-.2.13-.31.04-.49-.31-1.02-.51-1.64-.51-1.61,0-2.28,1.26-2.28,3.1v5.79c0,.13-.09.22-.22.22h-1.42Z"/>
          <path class="cls-2" d="m615.8,90.86v-1.21c0-.09.02-.18.07-.27l4.86-10.52c.07-.13.15-.18.31-.18h1.48c.15,0,.2.09.15.2l-4.8,10.46v.04h3.98c.09,0,.13-.04.13-.13v-3.94c0-.13.09-.22.22-.22h1.42c.13,0,.22.09.22.22v3.94c0,.09.04.13.13.13h1.37c.13,0,.22.09.22.22v1.26c0,.13-.09.22-.22.22h-1.37c-.09,0-.13.04-.13.13v2.28c0,.13-.09.22-.22.22h-1.42c-.13,0-.22-.09-.22-.22v-2.28c0-.09-.04-.13-.13-.13h-5.84c-.13,0-.22-.09-.22-.22Z"/>
          <path class="cls-2" d="m628.38,91.37h1.55c.13,0,.22.09.22.22v2.06c0,.22-.02.33-.13.49l-1.37,1.81c-.09.11-.18.15-.29.15s-.2-.09-.2-.2v-4.31c0-.13.09-.22.22-.22Z"/>
          <path class="cls-2" d="m633.25,86.2c0-3.54.15-4.33.33-4.91.6-1.84,2.03-2.85,4.11-2.85s3.51,1.02,4.11,2.85c.18.57.33,1.37.33,4.91s-.15,4.33-.33,4.91c-.6,1.84-2.03,2.85-4.11,2.85s-3.52-1.02-4.11-2.85c-.18-.57-.33-1.37-.33-4.91Zm4.44,6.04c1.11,0,1.92-.51,2.28-1.5.15-.46.24-1.11.24-4.53s-.09-4.07-.24-4.53c-.35-.99-1.17-1.5-2.28-1.5s-1.92.51-2.28,1.5c-.16.46-.24,1.11-.24,4.53s.09,4.07.24,4.53c.35.99,1.17,1.5,2.28,1.5Z"/>
        </g>
        <g>
          <path class="cls-2" d="m89.89,93.72c-.15,0-.22-.07-.29-.22l-3.01-6.15h-3.32c-.09,0-.13.04-.13.13v6.02c0,.13-.09.22-.22.22h-1.53c-.13,0-.22-.09-.22-.22v-14.59c0-.13.09-.22.22-.22h5.44c2.81,0,4.71,1.72,4.71,4.33,0,2.03-1.15,3.52-2.96,4.09l3.21,6.35c.09.13.02.27-.13.27h-1.77Zm-.31-10.7c0-1.57-1.04-2.5-2.79-2.5h-3.52c-.09,0-.13.04-.13.13v4.73c0,.09.04.13.13.13h3.52c1.75,0,2.79-.93,2.79-2.5Z"/>
          <path class="cls-2" d="m94.49,91.09c-.22-.69-.35-1.46-.35-2.68s.11-2.04.33-2.68c.6-1.83,2.14-2.85,4.16-2.85s3.56,1.04,4.16,2.85c.22.69.33,1.42.33,3.03,0,.13-.09.22-.24.22h-6.7c-.09,0-.13.04-.13.13,0,.57.07.93.18,1.28.42,1.21,1.37,1.83,2.68,1.83s2.14-.51,2.72-1.17c.11-.11.22-.13.33-.04l.91.82c.11.09.11.2.02.31-.84,1.06-2.28,1.81-4.13,1.81-2.14,0-3.67-1.04-4.25-2.87Zm6.59-3.58c.09,0,.13-.04.13-.13,0-.49-.04-.86-.16-1.19-.35-1.06-1.24-1.66-2.43-1.66s-2.08.6-2.43,1.66c-.11.33-.16.71-.16,1.19,0,.09.04.13.13.13h4.91Z"/>
          <path class="cls-2" d="m109.17,93.83c-2.06,0-2.85-.93-2.85-3.01v-6.06c0-.09-.04-.13-.13-.13h-.88c-.13,0-.22-.09-.22-.22v-1.06c0-.13.09-.22.22-.22h.88c.09,0,.13-.04.13-.13v-2.98c0-.13.09-.22.22-.22h1.42c.13,0,.22.09.22.22v2.98c0,.09.04.13.13.13h1.68c.13,0,.22.09.22.22v1.06c0,.13-.09.22-.22.22h-1.68c-.09,0-.13.04-.13.13v5.99c0,1.06.4,1.35,1.35,1.35h.46c.13,0,.22.09.22.22v1.28c0,.13-.09.22-.22.22h-.82Z"/>
          <path class="cls-2" d="m113.31,93.72c-.13,0-.22-.09-.22-.22v-10.15c0-.13.09-.22.22-.22h1.42c.13,0,.22.09.22.22v1.08h.02c.46-.91,1.39-1.55,2.81-1.55.84,0,1.64.31,2.17.79.11.11.13.2.04.31l-.82,1.08c-.09.11-.2.13-.31.04-.49-.31-1.02-.51-1.64-.51-1.61,0-2.28,1.26-2.28,3.1v5.79c0,.13-.09.22-.22.22h-1.42Z"/>
          <path class="cls-2" d="m121.87,91.11c-.24-.73-.35-1.46-.35-2.7s.11-1.95.35-2.68c.58-1.81,2.12-2.85,4.18-2.85s3.6,1.04,4.18,2.85c.24.73.35,1.46.35,2.68s-.11,1.97-.35,2.7c-.57,1.79-2.12,2.85-4.18,2.85s-3.6-1.06-4.18-2.85Zm6.57-.53c.18-.57.24-1.15.24-2.17s-.07-1.57-.24-2.14c-.35-1.06-1.22-1.66-2.39-1.66s-2.03.6-2.39,1.66c-.18.57-.24,1.13-.24,2.14s.07,1.59.24,2.17c.35,1.06,1.22,1.66,2.39,1.66s2.03-.6,2.39-1.66Z"/>
          <path class="cls-2" d="m133.35,96.37c-.09-.11-.09-.2.02-.31l.91-.91c.11-.11.22-.11.33,0,.73.66,1.48,1.06,2.5,1.06,1.75,0,2.68-.91,2.68-2.85v-1.24h-.02c-.49.88-1.39,1.46-2.94,1.46-1.79,0-3.03-.91-3.56-2.56-.27-.8-.35-1.57-.35-2.79s.09-1.99.35-2.79c.53-1.66,1.77-2.56,3.56-2.56,1.55,0,2.45.57,2.94,1.46h.02v-.99c0-.13.09-.22.22-.22h1.42c.13,0,.22.09.22.22v9.9c0,3.01-1.64,4.69-4.62,4.69-1.48,0-2.96-.64-3.67-1.57Zm6.19-6.08c.18-.53.24-1.15.24-2.06s-.07-1.5-.24-2.05c-.38-1.08-1.15-1.57-2.25-1.57s-1.88.55-2.23,1.57c-.18.55-.26,1.19-.26,2.05s.09,1.53.26,2.06c.35,1.04,1.08,1.59,2.23,1.59s1.88-.51,2.25-1.59Z"/>
          <path class="cls-2" d="m144.98,91.11c-.24-.73-.35-1.46-.35-2.7s.11-1.95.35-2.68c.58-1.81,2.12-2.85,4.18-2.85s3.6,1.04,4.18,2.85c.24.73.35,1.46.35,2.68s-.11,1.97-.35,2.7c-.57,1.79-2.12,2.85-4.18,2.85s-3.6-1.06-4.18-2.85Zm6.57-.53c.18-.57.24-1.15.24-2.17s-.07-1.57-.24-2.14c-.35-1.06-1.22-1.66-2.39-1.66s-2.03.6-2.39,1.66c-.18.57-.24,1.13-.24,2.14s.07,1.59.24,2.17c.35,1.06,1.22,1.66,2.39,1.66s2.03-.6,2.39-1.66Z"/>
          <path class="cls-2" d="m155.95,92.37c-.09-.09-.09-.22,0-.31l.91-.97c.09-.09.22-.09.31,0,.8.69,1.99,1.21,3.27,1.21,1.55,0,2.32-.66,2.32-1.61,0-.84-.4-1.3-2.06-1.48l-1.13-.11c-2.08-.22-3.16-1.26-3.16-2.98,0-2.01,1.44-3.23,3.94-3.23,1.55,0,2.87.51,3.76,1.17.11.07.11.2.04.31l-.75.95c-.09.11-.2.11-.31.04-.69-.44-1.77-.86-2.85-.86-1.33,0-2.01.6-2.01,1.46s.51,1.28,2.08,1.44l1.11.11c2.14.2,3.18,1.28,3.18,2.98,0,2.08-1.5,3.47-4.27,3.47-2.06,0-3.52-.84-4.38-1.59Z"/>
          <path class="cls-2" d="m170.59,93.83c-2.06,0-2.85-.93-2.85-3.01v-6.06c0-.09-.04-.13-.13-.13h-.88c-.13,0-.22-.09-.22-.22v-1.06c0-.13.09-.22.22-.22h.88c.09,0,.13-.04.13-.13v-2.98c0-.13.09-.22.22-.22h1.42c.13,0,.22.09.22.22v2.98c0,.09.04.13.13.13h1.68c.13,0,.22.09.22.22v1.06c0,.13-.09.22-.22.22h-1.68c-.09,0-.13.04-.13.13v5.99c0,1.06.4,1.35,1.35,1.35h.46c.13,0,.22.09.22.22v1.28c0,.13-.09.22-.22.22h-.82Z"/>
          <path class="cls-2" d="m174.22,91.11c-.24-.73-.35-1.46-.35-2.7s.11-1.95.35-2.68c.58-1.81,2.12-2.85,4.18-2.85s3.6,1.04,4.18,2.85c.24.73.35,1.46.35,2.68s-.11,1.97-.35,2.7c-.57,1.79-2.12,2.85-4.18,2.85s-3.6-1.06-4.18-2.85Zm6.57-.53c.18-.57.24-1.15.24-2.17s-.07-1.57-.24-2.14c-.35-1.06-1.22-1.66-2.39-1.66s-2.03.6-2.39,1.66c-.18.57-.24,1.13-.24,2.14s.07,1.59.24,2.17c.35,1.06,1.22,1.66,2.39,1.66s2.03-.6,2.39-1.66Z"/>
          <path class="cls-2" d="m197.79,80.47v-.07h-4.58c-.09,0-.13.04-.13.13v1.88c0,.13-.09.22-.22.22h-1.33c-.13,0-.22-.09-.22-.22v-3.52c0-.13.09-.22.22-.22h8.03c.13,0,.22.09.22.22v1.37c0,.09-.02.15-.04.22l-5.17,13.02c-.07.15-.11.2-.29.2h-1.48c-.13,0-.2-.09-.13-.24l5.13-13Z"/>
        </g>
        <g>
          <path class="cls-2" d="m523.36,420.43c-.09-.09-.11-.22-.02-.33l.97-1.15c.09-.11.2-.11.31-.02.97.77,2.48,1.55,4.2,1.55,2.08,0,3.32-1.04,3.32-2.56,0-1.28-.73-2.14-3.14-2.46l-.75-.11c-2.92-.4-4.42-1.79-4.42-4.16,0-2.68,1.92-4.4,4.91-4.4,1.77,0,3.47.57,4.58,1.39.11.09.13.2.04.31l-.75,1.21c-.09.11-.2.11-.31.04-1.22-.75-2.34-1.13-3.63-1.13-1.83,0-2.85.99-2.85,2.43,0,1.26.84,2.1,3.16,2.41l.73.11c2.94.4,4.42,1.75,4.42,4.2,0,2.63-1.86,4.53-5.48,4.53-2.12,0-4.18-.86-5.28-1.88Z"/>
          <path class="cls-2" d="m543.77,422.07c-.13,0-.22-.09-.22-.22v-.99h-.02c-.55.88-1.53,1.46-2.9,1.46-2.32,0-3.67-1.59-3.67-4v-6.61c0-.13.09-.22.22-.22h1.42c.13,0,.22.09.22.22v6.17c0,1.72.77,2.72,2.34,2.72,1.44,0,2.39-1.02,2.39-2.61v-6.28c0-.13.09-.22.22-.22h1.42c.13,0,.22.09.22.22v10.15c0,.13-.09.22-.22.22h-1.42Z"/>
          <path class="cls-2" d="m555.45,422.07c-.13,0-.22-.09-.22-.22v-.93h-.02c-.49.79-1.53,1.39-3.14,1.39-2.01,0-3.56-1.04-3.56-3.18s1.55-3.27,4.13-3.27h2.41c.09,0,.13-.04.13-.13v-.77c0-1.46-.58-2.08-2.54-2.08-1.19,0-1.95.31-2.56.75-.11.09-.24.09-.31-.02l-.6-1.02c-.07-.13-.04-.22.04-.31.8-.62,2.03-1.04,3.6-1.04,3.01,0,4.16,1,4.16,3.61v7.01c0,.13-.09.22-.22.22h-1.3Zm-.26-3.43v-1.17c0-.09-.04-.13-.13-.13h-2.12c-1.83,0-2.63.53-2.63,1.72,0,1.08.8,1.66,2.21,1.66,1.66,0,2.68-.77,2.68-2.08Z"/>
          <path class="cls-2" d="m563.28,422.07c-.16,0-.22-.09-.27-.22l-3.8-10.15c-.04-.13.02-.22.18-.22h1.53c.15,0,.22.07.29.22l2.74,7.61h.04l2.68-7.61c.04-.15.13-.22.26-.22h1.5c.15,0,.22.09.18.22l-3.78,10.15c-.04.13-.13.22-.29.22h-1.26Z"/>
          <path class="cls-2" d="m571.18,409.09c-.13,0-.22-.09-.22-.22v-1.61c0-.13.09-.22.22-.22h1.5c.13,0,.22.09.22.22v1.61c0,.13-.09.22-.22.22h-1.5Zm.04,12.98c-.13,0-.22-.09-.22-.22v-10.15c0-.13.09-.22.22-.22h1.42c.13,0,.22.09.22.22v10.15c0,.13-.09.22-.22.22h-1.42Z"/>
          <path class="cls-2" d="m583.12,422.07c-.13,0-.22-.09-.22-.22v-1.02h-.02c-.51.84-1.42,1.48-3.01,1.48-1.84,0-3.12-.86-3.65-2.54-.29-.84-.38-1.68-.38-3.01s.09-2.14.38-2.98c.53-1.68,1.81-2.54,3.65-2.54,1.59,0,2.5.62,3.01,1.46h.02v-5.44c0-.13.09-.22.22-.22h1.42c.13,0,.22.09.22.22v14.59c0,.13-.09.22-.22.22h-1.42Zm-.46-3.1c.18-.51.24-1.15.24-2.21s-.07-1.68-.24-2.21c-.35-1.06-1.17-1.59-2.34-1.59s-1.97.55-2.32,1.59c-.18.58-.24,1.26-.24,2.21s.07,1.66.24,2.21c.35,1.04,1.15,1.62,2.32,1.62s1.99-.55,2.34-1.62Z"/>
          <path class="cls-2" d="m594.79,422.07c-.13,0-.22-.09-.22-.22v-.93h-.02c-.49.79-1.53,1.39-3.14,1.39-2.01,0-3.56-1.04-3.56-3.18s1.55-3.27,4.13-3.27h2.41c.09,0,.13-.04.13-.13v-.77c0-1.46-.58-2.08-2.54-2.08-1.19,0-1.95.31-2.56.75-.11.09-.24.09-.31-.02l-.6-1.02c-.07-.13-.04-.22.04-.31.8-.62,2.03-1.04,3.6-1.04,3.01,0,4.16,1,4.16,3.61v7.01c0,.13-.09.22-.22.22h-1.3Zm-.26-3.43v-1.17c0-.09-.04-.13-.13-.13h-2.12c-1.83,0-2.63.53-2.63,1.72,0,1.08.8,1.66,2.21,1.66,1.66,0,2.68-.77,2.68-2.08Z"/>
          <path class="cls-2" d="m606.49,422.07c-.13,0-.22-.09-.22-.22v-1.02h-.02c-.51.84-1.42,1.48-3.01,1.48-1.84,0-3.12-.86-3.65-2.54-.29-.84-.38-1.68-.38-3.01s.09-2.14.38-2.98c.53-1.68,1.81-2.54,3.65-2.54,1.59,0,2.5.62,3.01,1.46h.02v-5.44c0-.13.09-.22.22-.22h1.42c.13,0,.22.09.22.22v14.59c0,.13-.09.22-.22.22h-1.42Zm-.46-3.1c.18-.51.24-1.15.24-2.21s-.07-1.68-.24-2.21c-.35-1.06-1.17-1.59-2.34-1.59s-1.97.55-2.32,1.59c-.18.58-.24,1.26-.24,2.21s.07,1.66.24,2.21c.35,1.04,1.15,1.62,2.32,1.62s1.99-.55,2.34-1.62Z"/>
          <path class="cls-2" d="m611.47,419.44c-.22-.69-.35-1.46-.35-2.68s.11-2.03.33-2.67c.6-1.84,2.14-2.85,4.16-2.85s3.56,1.04,4.16,2.85c.22.69.33,1.41.33,3.03,0,.13-.09.22-.24.22h-6.7c-.09,0-.13.04-.13.13,0,.57.07.93.18,1.28.42,1.22,1.37,1.84,2.68,1.84s2.14-.51,2.72-1.17c.11-.11.22-.13.33-.04l.91.82c.11.09.11.2.02.31-.84,1.06-2.28,1.81-4.13,1.81-2.14,0-3.67-1.04-4.25-2.88Zm6.59-3.58c.09,0,.13-.04.13-.13,0-.49-.04-.86-.16-1.19-.35-1.06-1.24-1.66-2.43-1.66s-2.08.6-2.43,1.66c-.11.33-.16.71-.16,1.19,0,.09.04.13.13.13h4.91Z"/>
          <path class="cls-2" d="m628.65,418.91l1.3-.33c.16-.02.24.04.29.18.24,1.06,1.06,1.84,2.45,1.84,1.04,0,1.88-.51,2.21-1.48.15-.42.2-.99.2-1.88s-.07-1.48-.22-1.9c-.33-1.02-1.15-1.46-2.19-1.46-1.19,0-1.97.69-2.21,1.39-.07.15-.11.22-.26.22h-1.3c-.13,0-.22-.09-.22-.22v-8c0-.13.09-.22.22-.22h7.56c.13,0,.22.09.22.22v1.28c0,.13-.09.22-.22.22h-5.93c-.09,0-.13.04-.13.13v4.22h.07c.35-.46,1.24-.97,2.48-.97,1.83,0,3.18.86,3.71,2.48.2.64.33,1.39.33,2.61,0,1.06-.11,1.84-.31,2.43-.55,1.7-2.1,2.65-4,2.65-2.32,0-3.94-1.3-4.22-3.14-.02-.13.04-.24.18-.27Z"/>
          <path class="cls-2" d="m640.33,419.72h1.55c.13,0,.22.09.22.22v2.05c0,.22-.02.33-.13.49l-1.37,1.81c-.09.11-.18.15-.29.15s-.2-.09-.2-.2v-4.31c0-.13.09-.22.22-.22Z"/>
          <path class="cls-2" d="m645.2,414.55c0-3.54.15-4.33.33-4.91.6-1.83,2.03-2.85,4.11-2.85s3.51,1.02,4.11,2.85c.18.58.33,1.37.33,4.91s-.15,4.33-.33,4.91c-.6,1.84-2.03,2.85-4.11,2.85s-3.52-1.02-4.11-2.85c-.18-.57-.33-1.37-.33-4.91Zm4.44,6.04c1.11,0,1.92-.51,2.28-1.5.15-.46.24-1.11.24-4.53s-.09-4.07-.24-4.53c-.35-1-1.17-1.5-2.28-1.5s-1.92.51-2.28,1.5c-.16.46-.24,1.11-.24,4.53s.09,4.07.24,4.53c.35.99,1.17,1.5,2.28,1.5Z"/>
        </g>
        <g>
          <path class="cls-2" d="m38.62,409.9c.04-.13.11-.22.26-.22h1.44c.15,0,.24.09.29.22l5.15,14.59c.04.13-.02.22-.15.22h-1.55c-.15,0-.24-.07-.29-.22l-1.15-3.27h-6.08l-1.15,3.27c-.07.15-.15.22-.29.22h-1.55c-.13,0-.2-.09-.16-.22l5.22-14.59Zm3.36,9.51l-2.37-6.83h-.04l-2.39,6.83h4.8Z"/>
          <path class="cls-2" d="m54.65,424.72c-.13,0-.22-.09-.22-.22v-1.02h-.02c-.51.84-1.42,1.48-3.01,1.48-1.84,0-3.12-.86-3.65-2.54-.29-.84-.38-1.68-.38-3.01s.09-2.14.38-2.98c.53-1.68,1.81-2.54,3.65-2.54,1.59,0,2.5.62,3.01,1.46h.02v-5.44c0-.13.09-.22.22-.22h1.42c.13,0,.22.09.22.22v14.59c0,.13-.09.22-.22.22h-1.42Zm-.46-3.1c.18-.51.24-1.15.24-2.21s-.07-1.68-.24-2.21c-.35-1.06-1.17-1.59-2.34-1.59s-1.97.55-2.32,1.59c-.18.57-.24,1.26-.24,2.21s.07,1.66.24,2.21c.35,1.04,1.15,1.61,2.32,1.61s1.99-.55,2.34-1.61Z"/>
          <path class="cls-2" d="m59.19,423.37c-.09-.09-.09-.22,0-.31l.91-.97c.09-.09.22-.09.31,0,.8.69,1.99,1.21,3.27,1.21,1.55,0,2.32-.66,2.32-1.61,0-.84-.4-1.3-2.06-1.48l-1.13-.11c-2.08-.22-3.16-1.26-3.16-2.98,0-2.01,1.44-3.23,3.94-3.23,1.55,0,2.87.51,3.76,1.17.11.07.11.2.04.31l-.75.95c-.09.11-.2.11-.31.04-.69-.44-1.77-.86-2.85-.86-1.33,0-2.01.6-2.01,1.46s.51,1.28,2.08,1.44l1.11.11c2.14.2,3.18,1.28,3.18,2.98,0,2.08-1.5,3.47-4.27,3.47-2.06,0-3.52-.84-4.38-1.59Z"/>
          <path class="cls-2" d="m73.83,424.83c-2.06,0-2.85-.93-2.85-3.01v-6.06c0-.09-.04-.13-.13-.13h-.88c-.13,0-.22-.09-.22-.22v-1.06c0-.13.09-.22.22-.22h.88c.09,0,.13-.04.13-.13v-2.98c0-.13.09-.22.22-.22h1.42c.13,0,.22.09.22.22v2.98c0,.09.04.13.13.13h1.68c.13,0,.22.09.22.22v1.06c0,.13-.09.22-.22.22h-1.68c-.09,0-.13.04-.13.13v5.99c0,1.06.4,1.35,1.35,1.35h.46c.13,0,.22.09.22.22v1.28c0,.13-.09.22-.22.22h-.82Z"/>
          <path class="cls-2" d="m77.96,424.72c-.13,0-.22-.09-.22-.22v-10.15c0-.13.09-.22.22-.22h1.42c.13,0,.22.09.22.22v1.08h.02c.46-.91,1.39-1.55,2.81-1.55.84,0,1.64.31,2.17.79.11.11.13.2.04.31l-.82,1.08c-.09.11-.2.13-.31.04-.49-.31-1.02-.51-1.64-.51-1.61,0-2.28,1.26-2.28,3.1v5.79c0,.13-.09.22-.22.22h-1.42Z"/>
          <path class="cls-2" d="m86.99,411.74c-.13,0-.22-.09-.22-.22v-1.62c0-.13.09-.22.22-.22h1.5c.13,0,.22.09.22.22v1.62c0,.13-.09.22-.22.22h-1.5Zm.04,12.98c-.13,0-.22-.09-.22-.22v-10.15c0-.13.09-.22.22-.22h1.42c.13,0,.22.09.22.22v10.15c0,.13-.09.22-.22.22h-1.42Z"/>
          <path class="cls-2" d="m99.17,424.72c-.13,0-.22-.09-.22-.22v-6.19c0-1.7-.77-2.7-2.37-2.7-1.44,0-2.43,1.02-2.43,2.59v6.3c0,.13-.09.22-.22.22h-1.42c-.13,0-.22-.09-.22-.22v-10.15c0-.13.09-.22.22-.22h1.42c.13,0,.22.09.22.22v.97h.02c.51-.82,1.53-1.44,2.96-1.44,2.3,0,3.67,1.57,3.67,3.98v6.63c0,.13-.09.22-.22.22h-1.42Z"/>
          <path class="cls-2" d="m104.1,427.37c-.09-.11-.09-.2.02-.31l.91-.91c.11-.11.22-.11.33,0,.73.66,1.48,1.06,2.5,1.06,1.75,0,2.68-.91,2.68-2.85v-1.24h-.02c-.49.88-1.39,1.46-2.94,1.46-1.79,0-3.03-.91-3.56-2.56-.27-.8-.35-1.57-.35-2.79s.09-1.99.35-2.79c.53-1.66,1.77-2.56,3.56-2.56,1.55,0,2.45.57,2.94,1.46h.02v-.99c0-.13.09-.22.22-.22h1.42c.13,0,.22.09.22.22v9.9c0,3.01-1.64,4.69-4.62,4.69-1.48,0-2.96-.64-3.67-1.57Zm6.19-6.08c.18-.53.24-1.15.24-2.06s-.07-1.5-.24-2.05c-.38-1.08-1.15-1.57-2.26-1.57s-1.88.55-2.23,1.57c-.18.55-.26,1.19-.26,2.05s.09,1.53.26,2.06c.35,1.04,1.08,1.59,2.23,1.59s1.88-.51,2.26-1.59Z"/>
          <path class="cls-2" d="m115.73,422.09c-.22-.69-.35-1.46-.35-2.68s.11-2.04.33-2.68c.6-1.83,2.14-2.85,4.16-2.85s3.56,1.04,4.16,2.85c.22.69.33,1.42.33,3.03,0,.13-.09.22-.24.22h-6.7c-.09,0-.13.04-.13.13,0,.57.07.93.18,1.28.42,1.21,1.37,1.83,2.68,1.83s2.14-.51,2.72-1.17c.11-.11.22-.13.33-.04l.91.82c.11.09.11.2.02.31-.84,1.06-2.28,1.81-4.13,1.81-2.14,0-3.67-1.04-4.25-2.87Zm5.97-9.69c-.18,0-.27-.04-.42-.22l-1.39-1.55h-.04l-1.42,1.55c-.15.18-.22.22-.42.22h-1c-.13,0-.18-.11-.09-.22l2.1-2.72c.11-.16.2-.22.35-.22h.95c.16,0,.24.06.35.22l2.1,2.72c.09.11.04.22-.09.22h-1Zm.62,6.1c.09,0,.13-.04.13-.13,0-.49-.04-.86-.16-1.19-.35-1.06-1.24-1.66-2.43-1.66s-2.08.6-2.43,1.66c-.11.33-.16.71-.16,1.19,0,.09.04.13.13.13h4.91Z"/>
          <path class="cls-2" d="m134.22,424.72c-.13,0-.22-.09-.22-.22v-6.19c0-1.7-.77-2.7-2.37-2.7-1.44,0-2.43,1.02-2.43,2.59v6.3c0,.13-.09.22-.22.22h-1.42c-.13,0-.22-.09-.22-.22v-10.15c0-.13.09-.22.22-.22h1.42c.13,0,.22.09.22.22v.97h.02c.51-.82,1.53-1.44,2.96-1.44,2.3,0,3.67,1.57,3.67,3.98v6.63c0,.13-.09.22-.22.22h-1.42Z"/>
          <path class="cls-2" d="m139.07,416.74c.6-1.83,2.14-2.85,4.18-2.85,1.61,0,2.85.69,3.63,1.79.07.11.07.2-.07.31l-.97.8c-.11.09-.22.09-.31-.02-.62-.77-1.22-1.15-2.28-1.15-1.15,0-2.01.55-2.37,1.66-.18.55-.24,1.21-.24,2.14s.07,1.61.24,2.17c.35,1.11,1.22,1.66,2.37,1.66,1.06,0,1.66-.38,2.28-1.15.09-.11.2-.11.31-.02l.97.8c.13.11.13.2.07.31-.77,1.11-2.01,1.79-3.63,1.79-2.03,0-3.58-1.02-4.18-2.85-.2-.64-.33-1.5-.33-2.7s.13-2.04.33-2.68Z"/>
          <path class="cls-2" d="m149.99,411.74c-.13,0-.22-.09-.22-.22v-1.62c0-.13.09-.22.22-.22h1.5c.13,0,.22.09.22.22v1.62c0,.13-.09.22-.22.22h-1.5Zm.04,12.98c-.13,0-.22-.09-.22-.22v-10.15c0-.13.09-.22.22-.22h1.42c.13,0,.22.09.22.22v10.15c0,.13-.09.22-.22.22h-1.42Z"/>
          <path class="cls-2" d="m161.71,424.72c-.13,0-.22-.09-.22-.22v-.93h-.02c-.49.8-1.53,1.39-3.14,1.39-2.01,0-3.56-1.04-3.56-3.18s1.55-3.27,4.13-3.27h2.41c.09,0,.13-.04.13-.13v-.77c0-1.46-.58-2.08-2.54-2.08-1.19,0-1.95.31-2.56.75-.11.09-.24.09-.31-.02l-.6-1.02c-.07-.13-.04-.22.04-.31.8-.62,2.03-1.04,3.6-1.04,3.01,0,4.16.99,4.16,3.6v7.01c0,.13-.09.22-.22.22h-1.3Zm-.26-3.43v-1.17c0-.09-.04-.13-.13-.13h-2.12c-1.83,0-2.63.53-2.63,1.72,0,1.08.8,1.66,2.21,1.66,1.66,0,2.68-.77,2.68-2.08Z"/>
          <path class="cls-2" d="m171.93,421.51l1.35-.33c.13-.04.22.02.27.15.31.95,1.08,1.9,2.67,1.9s2.59-1.13,2.59-2.65c0-1.68-1.08-2.79-2.76-2.79h-.66c-.13,0-.22-.09-.22-.22v-1.28c0-.13.09-.22.22-.22h.64c1.5,0,2.5-1,2.5-2.52,0-1.39-.91-2.39-2.41-2.39-1.39,0-2.12.82-2.39,1.84-.04.13-.13.2-.27.18l-1.33-.33c-.13-.02-.2-.13-.18-.27.31-1.68,1.81-3.14,4.22-3.14,2.65,0,4.25,1.7,4.25,4.07,0,1.5-.82,2.59-1.86,3.23v.04c.93.4,2.14,1.68,2.14,3.74,0,2.63-1.88,4.44-4.49,4.44-2.43,0-4.05-1.35-4.47-3.18-.02-.13.04-.22.18-.27Z"/>
          <path class="cls-2" d="m184.03,422.37h1.55c.13,0,.22.09.22.22v2.06c0,.22-.02.33-.13.49l-1.37,1.81c-.09.11-.18.15-.29.15s-.2-.09-.2-.2v-4.31c0-.13.09-.22.22-.22Z"/>
          <path class="cls-2" d="m189.42,421.56l1.3-.33c.16-.02.24.04.29.18.24,1.06,1.06,1.83,2.45,1.83,1.04,0,1.88-.51,2.21-1.48.15-.42.2-1,.2-1.88,0-.93-.07-1.48-.22-1.9-.33-1.02-1.15-1.46-2.19-1.46-1.19,0-1.97.69-2.21,1.39-.07.15-.11.22-.26.22h-1.3c-.13,0-.22-.09-.22-.22v-8c0-.13.09-.22.22-.22h7.56c.13,0,.22.09.22.22v1.28c0,.13-.09.22-.22.22h-5.93c-.09,0-.13.04-.13.13v4.22h.07c.35-.46,1.24-.97,2.48-.97,1.83,0,3.18.86,3.71,2.48.2.64.33,1.39.33,2.61,0,1.06-.11,1.83-.31,2.43-.55,1.7-2.1,2.65-4,2.65-2.32,0-3.94-1.3-4.22-3.14-.02-.13.04-.24.18-.27Z"/>
        </g>
        <g>
          <path class="cls-2" d="m597.05,258.14c-.13,0-.22-.09-.22-.22v-14.59c0-.13.09-.22.22-.22h5.35c2.9,0,4.78,1.77,4.78,4.49s-1.88,4.49-4.78,4.49h-3.47c-.09,0-.13.04-.13.13v5.71c0,.13-.09.22-.22.22h-1.53Zm8.18-10.55c0-1.64-1.08-2.65-2.94-2.65h-3.36c-.09,0-.13.04-.13.13v5.04c0,.09.04.13.13.13h3.36c1.86,0,2.94-1.02,2.94-2.65Z"/>
          <path class="cls-2" d="m610.06,245.16c-.13,0-.22-.09-.22-.22v-1.62c0-.13.09-.22.22-.22h1.5c.13,0,.22.09.22.22v1.62c0,.13-.09.22-.22.22h-1.5Zm.04,12.98c-.13,0-.22-.09-.22-.22v-10.15c0-.13.09-.22.22-.22h1.42c.13,0,.22.09.22.22v10.15c0,.13-.09.22-.22.22h-1.42Z"/>
          <path class="cls-2" d="m615.06,250.16c.6-1.83,2.14-2.85,4.18-2.85,1.61,0,2.85.69,3.63,1.79.07.11.07.2-.07.31l-.97.8c-.11.09-.22.09-.31-.02-.62-.77-1.22-1.15-2.28-1.15-1.15,0-2.01.55-2.37,1.66-.18.55-.24,1.21-.24,2.14s.07,1.61.24,2.17c.35,1.11,1.22,1.66,2.37,1.66,1.06,0,1.66-.38,2.28-1.15.09-.11.2-.11.31-.02l.97.8c.13.11.13.2.07.31-.77,1.11-2.01,1.79-3.63,1.79-2.03,0-3.58-1.02-4.18-2.85-.2-.64-.33-1.5-.33-2.7s.13-2.04.33-2.68Z"/>
          <path class="cls-2" d="m631.95,258.14c-.13,0-.22-.09-.22-.22v-.93h-.02c-.49.8-1.53,1.39-3.14,1.39-2.01,0-3.56-1.04-3.56-3.18s1.55-3.27,4.13-3.27h2.41c.09,0,.13-.04.13-.13v-.77c0-1.46-.58-2.08-2.54-2.08-1.19,0-1.95.31-2.56.75-.11.09-.24.09-.31-.02l-.6-1.02c-.07-.13-.04-.22.04-.31.8-.62,2.03-1.04,3.6-1.04,3.01,0,4.16.99,4.16,3.6v7.01c0,.13-.09.22-.22.22h-1.3Zm-.66-12.32c-.18,0-.27-.04-.42-.22l-1.39-1.55h-.04l-1.42,1.55c-.15.18-.22.22-.42.22h-1c-.13,0-.18-.11-.09-.22l2.1-2.72c.11-.16.2-.22.35-.22h.95c.16,0,.24.06.35.22l2.1,2.72c.09.11.04.22-.09.22h-1Zm.4,8.89v-1.17c0-.09-.04-.13-.13-.13h-2.12c-1.83,0-2.63.53-2.63,1.72,0,1.08.8,1.66,2.21,1.66,1.66,0,2.68-.77,2.68-2.08Z"/>
          <path class="cls-2" d="m643.89,258.14c-.13,0-.22-.09-.22-.22v-6.19c0-1.7-.77-2.7-2.37-2.7-1.44,0-2.43,1.02-2.43,2.59v6.3c0,.13-.09.22-.22.22h-1.42c-.13,0-.22-.09-.22-.22v-10.15c0-.13.09-.22.22-.22h1.42c.13,0,.22.09.22.22v.97h.02c.51-.82,1.53-1.44,2.96-1.44,2.3,0,3.67,1.57,3.67,3.98v6.63c0,.13-.09.22-.22.22h-1.42Z"/>
          <path class="cls-2" d="m648.74,250.16c.6-1.83,2.14-2.85,4.18-2.85,1.61,0,2.85.69,3.63,1.79.07.11.07.2-.07.31l-.97.8c-.11.09-.22.09-.31-.02-.62-.77-1.22-1.15-2.28-1.15-1.15,0-2.01.55-2.37,1.66-.18.55-.24,1.21-.24,2.14s.07,1.61.24,2.17c.35,1.11,1.22,1.66,2.37,1.66,1.06,0,1.66-.38,2.28-1.15.09-.11.2-.11.31-.02l.97.8c.13.11.13.2.07.31-.77,1.11-2.01,1.79-3.63,1.79-2.03,0-3.58-1.02-4.18-2.85-.2-.64-.33-1.5-.33-2.7s.13-2.04.33-2.68Z"/>
          <path class="cls-2" d="m659.66,245.16c-.13,0-.22-.09-.22-.22v-1.62c0-.13.09-.22.22-.22h1.5c.13,0,.22.09.22.22v1.62c0,.13-.09.22-.22.22h-1.5Zm.04,12.98c-.13,0-.22-.09-.22-.22v-10.15c0-.13.09-.22.22-.22h1.42c.13,0,.22.09.22.22v10.15c0,.13-.09.22-.22.22h-1.42Z"/>
          <path class="cls-2" d="m671.38,258.14c-.13,0-.22-.09-.22-.22v-.93h-.02c-.49.8-1.53,1.39-3.14,1.39-2.01,0-3.56-1.04-3.56-3.18s1.55-3.27,4.13-3.27h2.41c.09,0,.13-.04.13-.13v-.77c0-1.46-.58-2.08-2.54-2.08-1.19,0-1.95.31-2.56.75-.11.09-.24.09-.31-.02l-.6-1.02c-.07-.13-.04-.22.04-.31.8-.62,2.03-1.04,3.6-1.04,3.01,0,4.16.99,4.16,3.6v7.01c0,.13-.09.22-.22.22h-1.3Zm-.26-3.43v-1.17c0-.09-.04-.13-.13-.13h-2.12c-1.83,0-2.63.53-2.63,1.72,0,1.08.8,1.66,2.21,1.66,1.66,0,2.68-.77,2.68-2.08Z"/>
          <path class="cls-2" d="m681.6,254.94l1.35-.33c.13-.04.22.02.27.15.31.95,1.08,1.9,2.67,1.9s2.59-1.13,2.59-2.65c0-1.68-1.08-2.79-2.76-2.79h-.66c-.13,0-.22-.09-.22-.22v-1.28c0-.13.09-.22.22-.22h.64c1.5,0,2.5-1,2.5-2.52,0-1.39-.91-2.39-2.41-2.39-1.39,0-2.12.82-2.39,1.84-.04.13-.13.2-.27.18l-1.33-.33c-.13-.02-.2-.13-.18-.27.31-1.68,1.81-3.14,4.22-3.14,2.65,0,4.25,1.7,4.25,4.07,0,1.5-.82,2.59-1.86,3.23v.04c.93.4,2.14,1.68,2.14,3.74,0,2.63-1.88,4.44-4.49,4.44-2.43,0-4.05-1.35-4.47-3.18-.02-.13.04-.22.18-.27Z"/>
          <path class="cls-2" d="m693.7,255.8h1.55c.13,0,.22.09.22.22v2.06c0,.22-.02.33-.13.49l-1.37,1.81c-.09.11-.18.15-.29.15s-.2-.09-.2-.2v-4.31c0-.13.09-.22.22-.22Z"/>
          <path class="cls-2" d="m699.09,254.98l1.3-.33c.16-.02.24.04.29.18.24,1.06,1.06,1.83,2.45,1.83,1.04,0,1.88-.51,2.21-1.48.15-.42.2-1,.2-1.88,0-.93-.07-1.48-.22-1.9-.33-1.02-1.15-1.46-2.19-1.46-1.19,0-1.97.69-2.21,1.39-.07.15-.11.22-.26.22h-1.3c-.13,0-.22-.09-.22-.22v-8c0-.13.09-.22.22-.22h7.56c.13,0,.22.09.22.22v1.28c0,.13-.09.22-.22.22h-5.93c-.09,0-.13.04-.13.13v4.22h.07c.35-.46,1.24-.97,2.48-.97,1.83,0,3.18.86,3.71,2.48.2.64.33,1.39.33,2.61,0,1.06-.11,1.83-.31,2.43-.55,1.7-2.1,2.65-4,2.65-2.32,0-3.94-1.3-4.22-3.14-.02-.13.04-.24.18-.27Z"/>
        </g>
        <g>
          <path class="cls-2" d="m7.92,243.28c0-.13.09-.22.22-.22h1.53c.13,0,.22.09.22.22v6.17c0,.09.04.13.13.13h6.52c.09,0,.13-.04.13-.13v-6.17c0-.13.09-.22.22-.22h1.53c.13,0,.22.09.22.22v14.59c0,.13-.09.22-.22.22h-1.53c-.13,0-.22-.09-.22-.22v-6.32c0-.09-.04-.13-.13-.13h-6.52c-.09,0-.13.04-.13.13v6.32c0,.13-.09.22-.22.22h-1.53c-.13,0-.22-.09-.22-.22v-14.59Z"/>
          <path class="cls-2" d="m28.73,258.1c-.13,0-.22-.09-.22-.22v-.93h-.02c-.49.8-1.53,1.39-3.14,1.39-2.01,0-3.56-1.04-3.56-3.18s1.55-3.27,4.13-3.27h2.41c.09,0,.13-.04.13-.13v-.77c0-1.46-.58-2.08-2.54-2.08-1.19,0-1.95.31-2.56.75-.11.09-.24.09-.31-.02l-.6-1.02c-.07-.13-.04-.22.04-.31.8-.62,2.03-1.04,3.6-1.04,3.01,0,4.16.99,4.16,3.6v7.01c0,.13-.09.22-.22.22h-1.3Zm-.26-3.43v-1.17c0-.09-.04-.13-.13-.13h-2.12c-1.83,0-2.63.53-2.63,1.72,0,1.08.8,1.66,2.21,1.66,1.66,0,2.68-.77,2.68-2.08Z"/>
          <path class="cls-2" d="m34.01,258.1c-.13,0-.22-.09-.22-.22v-10.15c0-.13.09-.22.22-.22h1.42c.13,0,.22.09.22.22v1.08h.02c.46-.91,1.39-1.55,2.81-1.55.84,0,1.64.31,2.17.79.11.11.13.2.04.31l-.82,1.08c-.09.11-.2.13-.31.04-.49-.31-1.02-.51-1.64-.51-1.61,0-2.28,1.26-2.28,3.1v5.79c0,.13-.09.22-.22.22h-1.42Z"/>
          <path class="cls-2" d="m56.39,258.1c-.13,0-.22-.09-.22-.22v-6.19c0-1.7-.77-2.7-2.37-2.7-1.42,0-2.43,1.02-2.43,2.59v6.3c0,.13-.09.22-.22.22h-1.42c-.13,0-.22-.09-.22-.22v-6.19c0-1.7-.77-2.7-2.37-2.7-1.44,0-2.43,1.02-2.43,2.59v6.3c0,.13-.09.22-.22.22h-1.42c-.13,0-.22-.09-.22-.22v-10.15c0-.13.09-.22.22-.22h1.42c.13,0,.22.09.22.22v.97h.02c.51-.82,1.53-1.44,2.96-1.44s2.5.6,3.1,1.66h.02c.73-1.02,1.81-1.66,3.43-1.66,2.46,0,3.78,1.57,3.78,3.98v6.63c0,.13-.09.22-.22.22h-1.42Z"/>
          <path class="cls-2" d="m61.26,255.49c-.24-.73-.35-1.46-.35-2.7s.11-1.95.35-2.68c.58-1.81,2.12-2.85,4.18-2.85s3.6,1.04,4.18,2.85c.24.73.35,1.46.35,2.68s-.11,1.97-.35,2.7c-.57,1.79-2.12,2.85-4.18,2.85s-3.6-1.06-4.18-2.85Zm6.57-.53c.18-.57.24-1.15.24-2.17s-.07-1.57-.24-2.14c-.35-1.06-1.22-1.66-2.39-1.66s-2.03.6-2.39,1.66c-.18.57-.24,1.13-.24,2.14s.07,1.59.24,2.17c.35,1.06,1.22,1.66,2.39,1.66s2.03-.6,2.39-1.66Z"/>
          <path class="cls-2" d="m79.83,258.1c-.13,0-.22-.09-.22-.22v-6.19c0-1.7-.77-2.7-2.37-2.7-1.44,0-2.43,1.02-2.43,2.59v6.3c0,.13-.09.22-.22.22h-1.42c-.13,0-.22-.09-.22-.22v-10.15c0-.13.09-.22.22-.22h1.42c.13,0,.22.09.22.22v.97h.02c.51-.82,1.53-1.44,2.96-1.44,2.3,0,3.67,1.57,3.67,3.98v6.63c0,.13-.09.22-.22.22h-1.42Z"/>
          <path class="cls-2" d="m85.17,245.12c-.13,0-.22-.09-.22-.22v-1.62c0-.13.09-.22.22-.22h1.5c.13,0,.22.09.22.22v1.62c0,.13-.09.22-.22.22h-1.5Zm.04,12.98c-.13,0-.22-.09-.22-.22v-10.15c0-.13.09-.22.22-.22h1.42c.13,0,.22.09.22.22v10.15c0,.13-.09.22-.22.22h-1.42Z"/>
          <path class="cls-2" d="m96.89,258.1c-.13,0-.22-.09-.22-.22v-.93h-.02c-.49.8-1.53,1.39-3.14,1.39-2.01,0-3.56-1.04-3.56-3.18s1.55-3.27,4.13-3.27h2.41c.09,0,.13-.04.13-.13v-.77c0-1.46-.58-2.08-2.54-2.08-1.19,0-1.95.31-2.56.75-.11.09-.24.09-.31-.02l-.6-1.02c-.07-.13-.04-.22.04-.31.8-.62,2.03-1.04,3.6-1.04,3.01,0,4.16.99,4.16,3.6v7.01c0,.13-.09.22-.22.22h-1.3Zm-.26-3.43v-1.17c0-.09-.04-.13-.13-.13h-2.12c-1.83,0-2.63.53-2.63,1.72,0,1.08.8,1.66,2.21,1.66,1.66,0,2.68-.77,2.68-2.08Z"/>
          <path class="cls-2" d="m108.92,250.2v-.04c-.95-.53-1.77-1.68-1.77-3.18,0-2.26,1.61-4.16,4.29-4.16s4.29,1.9,4.29,4.16c0,1.5-.82,2.65-1.77,3.18v.04c1.19.64,2.12,1.95,2.12,3.71,0,2.63-1.9,4.42-4.64,4.42s-4.64-1.79-4.64-4.42c0-1.77.93-3.07,2.12-3.71Zm2.52,6.41c1.66,0,2.74-1.17,2.74-2.79s-1.08-2.76-2.74-2.76-2.74,1.17-2.74,2.76,1.11,2.79,2.74,2.79Zm2.39-9.68c0-1.33-.95-2.39-2.39-2.39s-2.39,1.06-2.39,2.39.93,2.41,2.39,2.41,2.39-1.08,2.39-2.41Z"/>
          <path class="cls-2" d="m119.2,255.76h1.55c.13,0,.22.09.22.22v2.06c0,.22-.02.33-.13.49l-1.37,1.81c-.09.11-.18.15-.29.15s-.2-.09-.2-.2v-4.31c0-.13.09-.22.22-.22Z"/>
          <path class="cls-2" d="m124.6,254.94l1.3-.33c.16-.02.24.04.29.18.24,1.06,1.06,1.83,2.45,1.83,1.04,0,1.88-.51,2.21-1.48.15-.42.2-1,.2-1.88,0-.93-.07-1.48-.22-1.9-.33-1.02-1.15-1.46-2.19-1.46-1.19,0-1.97.69-2.21,1.39-.07.15-.11.22-.26.22h-1.3c-.13,0-.22-.09-.22-.22v-8c0-.13.09-.22.22-.22h7.56c.13,0,.22.09.22.22v1.28c0,.13-.09.22-.22.22h-5.93c-.09,0-.13.04-.13.13v4.22h.07c.35-.46,1.24-.97,2.48-.97,1.83,0,3.18.86,3.71,2.48.2.64.33,1.39.33,2.61,0,1.06-.11,1.83-.31,2.43-.55,1.7-2.1,2.65-4,2.65-2.32,0-3.94-1.3-4.22-3.14-.02-.13.04-.24.18-.27Z"/>
        </g>
        <polygon class="cls-4" points="441.1 252.21 425.3 189.66 362.83 77 254.41 144.69 175.2 252.06 307.49 306.91 362.39 428.45 439.56 330.26 441.1 252.21"/>
      </g>
      <circle class="cls-1" cx="440.72" cy="252.13" r="2.14"/>
      <circle class="cls-1" cx="425.19" cy="189.7" r="2.14"/>
      <circle class="cls-1" cx="254.57" cy="144.63" r="2.14"/>
      <circle class="cls-1" cx="439.75" cy="330.28" r="2.14"/>
      <circle class="cls-1" cx="307.54" cy="306.97" r="2.14"/>
      <circle class="cls-1" cx="176.23" cy="251.89" r="2.14"/>
    </g>
  </g>
</svg>